<svg width="94" height="91" viewBox="0 0 94 91" fill="none" xmlns="http://www.w3.org/2000/svg">
<path d="M30.3979 75.8448C31.0735 75.8448 31.7338 75.6443 32.2955 75.2685C32.8572 74.8928 33.295 74.3588 33.5535 73.734C33.812 73.1092 33.8796 72.4217 33.7478 71.7584C33.6161 71.0952 33.2908 70.4859 32.8131 70.0077C32.3354 69.5295 31.7268 69.2039 31.0643 69.0719C30.4017 68.94 29.715 69.0077 29.0909 69.2665C28.4668 69.5253 27.9333 69.9636 27.558 70.5259C27.1827 71.0882 26.9824 71.7492 26.9824 72.4255C26.9838 73.332 27.344 74.2009 27.9843 74.8418C28.6245 75.4828 29.4925 75.8435 30.3979 75.8448ZM30.3979 70.0193C30.8733 70.0193 31.338 70.1605 31.7333 70.4249C32.1285 70.6893 32.4366 71.065 32.6185 71.5047C32.8004 71.9444 32.848 72.4282 32.7553 72.8949C32.6625 73.3617 32.4336 73.7904 32.0975 74.1269C31.7614 74.4634 31.3331 74.6926 30.8669 74.7854C30.4006 74.8783 29.9174 74.8306 29.4782 74.6485C29.039 74.4664 28.6636 74.158 28.3995 73.7623C28.1354 73.3666 27.9944 72.9014 27.9944 72.4255C27.9951 71.7876 28.2485 71.1759 28.6991 70.7248C29.1497 70.2737 29.7607 70.02 30.3979 70.0193Z" fill="#F79B4C" stroke="#F79B4C" stroke-width="0.7"/>
<path d="M91.4536 35.0718C88.3012 32.0071 83.8003 34.0764 83.6105 34.165L83.5397 34.1979L64.2913 52.0643C62.8922 50.0938 60.2433 49.4302 60.1142 49.3998H60.0687C58.9808 49.2377 33.3669 45.4461 28.8305 46.9227C25.1165 48.1309 22.718 51.3906 21.8654 52.7229L19.1507 50.0077L1.14453 68.0261L23.4745 90.3806L41.4806 72.3546L40.3674 71.2377H41.0303C46.437 71.2377 61.5564 71.1921 63.8992 70.6855C67.0946 69.9941 89.4852 46.2819 92.0279 43.5845L92.0735 43.5364L92.1063 43.4781C92.2177 43.2679 94.7882 38.41 91.4536 35.0718ZM23.4745 88.947L2.57652 68.0261L19.1507 51.4311L40.0512 72.3546L23.4745 88.947ZM91.2436 42.9361C81.3411 53.4548 65.8726 69.2216 63.6866 69.6952C61.1313 70.2473 41.5818 70.2271 39.3529 70.222L22.6092 53.4523C23.2696 52.3961 25.5921 49.0376 29.1519 47.8801C33.4048 46.4947 58.9504 50.2509 59.9068 50.3927C60.1598 50.4611 62.9732 51.2462 63.8587 53.3333C64.3647 54.506 64.1648 55.9167 63.2894 57.5251L43.7906 56.7526L43.7501 57.7657L63.8637 58.5635L64.0155 58.3102C65.1895 56.2992 65.4475 54.4933 64.7897 52.9432C64.7695 52.8976 64.7467 52.8495 64.7239 52.8039L64.8555 52.9458L84.1191 35.0667C84.6554 34.8387 88.3012 33.4229 90.7528 35.8088C93.3663 38.4328 91.4991 42.427 91.2436 42.9361Z" fill="#F79B4C" stroke="#F79B4C" stroke-width="0.7"/>
<path d="M40.793 23.1471C40.793 26.2389 41.7088 29.2613 43.4246 31.832C45.1405 34.4028 47.5792 36.4065 50.4325 37.5896C53.2859 38.7728 56.4256 39.0824 59.4546 38.4792C62.4837 37.876 65.2661 36.3872 67.4499 34.2009C69.6338 32.0147 71.121 29.2293 71.7235 26.1969C72.326 23.1645 72.0168 20.0213 70.8349 17.1648C69.653 14.3084 67.6516 11.8669 65.0836 10.1492C62.5157 8.43148 59.4967 7.51465 56.4083 7.51465C52.2683 7.51934 48.2992 9.16784 45.3718 12.0985C42.4443 15.0291 40.7977 19.0026 40.793 23.1471ZM56.4083 8.52777C59.2965 8.52777 62.1199 9.38518 64.5214 10.9916C66.9229 12.598 68.7946 14.8812 69.8999 17.5525C71.0052 20.2239 71.2944 23.1633 70.7309 25.9992C70.1675 28.8351 68.7766 31.44 66.7343 33.4846C64.692 35.5291 62.09 36.9215 59.2572 37.4856C56.4245 38.0496 53.4882 37.7601 50.8198 36.6536C48.1514 35.5471 45.8707 33.6733 44.2661 31.2692C42.6614 28.8651 41.805 26.0385 41.805 23.1471C41.809 19.2711 43.3488 15.5549 46.0866 12.8141C48.8244 10.0733 52.5365 8.53179 56.4083 8.52777Z" fill="#F79B4C" stroke="#F79B4C" stroke-width="0.7"/>
<path d="M50.2074 32.5896L56.4085 29.3146L62.607 32.5794L61.423 25.6674L66.4375 20.774L59.5078 19.7609L56.4085 13.4745L53.3067 19.7609L46.377 20.774L51.3915 25.6674L50.2074 32.5896ZM48.5502 21.4908L53.9822 20.7031L56.411 15.7793L58.8348 20.7031L64.2642 21.4933L60.3351 25.3255L61.2636 30.7381L56.4085 28.1825L51.5508 30.7381L52.4794 25.3255L48.5502 21.4908Z" fill="#F79B4C" stroke="#F79B4C" stroke-width="0.7"/>
<path d="M55.8948 0.668701H54.8828V5.71151H55.8948V0.668701Z" fill="#F79B4C" stroke="#F79B4C" stroke-width="0.7"/>
<path d="M44.7358 3.93741L43.8594 4.44397L46.378 8.81117L47.2544 8.30461L44.7358 3.93741Z" fill="#F79B4C" stroke="#F79B4C" stroke-width="0.7"/>
<path d="M36.7072 12.3549L36.2012 13.2323L40.5636 15.7537L41.0696 14.8763L36.7072 12.3549Z" fill="#F79B4C" stroke="#F79B4C" stroke-width="0.7"/>
<path d="M38.9904 23.6614H33.9531V24.6745H38.9904V23.6614Z" fill="#F79B4C" stroke="#F79B4C" stroke-width="0.7"/>
<path d="M41.5812 32.309L37.2188 34.8304L37.7248 35.7078L42.0872 33.1864L41.5812 32.309Z" fill="#F79B4C" stroke="#F79B4C" stroke-width="0.7"/>
<path d="M48.1417 38.5041L45.623 42.8713L46.4995 43.3779L49.0181 39.0107L48.1417 38.5041Z" fill="#F79B4C" stroke="#F79B4C" stroke-width="0.7"/>
<path d="M57.93 40.5831H56.918V45.6259H57.93V40.5831Z" fill="#F79B4C" stroke="#F79B4C" stroke-width="0.7"/>
<path d="M66.437 37.4844L65.5605 37.991L68.0792 42.3582L68.9556 41.8516L66.437 37.4844Z" fill="#F79B4C" stroke="#F79B4C" stroke-width="0.7"/>
<path d="M72.2521 30.5405L71.7461 31.4178L76.1085 33.9393L76.6145 33.0619L72.2521 30.5405Z" fill="#F79B4C" stroke="#F79B4C" stroke-width="0.7"/>
<path d="M78.8615 21.62H73.8242V22.6331H78.8615V21.62Z" fill="#F79B4C" stroke="#F79B4C" stroke-width="0.7"/>
<path d="M75.0914 10.5907L70.7285 13.1113L71.2344 13.9888L75.5972 11.4682L75.0914 10.5907Z" fill="#F79B4C" stroke="#F79B4C" stroke-width="0.7"/>
<path d="M66.3069 2.91006L63.7891 7.27771L64.6656 7.78412L67.1834 3.41647L66.3069 2.91006Z" fill="#F79B4C" stroke="#F79B4C" stroke-width="0.7"/>
</svg>
