<svg width="111" height="108" viewBox="0 0 111 108" fill="none" xmlns="http://www.w3.org/2000/svg">
<path d="M25.7412 40.2874V40.347H46.478V40.2874H25.7412Z" fill="#F5821F"/>
<path d="M65.2347 50.0891V31.3244C66.4069 31.2243 67.5342 30.8274 68.5097 30.1711C69.4853 29.5148 70.2768 28.6208 70.8093 27.5739C71.3418 26.527 71.5978 25.3618 71.5529 24.1887C71.508 23.0155 71.1637 21.8731 70.5527 20.8698C69.9417 19.8665 69.0842 19.0354 68.0614 18.4553C67.0385 17.8751 65.8842 17.5651 64.7077 17.5545C63.5312 17.544 62.3715 17.8333 61.3384 18.395C60.3052 18.9568 59.4329 19.7724 58.8039 20.7646L42.443 11.3389C43.0519 10.2939 43.3718 9.10639 43.3702 7.89761C43.3702 6.06825 42.642 4.31382 41.3457 3.02026C40.0494 1.72671 38.2912 1 36.458 1C34.6247 1 32.8665 1.72671 31.5702 3.02026C30.2739 4.31382 29.5457 6.06825 29.5457 7.89761C29.5441 9.10639 29.8641 10.2939 30.4729 11.3389L13.5018 21.1168C12.7613 20.2619 11.8217 19.6017 10.7655 19.1943C9.70929 18.7869 8.56894 18.6448 7.44478 18.7805C6.32062 18.9162 5.24711 19.3255 4.31871 19.9724C3.3903 20.6193 2.63547 21.484 2.12061 22.4904C1.60576 23.4968 1.34668 24.6141 1.36616 25.7438C1.38564 26.8736 1.68309 27.9813 2.23233 28.9694C2.78158 29.9576 3.56578 30.7958 4.51594 31.4105C5.4661 32.0252 6.55308 32.3974 7.68125 32.4944V50.0682C6.5079 50.1074 5.36387 50.4441 4.35705 51.0466C3.35024 51.6492 2.51381 52.4977 1.92664 53.5122C1.33947 54.5267 1.0209 55.6736 1.00099 56.845C0.981085 58.0163 1.26049 59.1734 1.81284 60.2072C2.3652 61.241 3.17231 62.1173 4.15807 62.7536C5.14384 63.3898 6.27576 63.7651 7.44711 63.8439C8.61846 63.9228 9.79063 63.7026 10.8531 63.2042C11.9155 62.7058 12.8333 61.9455 13.5197 60.9951L21.8946 65.8214L6.27846 92.8089L14.3961 106.837H58.6095L66.6853 92.8865L51.0243 65.8184L59.1449 61.1384C59.8415 62.0522 60.7558 62.7779 61.8047 63.2498C62.8537 63.7216 64.0041 63.9245 65.1516 63.8402C66.299 63.7558 67.4072 63.3869 68.3756 62.7668C69.3439 62.1467 70.1417 61.2951 70.6967 60.2893C71.2516 59.2836 71.546 58.1554 71.5532 57.0073C71.5604 55.8592 71.2801 54.7274 70.7378 53.7148C70.1956 52.7022 69.4085 51.8407 68.448 51.2086C67.4875 50.5765 66.384 50.1937 65.2377 50.0951L65.2347 50.0891ZM59.3094 22.43C59.4522 22.0555 59.6347 21.6973 59.8538 21.3615C60.3778 20.5517 61.099 19.8877 61.95 19.4316C62.801 18.9755 63.754 18.7421 64.7199 18.7534C65.6858 18.7646 66.6331 19.0201 67.4732 19.4959C68.3133 19.9717 69.0188 20.6523 69.5236 21.4741C70.0285 22.2959 70.3164 23.232 70.3602 24.1949C70.4041 25.1579 70.2025 26.1162 69.7744 26.9803C69.3462 27.8444 68.7055 28.586 67.9121 29.1359C67.1187 29.6858 66.1986 30.0259 65.2377 30.1245C64.8401 30.1683 64.4388 30.1683 64.0412 30.1245C63.1726 30.0312 62.337 29.7404 61.5986 29.2744C60.8602 28.8085 60.2387 28.1799 59.7817 27.4368C59.3248 26.6938 59.0446 25.8561 58.9628 24.9882C58.8809 24.1202 58.9995 23.2451 59.3094 22.43ZM36.458 2.19387C37.9734 2.19545 39.4263 2.79689 40.4979 3.8662C41.5695 4.93552 42.1722 6.38537 42.1738 7.89761C42.1752 8.89664 41.911 9.87815 41.4081 10.742C41.2081 11.0912 40.9704 11.4175 40.6992 11.715C40.1638 12.3078 39.5096 12.7817 38.779 13.106C38.0484 13.4304 37.2576 13.598 36.458 13.598C35.6583 13.598 34.8675 13.4304 34.1369 13.106C33.4063 12.7817 32.7521 12.3078 32.2167 11.715C31.9455 11.4175 31.7078 11.0912 31.5078 10.742C31.0049 9.87815 30.7407 8.89664 30.7421 7.89761C30.7437 6.38537 31.3464 4.93552 32.418 3.8662C33.4896 2.79689 34.9425 2.19545 36.458 2.19387ZM2.5636 25.6236C2.56446 24.4821 2.90894 23.3671 3.55239 22.4232C4.19584 21.4793 5.10859 20.7501 6.17231 20.33C7.23604 19.9099 8.40169 19.8184 9.51818 20.0672C10.6347 20.3161 11.6505 20.8938 12.434 21.7256C12.7123 22.018 12.9571 22.3403 13.1638 22.6867C13.6175 23.4398 13.8905 24.2873 13.9617 25.1631C14.0328 26.0389 13.9001 26.9193 13.574 27.7355C13.2478 28.5516 12.7369 29.2815 12.0814 29.8681C11.4258 30.4547 10.6432 30.8822 9.79467 31.117C8.94617 31.3519 8.05474 31.3879 7.19 31.2222C6.32526 31.0565 5.51061 30.6935 4.80968 30.1617C4.10875 29.6298 3.5405 28.9435 3.14932 28.1563C2.75814 27.3691 2.55461 26.5023 2.55463 25.6236H2.5636ZM13.098 59.3745C12.9291 59.736 12.7215 60.0782 12.4789 60.3952C11.8981 61.1621 11.1325 61.77 10.2531 62.1624C9.37376 62.5548 8.40924 62.7189 7.44926 62.6396C6.48927 62.5602 5.56499 62.2399 4.76235 61.7084C3.9597 61.177 3.30476 60.4516 2.85842 59.5998C2.41208 58.748 2.18883 57.7974 2.20944 56.8364C2.23004 55.8753 2.49383 54.9351 2.97628 54.1031C3.45872 53.2712 4.14416 52.5744 4.96885 52.0777C5.79354 51.581 6.73071 51.3004 7.69322 51.2621H7.9325C8.25326 51.2616 8.57348 51.2886 8.88963 51.3427C10.2198 51.5699 11.4267 52.2588 12.2974 53.2876C13.1681 54.3165 13.6466 55.6192 13.6484 56.9658C13.6454 57.7994 13.4575 58.622 13.098 59.3745ZM65.2915 92.8865L57.9186 105.643H15.087L7.66032 92.8089L22.9295 66.4183L23.5277 65.3826L25.8757 61.016V60.437V40.2874H46.6125V60.4161C46.6308 60.5009 46.6448 60.5866 46.6544 60.6728L47.2077 61.6309L49.3792 65.3826L49.9774 66.4153L65.2915 92.8865ZM24.8498 39.0935C24.464 38.9941 24.1224 38.7695 23.8787 38.455C23.635 38.1405 23.5031 37.754 23.5038 37.3564V36.1864C23.5038 35.7115 23.6929 35.256 24.0294 34.9201C24.366 34.5843 24.8225 34.3956 25.2984 34.3956H47.7999C48.2759 34.3956 48.7324 34.5843 49.0689 34.9201C49.4055 35.256 49.5946 35.7115 49.5946 36.1864V37.3564C49.5946 37.8314 49.4055 38.2869 49.0689 38.6227C48.7324 38.9586 48.2759 39.1472 47.7999 39.1472H25.3044C25.1511 39.1494 24.9983 39.1314 24.8498 39.0935ZM50.4231 64.7857L47.8179 60.2818V40.3471C48.6112 40.3471 49.3719 40.0326 49.9329 39.4729C50.4938 38.9132 50.8089 38.154 50.8089 37.3624V36.1924C50.8089 35.4008 50.4938 34.6417 49.9329 34.0819C49.3719 33.5222 48.6112 33.2077 47.8179 33.2077H25.3044C24.5111 33.2077 23.7504 33.5222 23.1894 34.0819C22.6285 34.6417 22.3134 35.4008 22.3134 36.1924V37.3624C22.3125 38.051 22.5503 38.7187 22.9864 39.2523C23.4225 39.7859 24.0301 40.1527 24.7062 40.2904V60.9951L22.5108 64.7917L14.1449 59.9714C14.6229 58.9926 14.8618 57.9147 14.842 56.826C14.8222 55.7374 14.5443 54.6689 14.031 53.708C13.5178 52.7471 12.7837 51.9212 11.889 51.2979C10.9944 50.6746 9.96445 50.2716 8.88365 50.1219V32.4944C10.6049 32.3437 12.2072 31.5556 13.3752 30.2851C14.5433 29.0146 15.1924 27.3538 15.1947 25.6296C15.1977 24.3843 14.8584 23.162 14.2137 22.0957L31.1668 12.3269C31.8147 13.1005 32.6249 13.7228 33.5402 14.1498C34.4555 14.5769 35.4536 14.7982 36.4639 14.7982C37.4743 14.7982 38.4724 14.5769 39.3877 14.1498C40.303 13.7228 41.1131 13.1005 41.7611 12.3269L58.2566 21.8331C57.9098 22.6655 57.7319 23.5582 57.7332 24.4596C57.7355 26.1838 58.3846 27.8446 59.5526 29.1151C60.7207 30.3856 62.323 31.1738 64.0442 31.3244V50.0891C62.913 50.1877 61.8235 50.5629 60.8721 51.1816C59.9207 51.8002 59.1367 52.6432 58.5894 53.6361C58.0421 54.629 57.7483 55.7411 57.7341 56.8742C57.7199 58.0072 57.9856 59.1263 58.5078 60.1326L50.4231 64.7857ZM64.6365 62.6636C63.7855 62.6624 62.9457 62.4706 62.1791 62.1023C61.4124 61.7339 60.7383 61.1985 60.2067 60.5355C59.9522 60.2268 59.7334 59.8904 59.5547 59.5326C59.1482 58.7358 58.937 57.854 58.9385 56.9598C58.9402 55.5516 59.4633 54.1936 60.4074 53.1468C61.3515 52.1001 62.6499 51.4384 64.0532 51.2889C64.4508 51.2452 64.852 51.2452 65.2496 51.2889C66.7029 51.4452 68.0409 52.151 68.9887 53.2614C69.9365 54.3717 70.422 55.8022 70.3454 57.2588C70.2688 58.7153 69.6359 60.0873 68.5769 61.0925C67.5178 62.0978 66.1131 62.66 64.6514 62.6636H64.6365Z" fill="#F5821F" stroke="#F5821F" stroke-width="0.7"/>
<path d="M45.5775 67.5794L42.1348 61.6309L41.4439 60.437H31.4927L30.8018 61.6309L27.3561 67.6003L26.7579 68.633L13.7529 91.1136L19.9055 101.745H53.1059L59.2226 91.1703L46.1787 68.627L45.5775 67.5794ZM52.409 100.536H20.5844L15.1258 91.0987L27.7868 69.215L28.3851 68.1823L32.1747 61.616H40.7649L44.5516 68.1614L45.1498 69.1941L57.8467 91.1405L52.409 100.536Z" fill="#F5821F" stroke="#F5821F" stroke-width="0.7"/>
<path d="M44.4921 79.4226H28.4512V80.6165H44.4921V79.4226Z" fill="#F5821F" stroke="#F5821F" stroke-width="0.7"/>
<path d="M49.0116 85.7651H24.186V86.959H49.0116V85.7651Z" fill="#F5821F" stroke="#F5821F" stroke-width="0.7"/>
<path d="M52.5949 92.1077H20.5161V93.3015H52.5949V92.1077Z" fill="#F5821F" stroke="#F5821F" stroke-width="0.7"/>
<path d="M94.233 106.837H87.5834C87.4573 106.838 87.3323 106.813 87.2157 106.765C87.099 106.718 86.993 106.647 86.9039 106.558C86.8147 106.469 86.7441 106.363 86.6962 106.246C86.6483 106.129 86.624 106.004 86.6247 105.878V102.554C85.426 102.216 84.271 101.738 83.1836 101.13L80.8396 103.468C80.7503 103.558 80.6441 103.629 80.5271 103.678C80.4101 103.726 80.2846 103.751 80.158 103.751C79.9041 103.75 79.661 103.648 79.4819 103.468L74.7829 98.7643C74.6042 98.5847 74.5039 98.3417 74.5039 98.0884C74.5039 97.835 74.6042 97.592 74.7829 97.4124L77.1158 95.0798C76.5099 93.9898 76.032 92.8334 75.6917 91.6336H72.3669C72.1131 91.6322 71.8701 91.5307 71.6906 91.3513C71.5111 91.1718 71.4097 90.9289 71.4082 90.6751V84.0264C71.4097 83.7727 71.5111 83.5297 71.6906 83.3503C71.8701 83.1708 72.1131 83.0694 72.3669 83.0679H75.6917C76.0341 81.8689 76.5119 80.7127 77.1158 79.6217L74.7773 77.2836C74.5983 77.103 74.4979 76.8591 74.4979 76.6049C74.4979 76.3506 74.5983 76.1067 74.7773 75.9261L79.4764 71.2222C79.5655 71.1329 79.6713 71.0621 79.7877 71.0137C79.9042 70.9654 80.0291 70.9405 80.1552 70.9405C80.2813 70.9405 80.4062 70.9654 80.5227 71.0137C80.6392 71.0621 80.745 71.1329 80.834 71.2222L83.2113 73.5548C84.2958 72.9386 85.4514 72.4567 86.6525 72.1198V68.7954C86.6517 68.6694 86.676 68.5444 86.7239 68.4278C86.7718 68.3111 86.8424 68.2052 86.9316 68.116C87.0208 68.0269 87.1267 67.9563 87.2434 67.9084C87.36 67.8605 87.485 67.8362 87.6111 67.8369H94.2607C94.3868 67.8362 94.5118 67.8605 94.6284 67.9084C94.7451 67.9563 94.8511 68.0269 94.9402 68.116C95.0294 68.2052 95.1 68.3111 95.1479 68.4278C95.1958 68.5444 95.2201 68.6694 95.2194 68.7954V72.1198C96.4219 72.4577 97.5791 72.9395 98.6661 73.5548L101.005 71.2111C101.093 71.1215 101.198 71.0504 101.314 71.0019C101.43 70.9534 101.555 70.9284 101.681 70.9286C101.806 70.9284 101.931 70.9534 102.047 71.0019C102.163 71.0504 102.268 71.1215 102.357 71.2111L107.039 75.9151C107.218 76.0956 107.319 76.3396 107.319 76.5938C107.319 76.848 107.218 77.0919 107.039 77.2725L104.695 79.6217C105.305 80.7083 105.785 81.8632 106.125 83.0624H109.45C109.703 83.0638 109.946 83.1653 110.126 83.3447C110.305 83.5242 110.407 83.7671 110.408 84.0209V90.6696C110.407 90.9233 110.305 91.1663 110.126 91.3457C109.946 91.5252 109.703 91.6266 109.45 91.6281H106.125C105.788 92.8301 105.308 93.9871 104.695 95.0743L107.039 97.418C107.218 97.5976 107.318 97.8406 107.318 98.0939C107.318 98.3472 107.218 98.5902 107.039 98.7699L102.334 103.474C102.246 103.563 102.141 103.635 102.025 103.683C101.909 103.732 101.784 103.756 101.658 103.756C101.532 103.757 101.406 103.732 101.289 103.684C101.172 103.635 101.066 103.564 100.977 103.474L98.6384 101.136C97.549 101.743 96.3922 102.221 95.1917 102.56V105.884C95.1917 106.01 95.1668 106.134 95.1186 106.25C95.0703 106.366 94.9996 106.471 94.9105 106.56C94.8215 106.648 94.7157 106.718 94.5995 106.766C94.4832 106.814 94.3586 106.838 94.233 106.837ZM88.5476 104.92H93.2744V101.817C93.2751 101.6 93.3494 101.389 93.4852 101.219C93.621 101.049 93.8104 100.93 94.0224 100.881C95.53 100.534 96.9698 99.9408 98.2837 99.1244C98.467 99.0083 98.6844 98.9582 98.9001 98.9824C99.1157 99.0066 99.3166 99.1036 99.4696 99.2574L101.658 101.474L104.983 98.1493L102.794 95.9608C102.641 95.8064 102.544 95.6046 102.52 95.3884C102.496 95.1721 102.546 94.954 102.661 94.7696C103.485 93.4581 104.082 92.0179 104.429 90.5089C104.467 90.2858 104.584 90.0836 104.757 89.9385C104.931 89.7933 105.15 89.7147 105.377 89.7166H108.469V84.9794H105.377C105.16 84.98 104.949 84.9068 104.779 84.772C104.608 84.6371 104.489 84.4485 104.44 84.237C104.093 82.7264 103.495 81.2844 102.672 79.9707C102.557 79.7863 102.507 79.5682 102.531 79.352C102.555 79.1357 102.652 78.9339 102.805 78.7795L104.994 76.5965L101.669 73.2445L99.4807 75.4607C99.3262 75.6141 99.1245 75.7107 98.9082 75.7348C98.6918 75.759 98.4737 75.7093 98.2893 75.5937C96.9805 74.7689 95.5416 74.1713 94.0335 73.8263C93.821 73.7784 93.6311 73.6596 93.4951 73.4894C93.3591 73.3192 93.2852 73.1078 93.2854 72.8899V69.7706H88.5587V72.8678C88.5592 73.0848 88.4861 73.2957 88.3512 73.4658C88.2163 73.6359 88.0277 73.7552 87.8161 73.8041C86.306 74.1481 84.8651 74.7458 83.5548 75.5715C83.3712 75.6867 83.1541 75.7362 82.9387 75.712C82.7233 75.6879 82.5225 75.5915 82.369 75.4386L80.1524 73.2223L76.8276 76.5744L79.0165 78.7574C79.1699 78.9118 79.2665 79.1135 79.2906 79.3298C79.3148 79.5461 79.265 79.7642 79.1495 79.9486C78.3315 81.2641 77.7362 82.7056 77.3873 84.2148C77.3384 84.4263 77.2191 84.6149 77.049 84.7498C76.8788 84.8847 76.6679 84.9578 76.4508 84.9572H73.3588V89.6944H76.4508C76.6682 89.6928 76.8796 89.7656 77.0499 89.9006C77.2202 90.0357 77.3393 90.2249 77.3873 90.4369C77.7352 91.9447 78.3306 93.3844 79.1495 94.6975C79.2656 94.8808 79.3157 95.0982 79.2915 95.3138C79.2673 95.5294 79.1703 95.7302 79.0165 95.8832L76.8276 98.0994L80.1524 101.424L82.369 99.2076C82.5225 99.0546 82.7233 98.9582 82.9387 98.9341C83.1541 98.91 83.3712 98.9595 83.5548 99.0746C84.8677 99.8928 86.3079 100.486 87.8161 100.831C88.0272 100.881 88.2153 101 88.35 101.17C88.4847 101.34 88.5582 101.55 88.5587 101.767L88.5476 104.92Z" fill="#F5821F"/>
<path d="M90.8617 95.8537C89.1732 95.8589 87.521 95.3656 86.1144 94.4363C84.7079 93.5069 83.6102 92.1833 82.9603 90.633C82.3105 89.0827 82.1377 87.3754 82.4639 85.7274C82.7901 84.0793 83.6006 82.5646 84.7927 81.375C85.9848 80.1855 87.505 79.3745 89.1607 79.0449C90.8165 78.7153 92.5333 78.8818 94.0939 79.5234C95.6544 80.1649 96.9885 81.2527 97.9271 82.6489C98.8658 84.0452 99.3669 85.6871 99.3669 87.3668C99.3669 89.613 98.4717 91.7677 96.8774 93.3586C95.2831 94.9494 93.1199 95.8467 90.8617 95.8537ZM90.8617 80.7576C89.5432 80.7565 88.254 81.1445 87.1571 81.8724C86.0603 82.6003 85.2051 83.6355 84.6998 84.847C84.1945 86.0584 84.0617 87.3917 84.3183 88.6783C84.5749 89.9648 85.2093 91.1467 86.1413 92.0745C87.0733 93.0023 88.2609 93.6343 89.5541 93.8906C90.8472 94.1469 92.1877 94.0159 93.4059 93.5142C94.6242 93.0125 95.6655 92.1627 96.3982 91.0722C97.1308 89.9817 97.5219 88.6996 97.5219 87.388C97.5219 85.6304 96.8204 83.9447 95.5715 82.7015C94.3226 81.4582 92.6286 80.759 90.8617 80.7576Z" fill="#F5821F"/>
</svg>
