<svg width="181" height="190" viewBox="0 0 181 190" fill="none" xmlns="http://www.w3.org/2000/svg">
<path d="M178.504 41.3183L104.798 1.29113L104.262 1L30.0146 41.3183L28.8756 41.9462V89.1088L27.7936 91.2095C27.7446 91.317 27.6635 91.4065 27.5615 91.4658C27.4595 91.5252 27.3416 91.5513 27.2242 91.5405L19.3712 91.1752C18.9684 91.1548 18.5659 91.2192 18.1895 91.3642C17.8131 91.5093 17.4711 91.7317 17.1857 92.0173C16.9003 92.3028 16.6777 92.6452 16.5323 93.0222C16.387 93.3992 16.322 93.8026 16.3416 94.2064L16.6946 102.095C16.6992 102.212 16.6706 102.328 16.6121 102.429C16.5536 102.53 16.4677 102.612 16.3643 102.666L9.37693 106.285C9.0186 106.469 8.70277 106.727 8.44981 107.041C8.19685 107.355 8.01237 107.719 7.90828 108.109C7.80418 108.499 7.78278 108.906 7.84546 109.305C7.90813 109.704 8.05349 110.085 8.27215 110.424L12.509 117.057C12.5777 117.154 12.6146 117.269 12.6146 117.388C12.6146 117.507 12.5777 117.622 12.509 117.719L8.27215 124.358C8.0534 124.697 7.90797 125.079 7.84525 125.478C7.78252 125.877 7.80388 126.285 7.90795 126.676C8.01202 127.066 8.1965 127.43 8.4495 127.745C8.7025 128.059 9.01842 128.318 9.37693 128.502L16.3643 132.116C16.4673 132.17 16.5528 132.253 16.6112 132.354C16.6696 132.455 16.6985 132.57 16.6946 132.687L16.3245 140.558C16.3062 140.961 16.3716 141.364 16.5167 141.74C16.6618 142.117 16.8833 142.459 17.1673 142.745L17.2983 142.859L1 180.631L14.5876 170.499L17.435 188.349L31.5009 150.754C31.8869 151.379 32.499 151.831 33.2093 152.015C33.5985 152.119 34.005 152.141 34.4031 152.079C34.8011 152.017 35.1819 151.873 35.5214 151.655L42.1329 147.403C42.2311 147.338 42.3459 147.304 42.4632 147.304C42.5805 147.304 42.6953 147.338 42.7935 147.403L49.4165 151.655C49.8809 151.953 50.4201 152.111 50.9711 152.112C51.2266 152.111 51.4809 152.078 51.7285 152.015C52.1168 151.91 52.479 151.724 52.7918 151.471C53.1045 151.217 53.3611 150.901 53.5451 150.542L54.0178 149.623L68.4938 188.349L71.3867 170.499L84.9458 180.631L70.3958 146.889L103.129 165.932L104.268 166.594L105.407 165.932L179.666 122.731V41.9462L178.504 41.3183ZM176.187 42.6597L142.149 62.445L69.1544 22.6633L104.262 3.59731L176.187 42.6597ZM18.3233 179.501L16.2049 166.423L6.47832 173.69L19.4794 143.572L27.2071 143.213C27.3245 143.202 27.4424 143.228 27.5444 143.287C27.6464 143.347 27.7275 143.436 27.7766 143.544L30.0886 148.036L18.3233 179.501ZM51.5178 149.475C51.4783 149.551 51.4235 149.618 51.3569 149.671C51.2903 149.725 51.2132 149.763 51.1308 149.785C51.0483 149.808 50.9621 149.812 50.8778 149.799C50.7934 149.786 50.7127 149.755 50.6408 149.709L44.0293 145.479C43.5612 145.181 43.018 145.022 42.4632 145.022C41.9121 145.022 41.3724 145.181 40.9086 145.479L34.2856 149.732C34.2135 149.777 34.1328 149.807 34.0487 149.82C33.9645 149.832 33.8786 149.828 33.7964 149.806C33.7141 149.784 33.6373 149.745 33.5706 149.692C33.5039 149.639 33.4487 149.573 33.4086 149.498L32.5772 147.888L32.8278 147.22L32.0932 146.946L29.8153 142.494C29.5589 142.002 29.1697 141.594 28.6923 141.314C28.2149 141.034 27.6686 140.895 27.116 140.912L19.263 141.278C19.1778 141.285 19.092 141.273 19.0122 141.242C18.9323 141.211 18.8604 141.163 18.8017 141.101C18.7404 141.041 18.6924 140.969 18.661 140.889C18.6296 140.809 18.6154 140.724 18.6195 140.638L18.9896 132.766C19.0104 132.215 18.8756 131.669 18.6005 131.192C18.3255 130.714 17.9214 130.324 17.435 130.066L10.4475 126.447C10.3705 126.41 10.3028 126.356 10.2496 126.288C10.1963 126.221 10.1589 126.143 10.14 126.059C10.117 125.977 10.1117 125.89 10.1245 125.806C10.1372 125.721 10.1678 125.64 10.2141 125.568L14.4566 118.935C14.7604 118.47 14.9222 117.927 14.9222 117.371C14.9222 116.815 14.7604 116.272 14.4566 115.807L10.2141 109.174C10.1689 109.101 10.139 109.021 10.1263 108.936C10.1136 108.852 10.1184 108.766 10.1403 108.683C10.1622 108.601 10.2007 108.524 10.2536 108.457C10.3065 108.39 10.3725 108.335 10.4475 108.295L17.435 104.681C17.9254 104.424 18.3329 104.033 18.6102 103.553C18.8874 103.073 19.0229 102.524 19.001 101.97L18.6024 94.1036C18.5983 94.0178 18.6122 93.9321 18.6431 93.852C18.674 93.7719 18.7212 93.6992 18.7818 93.6384C18.8424 93.5777 18.915 93.5303 18.9949 93.4994C19.0748 93.4684 19.1603 93.4545 19.2459 93.4586L27.0989 93.8239C27.724 93.8567 28.3424 93.6822 28.8585 93.3273C29.2532 93.0511 29.5771 92.6854 29.8039 92.2598L31.1364 89.6682L33.4143 85.2613C33.4535 85.1838 33.5088 85.1156 33.5766 85.0614C33.6445 85.0073 33.7231 84.9684 33.8073 84.9474C33.8884 84.9229 33.9739 84.9168 34.0576 84.9297C34.1414 84.9425 34.2212 84.9739 34.2913 85.0216L40.9143 89.2743C41.38 89.5734 41.9215 89.7323 42.4746 89.7323C43.0277 89.7323 43.5692 89.5734 44.035 89.2743L50.6465 85.0216C50.7193 84.9751 50.801 84.9444 50.8864 84.9316C50.9717 84.9188 51.0588 84.9242 51.142 84.9474C51.2235 84.9711 51.2993 85.0111 51.3649 85.0651C51.4305 85.1191 51.4845 85.1858 51.5235 85.2613L55.1397 92.2598C55.394 92.7526 55.7841 93.1619 56.2635 93.4391C56.743 93.7164 57.2918 93.8499 57.8447 93.8239L65.6863 93.4586C65.7725 93.4517 65.8592 93.4637 65.9404 93.4936C66.0216 93.5236 66.0954 93.5709 66.1565 93.6322C66.2177 93.6936 66.2649 93.7675 66.2948 93.8489C66.3247 93.9302 66.3366 94.0172 66.3298 94.1036L65.971 101.97C65.9445 102.523 66.0769 103.073 66.3524 103.554C66.628 104.034 67.0351 104.425 67.5257 104.681L74.5131 108.3C74.5902 108.338 74.6578 108.392 74.7111 108.459C74.7643 108.526 74.8018 108.605 74.8206 108.689C74.8434 108.771 74.8491 108.857 74.8373 108.941C74.8256 109.026 74.7966 109.107 74.7523 109.179L70.4983 115.795C70.2026 116.263 70.0457 116.806 70.0457 117.36C70.0457 117.913 70.2026 118.456 70.4983 118.924L74.7466 125.557C74.7909 125.63 74.8199 125.711 74.8316 125.795C74.8434 125.88 74.8377 125.966 74.8149 126.048C74.7961 126.131 74.7586 126.21 74.7054 126.277C74.6521 126.344 74.5845 126.399 74.5074 126.436L67.5485 130.066C67.0579 130.322 66.6507 130.713 66.3752 131.194C66.0997 131.675 65.9673 132.224 65.9938 132.778L66.3526 140.65C66.3583 140.82 66.297 140.986 66.1817 141.112C66.1218 141.176 66.048 141.225 65.966 141.256C65.884 141.287 65.7961 141.298 65.7091 141.289H65.3047L60.3674 141.055L57.8674 140.912C57.3143 140.889 56.766 141.024 56.2868 141.302C55.8077 141.58 55.4176 141.99 55.1624 142.482L51.5178 149.475ZM79.4675 173.667L69.7352 166.4L67.6168 179.478L55.4301 146.866L57.1385 143.521C57.1924 143.417 57.2745 143.331 57.3753 143.273C57.4762 143.214 57.5915 143.185 57.708 143.19L64.5929 143.51L67.0473 144.937L79.4675 173.667ZM103.123 163.266L68.8696 143.344L67.7762 142.705C67.9827 142.491 68.1572 142.249 68.2945 141.985C68.524 141.534 68.6319 141.03 68.6077 140.524L68.2489 132.652C68.245 132.536 68.2739 132.42 68.3323 132.319C68.3907 132.218 68.4763 132.136 68.5792 132.081L75.5552 128.468C75.9076 128.282 76.2179 128.024 76.4667 127.712C76.7155 127.4 76.8974 127.04 77.0011 126.654C77.1047 126.269 77.128 125.866 77.0693 125.471C77.0106 125.075 76.8713 124.697 76.66 124.358L72.4231 117.725C72.3589 117.626 72.3247 117.511 72.3247 117.394C72.3247 117.276 72.3589 117.161 72.4231 117.063L76.66 110.412C76.8772 110.072 77.0213 109.691 77.083 109.292C77.1448 108.893 77.1229 108.485 77.0188 108.095C76.9169 107.705 76.7338 107.341 76.4816 107.027C76.2293 106.713 75.9136 106.457 75.5552 106.274L68.5735 102.666C68.4701 102.612 68.3842 102.53 68.3257 102.429C68.2673 102.328 68.2386 102.212 68.2432 102.095L68.602 94.2235C68.6215 93.8208 68.5568 93.4184 68.4121 93.0422C68.2673 92.666 68.0458 92.3242 67.7616 92.0388C67.4775 91.7534 67.137 91.5307 66.7619 91.3849C66.3869 91.2392 65.9856 91.1736 65.5838 91.1923L57.7308 91.5577C57.6141 91.5637 57.4981 91.5356 57.397 91.4768C57.296 91.418 57.2141 91.3311 57.1613 91.2266L53.5565 84.2281C53.3715 83.8702 53.114 83.5549 52.8005 83.3024C52.487 83.0498 52.1245 82.8655 51.7359 82.7613C51.3474 82.6571 50.9415 82.6352 50.5441 82.6971C50.1467 82.759 49.7665 82.9033 49.4279 83.1207L42.8049 87.3734C42.7057 87.4351 42.5913 87.4678 42.4746 87.4678C42.3579 87.4678 42.2435 87.4351 42.1443 87.3734L35.5328 83.1207C35.1932 82.9031 34.8122 82.7587 34.4139 82.6967C34.0157 82.6347 33.6089 82.6565 33.2195 82.7606C32.8301 82.8648 32.4666 83.0491 32.152 83.3017C31.8375 83.5544 31.5789 83.8698 31.3927 84.2281L31.1478 84.7019V44.6063L103.135 86.4829L103.123 163.266ZM104.262 84.4907L32.3323 42.6483L66.7683 23.9477L139.871 63.7864L104.262 84.4907ZM177.382 121.407L105.401 163.289V86.4829L177.382 44.6063V121.407Z" fill="#F5821F" stroke="#F5821F" stroke-width="0.7"/>
<path d="M62.9412 117.377C62.9421 113.664 61.9381 110.021 60.0363 106.836C58.1345 103.651 55.406 101.042 52.1418 99.2887C48.8776 97.5352 45.1999 96.7023 41.5007 96.8789C37.8015 97.0556 34.2194 98.235 31.1362 100.291C30.3357 100.824 29.5745 101.414 28.8583 102.055C25.169 105.349 22.7926 109.868 22.1675 114.781C21.5424 119.693 22.7108 124.666 25.4572 128.782C28.2036 132.898 32.3425 135.88 37.1102 137.177C41.8779 138.473 46.9527 137.998 51.398 135.838C52.1834 135.451 52.9442 135.017 53.6759 134.536C56.5178 132.669 58.8524 130.124 60.4697 127.129C62.087 124.134 62.9363 120.782 62.9412 117.377ZM51.4435 133.235C50.6444 133.693 49.8103 134.089 48.9492 134.416C46.8791 135.212 44.6802 135.619 42.463 135.615C38.9578 135.615 35.5272 134.6 32.5841 132.691C29.641 130.783 27.3106 128.063 25.8733 124.858C24.4361 121.654 23.9532 118.101 24.4827 114.628C25.0123 111.155 26.5317 107.909 28.8583 105.281C29.5523 104.493 30.3146 103.769 31.1362 103.117C33.098 101.548 35.3624 100.404 37.787 99.7548C40.2116 99.1059 42.744 98.967 45.2248 99.3467C47.7055 99.7265 50.0811 100.617 52.2019 101.961C54.3228 103.306 56.1432 105.076 57.5484 107.16C58.9537 109.245 59.9136 111.598 60.3676 114.072C60.8216 116.546 60.76 119.087 60.1866 121.536C59.6132 123.985 58.5404 126.289 57.0357 128.302C55.5311 130.315 53.6271 131.995 51.4435 133.235Z" fill="#F5821F" stroke="#F5821F" stroke-width="0.7"/>
<path d="M38.5565 122.508L32.6625 114.939L31.1363 116.126L30.8687 116.338L31.1363 116.692L37.8447 125.317L37.8618 125.323L38.2775 125.871L38.4825 125.688L53.938 111.406L52.389 109.727L38.5565 122.508Z" fill="#F5821F" stroke="#F5821F" stroke-width="0.7"/>
</svg>
