<svg width="72" height="107" viewBox="0 0 72 107" fill="none" xmlns="http://www.w3.org/2000/svg">
<path d="M25.4121 39.8689V39.9286H46.1489V39.8689H25.4121Z" fill="#F79B4C"/>
<path d="M64.9065 49.6706V30.9059C66.0788 30.8059 67.2061 30.4089 68.1816 29.7526C69.1571 29.0963 69.9486 28.2024 70.4812 27.1555C71.0137 26.1086 71.2697 24.9434 71.2248 23.7702C71.1799 22.597 70.8356 21.4547 70.2246 20.4514C69.6136 19.4481 68.7561 18.617 67.7332 18.0368C66.7104 17.4567 65.5561 17.1466 64.3796 17.1361C63.2031 17.1256 62.0434 17.4148 61.0102 17.9766C59.9771 18.5383 59.1048 19.3539 58.4758 20.3461L42.1149 10.9205C42.7237 9.87548 43.0437 8.68793 43.0421 7.47915C43.0421 5.64979 42.3138 3.89536 41.0175 2.60181C39.7212 1.30825 37.9631 0.581543 36.1298 0.581543C34.2966 0.581543 32.5384 1.30825 31.2421 2.60181C29.9458 3.89536 29.2176 5.64979 29.2176 7.47915C29.216 8.68793 29.5359 9.87548 30.1448 10.9205L13.1737 20.6983C12.4332 19.8434 11.4936 19.1832 10.4374 18.7758C9.38116 18.3685 8.24082 18.2263 7.11666 18.362C5.9925 18.4977 4.91899 18.907 3.99058 19.5539C3.06218 20.2009 2.30734 21.0656 1.79249 22.072C1.27764 23.0784 1.01855 24.1956 1.03804 25.3254C1.05752 26.4552 1.35497 27.5629 1.90421 28.551C2.45345 29.5391 3.23766 30.3774 4.18781 30.992C5.13797 31.6067 6.22496 31.9789 7.35313 32.0759V49.6498C6.17977 49.6889 5.03575 50.0256 4.02893 50.6282C3.02211 51.2307 2.18568 52.0793 1.59851 53.0937C1.01134 54.1082 0.692778 55.2552 0.672869 56.4265C0.65296 57.5979 0.932361 58.755 1.48472 59.7887C2.03708 60.8225 2.84419 61.6988 3.82995 62.3351C4.81571 62.9714 5.94764 63.3466 7.11898 63.4255C8.29033 63.5043 9.4625 63.2841 10.525 62.7857C11.5874 62.2873 12.5052 61.5271 13.1916 60.5767L21.5665 65.4029L5.95033 92.3904L14.068 106.418H58.2814L66.3572 92.468L50.6961 65.3999L58.8168 60.7199C59.5134 61.6337 60.4277 62.3595 61.4766 62.8313C62.5255 63.3031 63.676 63.5061 64.8234 63.4217C65.9709 63.3374 67.0791 62.9684 68.0474 62.3484C69.0158 61.7283 69.8136 60.8767 70.3685 59.8709C70.9234 58.8651 71.2178 57.7369 71.225 56.5888C71.2322 55.4407 70.952 54.309 70.4097 53.2963C69.8675 52.2837 69.0804 51.4222 68.1199 50.7901C67.1593 50.158 66.0559 49.7753 64.9095 49.6766L64.9065 49.6706ZM58.9813 22.0116C59.1241 21.6371 59.3066 21.2788 59.5257 20.9431C60.0496 20.1332 60.7708 19.4692 61.6218 19.0131C62.4728 18.557 63.4258 18.3236 64.3918 18.3349C65.3577 18.3461 66.305 18.6016 67.1451 19.0774C67.9852 19.5532 68.6906 20.2339 69.1955 21.0556C69.7004 21.8774 69.9882 22.8135 70.0321 23.7765C70.0759 24.7394 69.8744 25.6977 69.4462 26.5618C69.0181 27.4259 68.3774 28.1676 67.584 28.7175C66.7906 29.2673 65.8704 29.6075 64.9095 29.7061C64.5119 29.7499 64.1107 29.7499 63.7131 29.7061C62.8445 29.6127 62.0089 29.3219 61.2705 28.856C60.5321 28.39 59.9106 27.7614 59.4536 27.0184C58.9967 26.2753 58.7165 25.4377 58.6346 24.5697C58.5528 23.7018 58.6714 22.8266 58.9813 22.0116ZM36.1298 1.77542C37.6453 1.777 39.0982 2.37843 40.1698 3.44775C41.2414 4.51706 41.8441 5.96691 41.8457 7.47915C41.8471 8.47818 41.5829 9.4597 41.08 10.3236C40.88 10.6727 40.6423 10.999 40.3711 11.2966C39.8357 11.8893 39.1815 12.3632 38.4509 12.6876C37.7203 13.012 36.9295 13.1796 36.1298 13.1796C35.3302 13.1796 34.5394 13.012 33.8088 12.6876C33.0781 12.3632 32.4239 11.8893 31.8886 11.2966C31.6174 10.999 31.3797 10.6727 31.1797 10.3236C30.6768 9.4597 30.4126 8.47818 30.414 7.47915C30.4156 5.96691 31.0183 4.51706 32.0899 3.44775C33.1614 2.37843 34.6144 1.777 36.1298 1.77542ZM2.23547 25.2052C2.23634 24.0636 2.58082 22.9486 3.22427 22.0047C3.86772 21.0609 4.78046 20.3316 5.84419 19.9115C6.90791 19.4914 8.07357 19.3999 9.19005 19.6488C10.3065 19.8976 11.3224 20.4754 12.1059 21.3072C12.3842 21.5995 12.6289 21.9219 12.8357 22.2683C13.2893 23.0213 13.5624 23.8689 13.6336 24.7447C13.7047 25.6205 13.572 26.5009 13.2458 27.317C12.9197 28.1332 12.4088 28.8631 11.7532 29.4497C11.0976 30.0363 10.315 30.4637 9.46654 30.6986C8.61804 30.9335 7.72662 30.9695 6.86188 30.8037C5.99714 30.638 5.18249 30.2751 4.48155 29.7432C3.78062 29.2114 3.21238 28.5251 2.82119 27.7379C2.43001 26.9507 2.22648 26.0839 2.2265 25.2052H2.23547ZM12.7699 58.956C12.601 59.3175 12.3934 59.6598 12.1507 59.9768C11.57 60.7437 10.8043 61.3516 9.92499 61.744C9.04563 62.1363 8.08112 62.3005 7.12113 62.2211C6.16115 62.1417 5.23687 61.8214 4.43422 61.29C3.63158 60.7585 2.97663 60.0331 2.53029 59.1813C2.08395 58.3295 1.86071 57.3789 1.88131 56.4179C1.90192 55.4569 2.16571 54.5167 2.64815 53.6847C3.1306 52.8527 3.81603 52.156 4.64072 51.6592C5.46541 51.1625 6.40258 50.882 7.36509 50.8436H7.60437C7.92514 50.8431 8.24535 50.8701 8.5615 50.9242C9.89165 51.1515 11.0986 51.8403 11.9693 52.8692C12.84 53.898 13.3184 55.2007 13.3202 56.5474C13.3173 57.3809 13.1293 58.2035 12.7699 58.956ZM64.9634 92.468L57.5905 105.225H14.7589L7.33219 92.3904L22.6014 65.9999L23.1996 64.9642L25.5476 60.5976V60.0185V39.8689H46.2844V59.9976C46.3027 60.0824 46.3167 60.1681 46.3263 60.2543L46.8796 61.2124L49.0511 64.9642L49.6493 65.9969L64.9634 92.468ZM24.5216 38.6751C24.1359 38.5757 23.7943 38.351 23.5506 38.0365C23.3069 37.722 23.175 37.3355 23.1757 36.938V35.768C23.1757 35.293 23.3648 34.8375 23.7013 34.5017C24.0379 34.1659 24.4943 33.9772 24.9703 33.9772H47.4718C47.9478 33.9772 48.4043 34.1659 48.7408 34.5017C49.0774 34.8375 49.2664 35.293 49.2664 35.768V36.938C49.2664 37.4129 49.0774 37.8684 48.7408 38.2043C48.4043 38.5401 47.9478 38.7288 47.4718 38.7288H24.9763C24.823 38.731 24.6702 38.7129 24.5216 38.6751ZM50.095 64.3672L47.4898 59.8633V39.9286C48.283 39.9286 49.0438 39.6142 49.6047 39.0544C50.1657 38.4947 50.4808 37.7355 50.4808 36.944V35.774C50.4808 34.9824 50.1657 34.2232 49.6047 33.6635C49.0438 33.1037 48.283 32.7893 47.4898 32.7893H24.9763C24.183 32.7893 23.4222 33.1037 22.8613 33.6635C22.3004 34.2232 21.9852 34.9824 21.9852 35.774V36.944C21.9844 37.6325 22.2222 38.3002 22.6583 38.8338C23.0944 39.3675 23.702 39.7342 24.3781 39.8719V60.5767L22.1827 64.3732L13.8167 59.5529C14.2947 58.5741 14.5336 57.4963 14.5138 56.4076C14.494 55.3189 14.2161 54.2504 13.7029 53.2895C13.1896 52.3287 12.4556 51.5028 11.5609 50.8795C10.6662 50.2562 9.63632 49.8532 8.55552 49.7035V32.0759C10.2767 31.9253 11.8791 31.1371 13.0471 29.8666C14.2151 28.5961 14.8642 26.9353 14.8666 25.2112C14.8696 23.9658 14.5303 22.7435 13.8855 21.6773L30.8387 11.9084C31.4866 12.6821 32.2968 13.3044 33.2121 13.7314C34.1274 14.1584 35.1254 14.3797 36.1358 14.3797C37.1462 14.3797 38.1443 14.1584 39.0595 13.7314C39.9748 13.3044 40.785 12.6821 41.4329 11.9084L57.9285 21.4146C57.5817 22.247 57.4038 23.1397 57.405 24.0412C57.4074 25.7653 58.0565 27.4261 59.2245 28.6966C60.3925 29.9671 61.9949 30.7553 63.7161 30.9059V49.6706C62.5848 49.7693 61.4954 50.1445 60.544 50.7631C59.5926 51.3818 58.8086 52.2248 58.2612 53.2176C57.7139 54.2105 57.4202 55.3226 57.406 56.4557C57.3917 57.5888 57.6575 58.7079 58.1797 59.7141L50.095 64.3672ZM64.3083 62.2451C63.4574 62.244 62.6176 62.0521 61.8509 61.6838C61.0842 61.3155 60.4102 60.7801 59.8786 60.117C59.624 59.8084 59.4053 59.4719 59.2266 59.1142C58.8201 58.3173 58.6089 57.4356 58.6104 56.5414C58.612 55.1331 59.1352 53.7751 60.0792 52.7284C61.0233 51.6816 62.3218 51.0199 63.7251 50.8705C64.1227 50.8267 64.5239 50.8267 64.9215 50.8705C66.3747 51.0267 67.7128 51.7326 68.6606 52.8429C69.6084 53.9533 70.0939 55.3838 70.0173 56.8403C69.9407 58.2969 69.3078 59.6688 68.2487 60.6741C67.1897 61.6793 65.7849 62.2415 64.3233 62.2451H64.3083Z" fill="#F79B4C" stroke="#F79B4C" stroke-width="0.7"/>
<path d="M45.2503 67.1608L41.8077 61.2123L41.1167 60.0184H31.1656L30.4747 61.2123L27.029 67.1817L26.4308 68.2144L13.4258 90.695L19.5783 101.326H52.7788L58.8954 90.7517L45.8515 68.2084L45.2503 67.1608ZM52.0819 100.118H20.2573L14.7987 90.6801L27.4597 68.7964L28.0579 67.7637L31.8475 61.1974H40.4378L44.2244 67.7428L44.8226 68.7755L57.5196 90.7219L52.0819 100.118Z" fill="#F79B4C" stroke="#F79B4C" stroke-width="0.7"/>
<path d="M44.1639 79.0042H28.123V80.198H44.1639V79.0042Z" fill="#F79B4C" stroke="#F79B4C" stroke-width="0.7"/>
<path d="M48.683 85.3466H23.8574V86.5404H48.683V85.3466Z" fill="#F79B4C" stroke="#F79B4C" stroke-width="0.7"/>
<path d="M52.2683 91.6891H20.1895V92.883H52.2683V91.6891Z" fill="#F79B4C" stroke="#F79B4C" stroke-width="0.7"/>
</svg>
