<svg width="77" height="106" viewBox="0 0 77 106" fill="none" xmlns="http://www.w3.org/2000/svg">
<path d="M49.4611 32.1259V20.8505H45.0407V12.5212C47.2581 14.1528 52.937 18.0531 56.4899 18.0531C60.1998 18.0531 62.4828 14.8385 62.5341 11.7268C62.5508 10.9131 62.406 10.1041 62.1082 9.34679C61.8103 8.58948 61.3654 7.89887 60.7991 7.31497C59.5548 6.04342 57.8083 5.37193 55.7479 5.37193C52.0609 5.37193 47.084 8.71796 45.0407 10.2295V0.74292H31.0117V10.761H26.0918V11.904H31.0117V20.842H26.6055V32.4831C19.2164 35.0032 12.7993 39.7739 8.25265 46.1274C3.70604 52.4809 1.25756 60.0989 1.25001 67.915C1.23574 88.5369 17.9958 105.324 38.5912 105.324C47.5472 105.325 56.2054 102.104 62.9882 96.2488C69.7711 90.3931 74.2272 82.2923 75.5445 73.4224C76.8619 64.5525 74.9528 55.5039 70.1651 47.9254C65.3774 40.3469 58.0298 34.7429 49.4611 32.1345V32.1259ZM55.7394 6.52061C57.4859 6.52061 58.9498 7.07209 59.9743 8.12076C60.4346 8.59479 60.7962 9.15564 61.0382 9.77075C61.2802 10.3859 61.3978 11.043 61.3841 11.704C61.3327 14.2756 59.4835 16.9102 56.4814 16.9102C53.1311 16.9102 47.2723 12.7612 45.4031 11.3725C47.1296 10.0924 52.2378 6.52061 55.7479 6.52061H55.7394ZM32.1532 1.88589H43.8992V10.761H32.1532V1.88589ZM32.1532 11.904H43.8992V20.842H32.1532V11.904ZM27.747 21.9935H48.3339V31.7973C41.5759 29.9784 34.4442 30.0913 27.747 32.123V21.9935ZM38.5912 104.181C30.0382 104.186 21.7598 101.158 15.2225 95.636C8.68532 90.1136 4.31136 82.4525 2.87561 74.01C1.43985 65.5675 3.03498 56.8887 7.3784 49.5111C11.7218 42.1335 18.5331 36.5335 26.6055 33.7032C27.5187 33.3774 28.4481 33.0917 29.3936 32.846C35.4329 31.261 41.7781 31.261 47.8174 32.846C48.3881 32.9917 48.9275 33.1546 49.4754 33.326C57.734 35.9229 64.7904 41.396 69.3661 48.7536C73.9418 56.1111 75.734 64.8664 74.4181 73.4331C73.1021 81.9998 68.7651 89.8111 62.1927 95.4518C55.6204 101.092 47.2475 104.189 38.5912 104.181Z" fill="#F79B4C" stroke="#F79B4C" stroke-width="0.568301"/>
<path d="M38.5916 41.1954C33.3136 41.1954 28.1542 42.7626 23.7657 45.6987C19.3773 48.6348 15.957 52.808 13.9373 57.6906C11.9176 62.5731 11.3893 67.9457 12.4192 73.1289C13.4491 78.3121 15.9909 83.0731 19.7232 86.8098C23.4555 90.5465 28.2107 93.091 33.3873 94.1217C38.5639 95.1524 43.9296 94.6228 48.8056 92.6C53.6817 90.5773 57.8492 87.1521 60.7811 82.7577C63.7129 78.3633 65.2775 73.197 65.277 67.9122C65.2694 60.8283 62.4554 54.0368 57.4525 49.0279C52.4496 44.0191 45.6664 41.2022 38.5916 41.1954ZM38.5916 93.4861C33.5395 93.4861 28.6009 91.986 24.4002 89.1756C20.1995 86.3652 16.9255 82.3707 14.9922 77.6972C13.0588 73.0236 12.553 67.881 13.5386 62.9196C14.5242 57.9582 16.957 53.4009 20.5294 49.8239C24.1018 46.247 28.6532 43.811 33.6083 42.8241C38.5633 41.8373 43.6993 42.3438 48.3668 44.2796C53.0344 46.2154 57.0238 49.4937 59.8306 53.6997C62.6373 57.9058 64.1355 62.8508 64.1355 67.9094C64.1294 74.6912 61.4364 81.1935 56.6474 85.9892C51.8583 90.7849 45.3647 93.4821 38.5916 93.4889V93.4861Z" fill="#F79B4C" stroke="#F79B4C" stroke-width="0.568301"/>
<path d="M59.0352 68.0094C56.9548 64.4691 53.8984 62.1031 50.5481 61.4059C52.034 59.2873 52.9724 56.833 53.2792 54.2624L53.3562 53.5566L52.6513 53.6309C50.0702 53.9394 47.6059 54.8849 45.4799 56.3826C44.7893 53.0051 42.4093 49.9249 38.8506 47.8447L38.5653 47.6732L38.2799 47.8447C34.7498 49.9277 32.3841 52.988 31.6849 56.3398C29.5677 54.8548 27.117 53.9165 24.5505 53.6081L23.8457 53.5309L23.9227 54.2367C24.2312 56.8206 25.1744 59.2877 26.668 61.4174C23.2949 62.1089 20.2186 64.492 18.141 68.0551L17.9727 68.3409L18.141 68.6266C20.2214 72.1612 23.2778 74.53 26.6252 75.2273C25.1432 77.3474 24.2071 79.8013 23.8999 82.3708L23.8228 83.0766L24.5277 82.9994C27.1089 82.6931 29.5735 81.7484 31.6992 80.2506C32.3869 83.628 34.7698 86.7083 38.3256 88.7885L38.6109 88.9571L38.8963 88.7885C42.4264 86.7055 44.7921 83.6452 45.4885 80.2934C47.6061 81.7775 50.0566 82.7158 52.6228 83.0251L53.3277 83.0994L53.2535 82.3965C52.9482 79.8109 52.0047 77.3422 50.5082 75.213C53.8813 74.5243 56.9548 72.1412 59.0352 68.578L59.2035 68.2923L59.0352 68.0094ZM45.6625 57.7027C47.5391 56.2739 49.7249 55.3069 52.0435 54.8796C51.6187 57.1834 50.6598 59.3551 49.244 61.2202C47.8388 61.111 46.4265 61.3059 45.1032 61.7917C45.5747 60.4832 45.7653 59.0899 45.6625 57.7027ZM32.6808 57.277C32.6808 57.2198 32.6951 57.1655 32.7037 57.1084C33.166 53.9652 35.292 51.0364 38.5653 49.0162C41.8642 51.0364 43.9874 53.9795 44.4525 57.1541C44.4525 57.1913 44.4525 57.2255 44.4697 57.2627C44.5298 57.7086 44.5546 58.1587 44.5439 58.6085C44.5132 59.9668 44.1725 61.3 43.5479 62.506C42.9875 63.5813 42.2646 64.5635 41.4047 65.4177C41.1577 65.1763 40.8805 64.9678 40.58 64.7977C40.4436 64.7187 40.3026 64.6481 40.1577 64.5862C39.8009 64.4391 39.4253 64.3429 39.0418 64.3005C38.8922 64.2833 38.7416 64.2747 38.591 64.2748C38.4431 64.2747 38.2954 64.2833 38.1486 64.3005C37.7659 64.3418 37.391 64.438 37.0357 64.5862C36.8841 64.6509 36.7364 64.7244 36.5933 64.8063C36.2937 64.9775 36.0174 65.1869 35.7715 65.4292C34.9115 64.5764 34.1878 63.5963 33.6254 62.5232C32.9797 61.2991 32.628 59.9411 32.5981 58.5571C32.5945 58.1289 32.6221 57.7011 32.6808 57.277ZM35.6887 68.298C35.6915 67.9106 35.772 67.5278 35.9256 67.1722L35.9398 67.1408C36.0707 66.8477 36.2491 66.5783 36.4678 66.3435L36.5391 66.2693L36.6047 66.2064C36.8383 65.9861 37.1063 65.8056 37.3981 65.6721L37.4437 65.6521C37.7981 65.4995 38.1795 65.4198 38.5653 65.4177H38.6223C38.9936 65.4209 39.3608 65.4956 39.7039 65.6378L39.7439 65.6549L39.7781 65.6692C40.0701 65.8 40.3382 65.9786 40.5715 66.1978L40.6457 66.2693L40.7113 66.3378C40.9279 66.5721 41.1061 66.8392 41.2392 67.1293C41.2471 67.144 41.2538 67.1593 41.2592 67.1751C41.4128 67.5306 41.4933 67.9135 41.4961 68.3009V68.358C41.4929 68.7447 41.4113 69.1268 41.2563 69.481C41.2579 69.4914 41.2579 69.502 41.2563 69.5124C41.1269 69.8048 40.9494 70.0733 40.7313 70.3068L40.6599 70.3811L40.5914 70.4468C40.359 70.6678 40.0908 70.8475 39.7981 70.9783L39.7553 70.9954C39.4006 71.1504 39.0179 71.2312 38.6309 71.2326H38.5767C38.1906 71.2309 37.809 71.1501 37.4552 70.9954L37.4209 70.9811C37.1287 70.8507 36.8606 70.672 36.6276 70.4525L36.5534 70.3811L36.4906 70.3125C36.269 70.0816 36.0894 69.8137 35.9598 69.521C35.952 69.5073 35.9453 69.4929 35.9398 69.4781C35.786 69.1227 35.7054 68.7397 35.703 68.3523L35.6887 68.298ZM25.1641 54.8682C27.464 55.2937 29.632 56.2538 31.4937 57.6713C31.3847 59.0783 31.5793 60.4924 32.0644 61.8174C30.7585 61.3414 29.367 61.1467 27.9807 61.2459C26.558 59.3664 25.5979 57.1774 25.1784 54.8568L25.1641 54.8682ZM19.3054 68.3637C21.3258 65.0606 24.268 62.9347 27.4357 62.4689C27.4699 62.4689 27.507 62.4689 27.5413 62.4518C27.9866 62.3916 28.4361 62.3667 28.8854 62.3775C30.2423 62.4074 31.5742 62.7496 32.7779 63.3776C33.3731 64.432 34.1106 65.3993 34.9696 66.2521L35.0666 66.3493C34.9892 66.4852 34.9196 66.6254 34.8583 66.7693C34.7087 67.1266 34.6125 67.504 34.5729 67.8894C34.5557 68.0383 34.5471 68.1881 34.5472 68.338C34.5471 68.486 34.5557 68.6339 34.5729 68.7809C34.6136 69.1652 34.7097 69.5415 34.8583 69.8982C34.9219 70.0499 34.9943 70.1978 35.0751 70.3411L34.9753 70.4382C34.1181 71.2916 33.3834 72.26 32.7921 73.3156C31.5697 73.955 30.2157 74.3013 28.8369 74.3272C28.4095 74.3346 27.9822 74.3107 27.5584 74.2557L27.39 74.2329C24.248 73.7585 21.3258 71.6298 19.3054 68.3523V68.3637ZM31.5222 78.959C29.6464 80.3898 27.4604 81.3579 25.1413 81.785C25.565 79.4814 26.523 77.3097 27.9379 75.4444C28.1948 75.4644 28.4488 75.473 28.7027 75.473C29.8566 75.4724 31.0013 75.2683 32.0844 74.8701C31.6123 76.1744 31.4207 77.5639 31.5222 78.9476V78.959ZM44.5039 79.3876C44.5039 79.4448 44.4896 79.5019 44.4782 79.5591C44.0131 82.7022 41.8927 85.6282 38.6195 87.6484C35.3206 85.6282 33.1974 82.6822 32.7294 79.5134L32.7122 79.4019C32.4742 77.5996 32.7971 75.7676 33.6369 74.1557C34.1973 73.0813 34.9202 72.1001 35.78 71.2469C36.0264 71.4883 36.3037 71.6959 36.6047 71.8641C36.7406 71.9432 36.8817 72.0129 37.0271 72.0727C37.3825 72.2237 37.7587 72.3201 38.1429 72.3584C38.2916 72.3756 38.4412 72.3842 38.591 72.3841C38.7388 72.3842 38.8865 72.3756 39.0333 72.3584C39.417 72.3176 39.7929 72.2214 40.1491 72.0727C40.3002 72.0101 40.447 71.9376 40.5886 71.8555C40.6228 71.8869 40.6542 71.9212 40.6885 71.9555C41.5421 72.8122 42.509 73.5477 43.5622 74.1414C44.2039 75.3637 44.5537 76.7184 44.5838 78.0989C44.5884 78.5261 44.5617 78.953 44.5039 79.3762V79.3876ZM52.0207 81.805C49.7205 81.3794 47.5518 80.4204 45.6882 79.0048C45.7972 77.5959 45.6025 76.18 45.1175 74.8529C46.1914 75.2435 47.3251 75.4437 48.4678 75.4444C48.7103 75.4444 48.9558 75.4444 49.1983 75.4158C50.6273 77.2897 51.5943 79.4749 52.0207 81.7936V81.805ZM49.7519 74.2072L49.6407 74.2243C47.8416 74.4626 46.0128 74.1393 44.404 73.2985C43.3311 72.7384 42.3512 72.0155 41.4989 71.1554C41.739 70.9078 41.9462 70.6303 42.1153 70.3296C42.1942 70.1931 42.2647 70.0519 42.3265 69.9067C42.4748 69.549 42.5709 69.1718 42.6119 68.7866C42.629 68.6377 42.6376 68.4879 42.6376 68.338C42.6376 68.19 42.629 68.0421 42.6119 67.8951C42.5707 67.5137 42.4746 67.1403 42.3265 66.7865C42.2619 66.6347 42.1885 66.4868 42.1068 66.3435L42.2067 66.2464C43.0637 65.394 43.7984 64.4266 44.3898 63.3718C45.9964 62.5274 47.8239 62.1992 49.6235 62.4318L49.789 62.4546C52.9282 62.9175 55.8504 65.0406 57.8737 68.3209C55.859 71.6069 52.9196 73.7385 49.7519 74.1957V74.2072Z" fill="#F79B4C" stroke="#F79B4C" stroke-width="0.568301"/>
</svg>
