<svg width="94" height="99" viewBox="0 0 94 99" fill="none" xmlns="http://www.w3.org/2000/svg">
<path d="M92.6971 21.575L54.7385 0.9337L54.4628 0.783569L16.2256 21.575L15.639 21.8989V46.2198L15.0818 47.3031C15.0566 47.3586 15.0148 47.4048 14.9622 47.4353C14.9097 47.4659 14.849 47.4794 14.7885 47.4739L10.7443 47.2855C10.5369 47.2749 10.3295 47.3082 10.1357 47.3829C9.94185 47.4577 9.76576 47.5724 9.61878 47.7197C9.47179 47.867 9.35717 48.0435 9.28229 48.2379C9.20741 48.4324 9.17394 48.6404 9.18404 48.8486L9.36587 52.9168C9.36822 52.977 9.35348 53.0366 9.32336 53.0888C9.29325 53.1409 9.249 53.1833 9.19577 53.2112L5.59728 55.0775C5.41275 55.1725 5.2501 55.3052 5.11982 55.4672C4.98955 55.6292 4.89454 55.8168 4.84093 56.0178C4.78733 56.2189 4.7763 56.4291 4.80858 56.6347C4.84086 56.8403 4.91572 57.0369 5.02833 57.2117L7.2103 60.6323C7.24566 60.6821 7.26467 60.7418 7.26467 60.803C7.26467 60.8642 7.24566 60.9239 7.2103 60.9738L5.02833 64.3973C4.91567 64.5723 4.84078 64.7691 4.80847 64.975C4.77617 65.1808 4.78717 65.3912 4.84077 65.5925C4.89436 65.7938 4.98937 65.9816 5.11966 66.1439C5.24996 66.3061 5.41266 66.4391 5.59728 66.5344L9.19577 68.3978C9.24877 68.4259 9.29282 68.4684 9.3229 68.5205C9.35298 68.5725 9.36787 68.632 9.36587 68.6922L9.17524 72.7516C9.1658 72.9594 9.19951 73.167 9.27423 73.3611C9.34895 73.5552 9.46305 73.7315 9.60929 73.879L9.67674 73.9379L1.2832 93.4165L8.28075 88.1914L9.74713 97.3964L16.991 78.009C17.1898 78.3316 17.505 78.5646 17.8709 78.6596C18.0713 78.7133 18.2806 78.7245 18.4856 78.6926C18.6906 78.6606 18.8867 78.5863 19.0616 78.4742L22.4665 76.2811C22.517 76.2479 22.5762 76.2302 22.6366 76.2302C22.697 76.2302 22.7561 76.2479 22.8067 76.2811L26.2175 78.4742C26.4566 78.6274 26.7344 78.7091 27.0181 78.7097C27.1497 78.709 27.2807 78.6922 27.4082 78.6596C27.6081 78.6053 27.7946 78.5097 27.9557 78.3789C28.1168 78.2481 28.249 78.0851 28.3437 77.9001L28.5871 77.4262L36.0422 97.3964L37.532 88.1914L44.5149 93.4165L37.0217 76.0162L53.8792 85.8364L54.4657 86.1779L55.0523 85.8364L93.2954 63.5583V21.8989L92.6971 21.575ZM91.5035 22.2668L73.9744 32.4697L36.3824 11.955L54.4628 2.12296L91.5035 22.2668ZM10.2046 92.8336L9.11365 86.0896L4.10451 89.8369L10.8 74.3059L14.7797 74.1204C14.8402 74.1149 14.9009 74.1283 14.9534 74.1589C15.006 74.1895 15.0478 74.2357 15.073 74.2911L16.2637 76.6078L10.2046 92.8336ZM27.2997 77.3497C27.2793 77.3888 27.2511 77.4232 27.2168 77.4508C27.1825 77.4784 27.1428 77.4985 27.1003 77.5098C27.0578 77.5212 27.0135 77.5236 26.97 77.5167C26.9266 77.5099 26.885 77.4941 26.848 77.4704L23.4431 75.2891C23.202 75.1351 22.9223 75.0535 22.6366 75.0536C22.3527 75.0534 22.0748 75.1352 21.8359 75.2891L18.4251 77.4821C18.388 77.5055 18.3465 77.5209 18.3031 77.5275C18.2598 77.534 18.2156 77.5316 18.1732 77.5203C18.1308 77.5089 18.0913 77.489 18.0569 77.4617C18.0225 77.4344 17.9942 77.4002 17.9735 77.3614L17.5453 76.5313L17.6744 76.1869L17.296 76.0456L16.1229 73.7495C15.9909 73.4963 15.7905 73.2855 15.5446 73.1413C15.2988 72.9971 15.0174 72.9253 14.7328 72.9341L10.6885 73.1225C10.6447 73.1261 10.6005 73.1199 10.5594 73.104C10.5183 73.0882 10.4812 73.0634 10.451 73.0312C10.4194 73.0004 10.3947 72.9632 10.3785 72.9221C10.3624 72.881 10.3551 72.8369 10.3571 72.7928L10.5478 68.7334C10.5585 68.4492 10.489 68.1677 10.3474 67.9214C10.2057 67.675 9.99767 67.4739 9.74713 67.341L6.14864 65.4747C6.10895 65.4554 6.0741 65.4274 6.04668 65.3928C6.01926 65.3581 5.99998 65.3177 5.99027 65.2745C5.97843 65.232 5.9757 65.1875 5.98227 65.1438C5.98885 65.1002 6.00457 65.0585 6.0284 65.0214L8.2133 61.6008C8.36975 61.3611 8.45308 61.0807 8.45308 60.7942C8.45308 60.5076 8.36975 60.2273 8.2133 59.9876L6.0284 56.567C6.00513 56.5297 5.98975 56.488 5.98321 56.4445C5.97667 56.401 5.97912 56.3566 5.99039 56.3141C6.00167 56.2716 6.02154 56.2319 6.04876 56.1974C6.07598 56.1629 6.10998 56.1344 6.14864 56.1137L9.74713 54.2503C9.99969 54.1178 10.2096 53.9161 10.3524 53.6685C10.4951 53.421 10.5649 53.1378 10.5536 52.852L10.3483 48.7956C10.3463 48.7514 10.3534 48.7072 10.3693 48.6659C10.3852 48.6245 10.4096 48.587 10.4408 48.5557C10.472 48.5244 10.5093 48.5 10.5505 48.484C10.5916 48.468 10.6357 48.4609 10.6797 48.463L14.724 48.6514C15.0459 48.6683 15.3644 48.5783 15.6302 48.3952C15.8335 48.2528 16.0003 48.0642 16.1171 47.8448L16.8033 46.5083L17.9764 44.2358C17.9966 44.1958 18.0251 44.1606 18.06 44.1327C18.0949 44.1048 18.1355 44.0847 18.1788 44.0739C18.2206 44.0612 18.2646 44.0581 18.3077 44.0647C18.3509 44.0714 18.392 44.0876 18.4281 44.1121L21.8389 46.3052C22.0787 46.4594 22.3576 46.5414 22.6424 46.5414C22.9273 46.5414 23.2062 46.4594 23.446 46.3052L26.8509 44.1121C26.8884 44.0882 26.9305 44.0723 26.9745 44.0658C27.0184 44.0592 27.0633 44.0619 27.1061 44.0739C27.1481 44.0861 27.1871 44.1067 27.2209 44.1346C27.2547 44.1624 27.2825 44.1968 27.3026 44.2358L29.1649 47.8448C29.2959 48.0989 29.4968 48.31 29.7437 48.4529C29.9906 48.5959 30.2732 48.6648 30.5579 48.6514L34.5963 48.463C34.6408 48.4594 34.6854 48.4656 34.7272 48.481C34.769 48.4965 34.807 48.5209 34.8385 48.5525C34.87 48.5841 34.8943 48.6223 34.9097 48.6642C34.9251 48.7062 34.9313 48.751 34.9277 48.7956L34.743 52.852C34.7293 53.1375 34.7975 53.421 34.9394 53.6688C35.0813 53.9166 35.291 54.1184 35.5436 54.2503L39.1421 56.1166C39.1818 56.1359 39.2167 56.1639 39.2441 56.1986C39.2715 56.2332 39.2908 56.2736 39.3005 56.3168C39.3122 56.3592 39.3151 56.4035 39.3091 56.447C39.303 56.4906 39.2881 56.5324 39.2653 56.57L37.0745 59.9817C36.9222 60.223 36.8414 60.5027 36.8414 60.7883C36.8414 61.0739 36.9222 61.3536 37.0745 61.5949L39.2624 65.0155C39.2852 65.053 39.3001 65.0948 39.3062 65.1384C39.3122 65.1819 39.3093 65.2263 39.2975 65.2686C39.2878 65.3118 39.2686 65.3522 39.2411 65.3869C39.2137 65.4215 39.1789 65.4495 39.1392 65.4688L35.5554 67.341C35.3027 67.4729 35.093 67.6747 34.9511 67.9225C34.8092 68.1703 34.7411 68.4538 34.7547 68.7393L34.9395 72.7987C34.9424 72.8867 34.9108 72.9723 34.8515 73.0371C34.8206 73.0701 34.7826 73.0954 34.7404 73.1113C34.6982 73.1271 34.6529 73.1329 34.6081 73.1284H34.3998L31.8572 73.0077L30.5697 72.9341C30.2848 72.922 30.0024 72.9918 29.7557 73.1352C29.5089 73.2786 29.308 73.4896 29.1766 73.7436L27.2997 77.3497ZM41.6936 89.8251L36.6815 86.0778L35.5905 92.8218L29.3145 76.0044L30.1943 74.2794C30.222 74.2259 30.2643 74.1815 30.3162 74.1513C30.3682 74.1211 30.4276 74.1063 30.4876 74.1086L34.0333 74.2735L35.2973 75.0094L41.6936 89.8251ZM53.8763 84.4617L36.2358 74.1881L35.6727 73.8584C35.779 73.7483 35.8689 73.6234 35.9395 73.4875C36.0577 73.2547 36.1133 72.9949 36.1008 72.7339L35.9161 68.6745C35.9141 68.6144 35.929 68.5549 35.959 68.5028C35.9891 68.4508 36.0332 68.4083 36.0862 68.3801L39.6788 66.5168C39.8603 66.4206 40.0201 66.2879 40.1482 66.127C40.2763 65.9661 40.37 65.7804 40.4234 65.5815C40.4768 65.3826 40.4888 65.1748 40.4585 64.971C40.4283 64.7673 40.3566 64.572 40.2478 64.3973L38.0658 60.9767C38.0327 60.9259 38.0151 60.8666 38.0151 60.806C38.0151 60.7453 38.0327 60.686 38.0658 60.6352L40.2478 57.2058C40.3596 57.0304 40.4338 56.8335 40.4656 56.6278C40.4974 56.422 40.4862 56.2118 40.4325 56.0107C40.3801 55.8096 40.2858 55.6219 40.1559 55.4601C40.026 55.2982 39.8634 55.1658 39.6788 55.0716L36.0833 53.2112C36.03 53.1833 35.9858 53.1409 35.9557 53.0888C35.9255 53.0366 35.9108 52.977 35.9132 52.9168L36.0979 48.8574C36.1079 48.6497 36.0746 48.4422 36.0001 48.2482C35.9256 48.0542 35.8115 47.878 35.6651 47.7308C35.5188 47.5836 35.3434 47.4688 35.1503 47.3936C34.9571 47.3185 34.7505 47.2846 34.5436 47.2943L30.4993 47.4827C30.4392 47.4858 30.3795 47.4713 30.3274 47.441C30.2754 47.4107 30.2332 47.3659 30.206 47.312L28.3496 43.703C28.2543 43.5184 28.1217 43.3558 27.9602 43.2256C27.7988 43.0953 27.6121 43.0003 27.412 42.9466C27.2119 42.8928 27.0029 42.8815 26.7982 42.9135C26.5935 42.9454 26.3977 43.0198 26.2233 43.1319L22.8125 45.325C22.7615 45.3568 22.7026 45.3736 22.6424 45.3736C22.5823 45.3736 22.5234 45.3568 22.4723 45.325L19.0674 43.1319C18.8925 43.0197 18.6963 42.9452 18.4912 42.9132C18.2861 42.8813 18.0766 42.8925 17.8761 42.9462C17.6755 42.9999 17.4883 43.0949 17.3264 43.2252C17.1644 43.3555 17.0312 43.5182 16.9353 43.703L16.8092 43.9473V23.2706L53.8821 44.8657L53.8763 84.4617ZM54.4628 43.8384L17.4192 22.2609L35.1536 12.6173L72.8013 33.1615L54.4628 43.8384ZM92.1194 62.8754L55.0494 84.4735V44.8657L92.1194 23.2706V62.8754Z" fill="#F79B4C" stroke="#F79B4C" stroke-width="0.7"/>
<path d="M33.1826 60.797C33.1831 58.8827 32.6661 57.0041 31.6866 55.3614C30.7072 53.7187 29.3021 52.3736 27.621 51.4694C25.9399 50.5651 24.0459 50.1356 22.1409 50.2267C20.2358 50.3178 18.391 50.926 16.8032 51.9865C16.391 52.2611 15.9989 52.5651 15.6301 52.8961C13.7301 54.5944 12.5063 56.9252 12.1844 59.4583C11.8624 61.9914 12.4642 64.5559 13.8785 66.6786C15.2929 68.8013 17.4244 70.3388 19.8798 71.0075C22.3352 71.6763 24.9486 71.431 27.2379 70.317C27.6424 70.1179 28.0342 69.8938 28.411 69.6459C29.8746 68.6833 31.0769 67.3707 31.9098 65.8261C32.7427 64.2815 33.1801 62.5534 33.1826 60.797ZM27.2614 68.9747C26.8498 69.2114 26.4203 69.4151 25.9768 69.584C24.9107 69.9946 23.7783 70.2042 22.6364 70.2022C20.8313 70.2022 19.0646 69.6787 17.5489 68.6946C16.0332 67.7105 14.833 66.3078 14.0928 64.6552C13.3527 63.0027 13.104 61.1706 13.3767 59.3795C13.6494 57.5884 14.4319 55.9145 15.6301 54.5593C15.9875 54.1534 16.3801 53.78 16.8032 53.4436C17.8135 52.6347 18.9797 52.0443 20.2283 51.7097C21.477 51.3751 22.7812 51.3035 24.0587 51.4993C25.3363 51.6951 26.5597 52.1542 27.652 52.8477C28.7442 53.5411 29.6817 54.4539 30.4054 55.5287C31.1291 56.6035 31.6234 57.8169 31.8572 59.0928C32.0911 60.3686 32.0593 61.6792 31.764 62.9421C31.4687 64.205 30.9162 65.3929 30.1414 66.4311C29.3665 67.4693 28.3859 68.3353 27.2614 68.9747Z" fill="#F79B4C" stroke="#F79B4C" stroke-width="0.7"/>
<path d="M20.6252 63.4435L17.5898 59.5402L16.8039 60.1524L16.666 60.2614L16.8039 60.4439L20.2586 64.8918L20.2674 64.8948L20.4815 65.1774L20.5871 65.0832L28.5466 57.718L27.7489 56.8525L20.6252 63.4435Z" fill="#F79B4C" stroke="#F79B4C" stroke-width="0.7"/>
</svg>
