<svg width="285" height="285" viewBox="0 0 285 285" fill="none" xmlns="http://www.w3.org/2000/svg">
<path d="M128.367 229.81C128.178 229.811 127.99 229.776 127.814 229.704C127.639 229.633 127.479 229.527 127.345 229.393L56.9998 158.958C56.8663 158.825 56.7604 158.667 56.6881 158.493C56.6158 158.319 56.5786 158.133 56.5786 157.944C56.5786 157.756 56.6158 157.57 56.6881 157.396C56.7604 157.222 56.8663 157.064 56.9998 156.931L139.107 74.7425C139.253 74.5988 139.427 74.4875 139.619 74.4158C139.811 74.3441 140.015 74.3136 140.22 74.3263L204.747 78.8501C205.086 78.8765 205.404 79.0217 205.646 79.2601C205.888 79.4986 206.037 79.8148 206.068 80.153L211.931 146.029C211.951 146.237 211.925 146.447 211.854 146.644C211.784 146.841 211.671 147.02 211.524 147.169L129.381 229.403C129.247 229.534 129.089 229.637 128.915 229.707C128.741 229.777 128.555 229.812 128.367 229.81ZM60.0036 157.944L128.367 226.363L209 145.667L203.3 81.673L140.645 77.2396L60.0036 157.944Z" fill="#F5821F"/>
<path d="M165.834 144.934C162.619 144.944 159.434 144.315 156.464 143.083C153.494 141.852 150.799 140.042 148.535 137.759C145.108 134.336 142.774 129.974 141.828 125.224C140.881 120.474 141.364 115.55 143.217 111.075C145.069 106.6 148.207 102.775 152.234 100.084C156.261 97.3923 160.995 95.9558 165.838 95.9558C170.682 95.9558 175.416 97.3923 179.443 100.084C183.469 102.775 186.607 106.6 188.46 111.075C190.312 115.55 190.796 120.474 189.849 125.224C188.902 129.974 186.568 134.336 183.142 137.759C180.876 140.042 178.179 141.852 175.208 143.084C172.237 144.315 169.05 144.944 165.834 144.934ZM165.834 98.791C160.826 98.7872 155.972 100.52 152.098 103.695C148.225 106.87 145.573 111.289 144.593 116.201C143.614 121.112 144.368 126.211 146.728 130.628C149.087 135.046 152.905 138.508 157.532 140.426C162.158 142.343 167.306 142.597 172.099 141.143C176.891 139.69 181.031 136.619 183.813 132.455C186.595 128.291 187.847 123.291 187.355 118.307C186.863 113.323 184.658 108.664 181.115 105.124C179.112 103.113 176.73 101.52 174.107 100.436C171.484 99.3519 168.672 98.7989 165.834 98.8091V98.791Z" fill="#F5821F"/>
<path d="M164.54 120.569C164.352 120.568 164.165 120.53 163.991 120.457C163.817 120.384 163.659 120.278 163.527 120.143C160.396 117.013 160.994 110.96 165.273 102.636C169.245 94.9005 175.976 86.0971 184.219 77.8457C197.79 64.2743 212.547 55.1814 221.024 55.1814C222.015 55.1273 223.006 55.2732 223.939 55.6105C224.871 55.9478 225.726 56.4696 226.453 57.1448C229.502 60.1848 229.004 66.0295 225.014 74.0367C221.35 81.4286 215.008 89.9695 207.191 98.0309C206.926 98.3021 206.564 98.4568 206.184 98.4611C205.805 98.4653 205.44 98.3187 205.169 98.0536C204.897 97.7884 204.743 97.4264 204.738 97.0472C204.734 96.668 204.881 96.3026 205.146 96.0314C221.667 78.9767 228.498 63.1976 224.454 59.1624C223.984 58.7585 223.44 58.4515 222.851 58.2589C222.263 58.0664 221.642 57.9922 221.024 58.0405C213.379 58.0405 199.075 67.0157 186.245 79.8724C168.883 97.2438 161.401 113.982 165.544 118.126C165.678 118.258 165.783 118.415 165.856 118.588C165.928 118.761 165.965 118.947 165.965 119.135C165.965 119.322 165.928 119.508 165.856 119.681C165.783 119.854 165.678 120.011 165.544 120.143C165.414 120.278 165.258 120.385 165.085 120.458C164.913 120.531 164.728 120.568 164.54 120.569Z" fill="#F5821F"/>
<path d="M145.721 175.931C145.338 175.928 144.971 175.776 144.699 175.506L110.815 141.595C110.682 141.462 110.577 141.304 110.505 141.13C110.433 140.957 110.396 140.77 110.396 140.582C110.396 140.394 110.433 140.207 110.505 140.034C110.577 139.86 110.682 139.702 110.815 139.569C110.948 139.436 111.106 139.33 111.28 139.258C111.454 139.186 111.64 139.149 111.829 139.149C112.017 139.149 112.203 139.186 112.377 139.258C112.551 139.33 112.709 139.436 112.842 139.569L146.725 173.488C146.921 173.689 147.054 173.943 147.108 174.219C147.161 174.495 147.133 174.78 147.026 175.04C146.919 175.299 146.739 175.522 146.507 175.681C146.275 175.839 146.002 175.926 145.721 175.931Z" fill="#F5821F"/>
<path d="M133.995 187.675C133.626 187.675 133.271 187.536 133 187.286L118.297 172.565C118.165 172.432 118.06 172.274 117.988 172.101C117.917 171.927 117.88 171.741 117.881 171.553C117.881 171.365 117.919 171.18 117.991 171.006C118.063 170.833 118.169 170.675 118.302 170.543C118.435 170.411 118.593 170.306 118.767 170.234C118.94 170.163 119.126 170.126 119.314 170.126C119.502 170.127 119.688 170.164 119.861 170.237C120.034 170.309 120.192 170.414 120.324 170.548L135.026 185.268C135.223 185.469 135.356 185.723 135.409 185.999C135.462 186.274 135.434 186.56 135.327 186.82C135.22 187.079 135.04 187.302 134.808 187.46C134.576 187.619 134.303 187.706 134.022 187.711L133.995 187.675Z" fill="#F5821F"/>
<path d="M122.261 199.419C122.072 199.418 121.885 199.38 121.712 199.307C121.538 199.234 121.38 199.128 121.247 198.993L95.4617 173.19C95.1964 172.919 95.0479 172.555 95.0479 172.176C95.0479 171.797 95.1964 171.434 95.4617 171.163C95.5945 171.029 95.7524 170.923 95.9263 170.851C96.1002 170.779 96.2867 170.742 96.475 170.742C96.6633 170.742 96.8498 170.779 97.0237 170.851C97.1976 170.923 97.3555 171.029 97.4883 171.163L123.274 196.976C123.407 197.108 123.513 197.265 123.585 197.438C123.657 197.611 123.694 197.797 123.694 197.985C123.694 198.172 123.657 198.358 123.585 198.531C123.513 198.704 123.407 198.861 123.274 198.993C123.006 199.264 122.641 199.417 122.261 199.419Z" fill="#F5821F"/>
<path d="M218.527 229.809H66.4637C66.0846 229.809 65.721 229.659 65.4529 229.391C65.1848 229.123 65.0342 228.759 65.0342 228.38C65.0342 228.001 65.1848 227.637 65.4529 227.369C65.721 227.101 66.0846 226.95 66.4637 226.95H218.527C218.906 226.95 219.27 227.101 219.538 227.369C219.806 227.637 219.957 228.001 219.957 228.38C219.957 228.759 219.806 229.123 219.538 229.391C219.27 229.659 218.906 229.809 218.527 229.809Z" fill="#F5821F"/>
</svg>
