<svg width="158" height="153" viewBox="0 0 158 153" fill="none" xmlns="http://www.w3.org/2000/svg">
<g clip-path="url(#clip0_1127_2579)">
<path d="M6.04567 152.939C4.55161 153.026 3.05318 153.001 1.56276 152.865C0.49909 152.769 -0.0103324 152.147 -0.00829469 150.99C-0.00829469 147.232 -0.00829357 143.477 0.0406108 139.722C0.16491 131.356 -0.000141096 122.993 -0.00217878 114.627C-0.00217878 105.454 3.91017 98.4364 11.5515 93.4826C12.9779 92.552 14.5571 91.8934 16.173 91.3187C19.0135 90.3103 21.9437 89.9994 24.935 90.0158C26.9727 90.028 29.0104 90.0158 31.0481 90.0301C31.5167 90.0301 31.6594 89.8889 31.6471 89.4165C31.6166 87.4979 31.6186 85.5794 31.6227 83.6609C31.6277 83.4536 31.5591 83.2513 31.4291 83.0902C27.8896 78.4411 25.854 73.1212 24.5539 67.4781C24.2789 66.2836 24.2972 66.2877 23.0481 66.2959C21.7419 66.2959 20.4317 66.4534 19.1317 66.1691C15.7532 65.4287 13.4832 62.9722 13.145 59.5176C12.9636 57.8977 12.98 56.2616 13.1939 54.6456C13.4286 52.9374 14.2613 51.3687 15.543 50.2205C16.8247 49.0722 18.4717 48.4193 20.1892 48.3787C20.8168 48.3787 20.9228 48.1557 20.8535 47.6158C20.4666 44.5068 20.4947 41.3598 20.9371 38.2583C21.2284 36.1107 21.8336 34.0572 23.1031 32.2573C24.0939 30.7953 25.5492 29.7137 27.2315 29.1892C27.5116 29.1119 27.7604 28.9481 27.9426 28.7209C32.0608 23.5973 37.3832 20.4024 43.7041 18.7866C45.5156 18.3244 47.3577 18.2589 49.2059 18.173C53.5094 17.9501 57.5379 18.9584 61.3138 20.9894C66.6647 23.8672 69.9658 28.3956 71.8058 34.1288C73.0284 37.9454 73.0855 41.8377 72.8409 45.7688C72.7961 46.4765 72.7065 47.1821 72.5964 47.8817C72.5373 48.2662 72.6514 48.3909 73.0305 48.4359C74.3806 48.5983 75.6587 49.1359 76.7207 49.9884C78.4038 51.3117 79.276 53.0932 79.4349 55.1917C79.5405 56.5858 79.5453 57.9858 79.4492 59.3806C79.2658 61.9475 78.0004 63.8987 75.8323 65.265C75.7283 65.3305 75.6285 65.4062 75.5266 65.4696C74.8218 65.8052 74.0796 66.0551 73.3157 66.2141C72.8593 66.3061 72.3723 66.077 71.9403 66.3654C70.8501 66.1609 69.7559 66.2714 68.6617 66.3123C68.3988 66.3225 68.3153 66.4984 68.2745 66.7213C67.8364 67.1795 67.9403 67.8463 67.6489 68.3576C67.619 68.3939 67.5965 68.4359 67.5827 68.481C67.5689 68.5261 67.5642 68.5735 67.5687 68.6204C67.5733 68.6674 67.587 68.7129 67.6092 68.7545C67.6313 68.7961 67.6615 68.8329 67.6978 68.8628C67.6184 69.415 67.3148 69.9162 67.3351 70.4889H64.2582C64.0157 70.4889 63.7488 70.5318 63.6632 70.2025C64.0239 68.2778 64.572 66.3982 64.9796 64.4858C65.3199 62.8965 65.6928 61.2766 65.5277 59.6608C65.1855 56.1755 64.6137 52.7167 63.816 49.3073C63.3168 47.1985 62.7401 45.1102 61.7315 43.1712C61.5277 42.7908 61.3484 42.7172 60.9572 42.9258C56.9613 45.057 52.7657 46.5747 48.2522 47.1556C44.3439 47.6567 40.5926 47.1862 36.994 45.554C35.2458 44.767 33.6367 43.6997 32.2299 42.394C31.9181 42.1076 31.7307 42.1036 31.5289 42.5024C31.209 43.1324 30.8137 43.7296 30.5101 44.3698C29.0837 47.4828 28.3685 50.8045 27.7796 54.1609C27.1153 57.9284 26.9258 61.6755 27.7796 65.4593C28.7394 69.7116 30.0374 73.8453 32.1464 77.6496C33.5525 80.2425 35.4531 82.5325 37.7398 84.389C39.7551 86.0048 42.0006 87.1707 44.5823 87.4979C48.4254 87.9847 51.8161 86.8209 54.7891 84.3952C58.1228 81.6748 60.3968 78.1691 62.0861 74.2482C63.1986 73.9782 64.3275 74.1868 65.4462 74.1275C65.6255 74.1173 65.8211 74.0887 65.9597 74.2584C65.0226 76.7571 63.8159 79.1452 62.3611 81.3803C62.075 81.7867 61.9245 82.2736 61.9312 82.7711C61.9597 84.9528 61.9597 87.1434 61.9312 89.3428C61.9312 89.844 62.0901 89.983 62.5751 89.983C65.0061 89.983 67.4391 89.9585 69.868 90.0383C79.0579 90.3389 85.9473 94.5626 90.577 102.486C92.6391 106.014 93.5316 109.888 93.5622 113.969C93.6416 124.423 93.6009 134.876 93.5825 145.328C93.5825 146.999 93.6111 148.668 93.6151 150.337C93.6151 152.327 93.0894 152.91 91.1312 152.926C86.6829 152.967 82.2326 152.978 77.7844 152.984C73.9821 152.984 70.1777 152.984 66.3733 152.969C66.2287 152.969 66.084 152.949 65.9393 152.939C65.8435 152.65 65.599 152.755 65.4116 152.751C57.6847 152.587 49.9578 152.984 42.2288 152.534C38.5447 152.329 34.8381 152.495 31.1418 152.497C29.6808 152.497 28.2177 152.409 26.775 152.742C26.4735 152.812 26.7282 152.875 26.7608 152.947L25.2305 152.902L26.1393 152.845C25.6008 152.755 25.0541 152.726 24.5091 152.757C24.2666 152.769 23.9671 152.605 23.7817 152.916C23.1965 152.98 22.6063 152.98 22.0211 152.916C22.0032 152.868 21.9706 152.826 21.9278 152.797C21.885 152.768 21.8343 152.753 21.7827 152.755C21.0838 152.755 20.3828 152.755 19.6839 152.755C19.6214 152.747 19.5583 152.764 19.5081 152.802C19.4579 152.84 19.4245 152.897 19.4149 152.959H19.0339C19.0196 152.886 19.0074 152.802 18.9116 152.802C18.8158 152.802 18.8036 152.886 18.7893 152.959H18.4103C18.3044 152.636 18.0334 152.755 17.8296 152.755C14.102 152.747 10.3737 152.747 6.64475 152.755C6.4532 152.751 6.19442 152.675 6.04567 152.939ZM25.8112 34.9101C25.7568 34.9321 25.7123 34.9734 25.6864 35.0263C25.6604 35.0791 25.6548 35.1397 25.6706 35.1964C25.6612 35.2337 25.6397 35.2668 25.6095 35.2905C25.575 35.292 25.5415 35.3022 25.5121 35.3202C25.4827 35.3382 25.4583 35.3633 25.4412 35.3934C25.4241 35.4234 25.4148 35.4573 25.4143 35.4919C25.4138 35.5265 25.4221 35.5607 25.4383 35.5912L25.1999 36.1618C25.1069 36.2492 25.0366 36.358 24.9951 36.4789C24.9536 36.5997 24.942 36.7289 24.9615 36.8552L24.9126 37.0597C24.8879 37.0725 24.8661 37.0903 24.8485 37.1119C24.8309 37.1334 24.8179 37.1584 24.8102 37.1852C24.8026 37.2121 24.8005 37.2402 24.8041 37.2678C24.8077 37.2955 24.8169 37.3221 24.8311 37.3461L24.7862 37.5506C24.7614 37.5644 24.7397 37.5833 24.7226 37.606C24.7055 37.6287 24.6932 37.6548 24.6867 37.6825C24.6802 37.7102 24.6795 37.739 24.6847 37.767C24.6899 37.795 24.7009 37.8216 24.717 37.8451C24.6966 37.9556 24.6783 38.066 24.6599 38.1765C24.6125 38.2064 24.5787 38.2538 24.5658 38.3085C24.5528 38.3632 24.5618 38.4208 24.5906 38.469C24.5723 38.5815 24.554 38.6919 24.5336 38.8044C24.5093 38.8197 24.4885 38.84 24.4726 38.8639C24.4566 38.8879 24.4459 38.9149 24.4411 38.9433C24.4363 38.9717 24.4375 39.0008 24.4447 39.0286C24.4518 39.0565 24.4648 39.0826 24.4826 39.1051L24.4154 39.9232C24.1974 40.3446 24.287 40.7823 24.342 41.2179C24.3278 41.6638 24.3155 42.1076 24.3013 42.5515C24.1006 43.1611 24.1006 43.8194 24.3013 44.4291C24.3155 44.7073 24.3318 44.9854 24.3461 45.2636C24.3033 45.6175 24.2014 45.9754 24.4297 46.3067C24.45 46.6033 24.4724 46.8999 24.4928 47.1965C24.4333 47.2905 24.4064 47.4017 24.4164 47.5127C24.4263 47.6236 24.4725 47.7282 24.5478 47.8101L24.5866 48.1516C24.4663 48.6487 24.7435 49.1211 24.6823 49.6181C24.666 49.7388 24.6823 49.8881 24.829 49.9229C25.0328 49.97 25.0573 49.79 25.0899 49.657C25.2773 48.8614 25.5585 48.0862 25.6298 47.264L25.6828 47.0594C25.8892 46.7099 26.0087 46.3156 26.0313 45.9099L26.396 44.832C26.4531 44.8069 26.498 44.7601 26.5209 44.7019C26.5438 44.6436 26.5429 44.5787 26.5183 44.5212C26.7526 43.9423 26.9564 43.3492 27.2274 42.7867C28.0262 41.1279 28.9044 39.5141 30.396 38.3565C31.6858 37.3522 32.5193 37.4095 33.64 38.6142C35.7836 40.9173 38.3776 42.4901 41.426 43.1692C44.0572 43.7261 46.7725 43.7518 49.4137 43.2449C53.0815 42.5903 56.4763 41.2384 59.6999 39.4017C61.2914 38.4956 62.7931 38.7553 63.9913 40.1543C64.6736 40.9906 65.2285 41.9239 65.6377 42.9237C66.6281 45.1736 67.219 47.5237 67.7264 49.9086C67.8405 50.4465 67.9648 50.9824 68.0911 51.5449C68.1596 51.4933 68.2161 51.4275 68.2569 51.3519C68.2977 51.2764 68.3218 51.1929 68.3275 51.1072C69.1426 47.1269 69.654 43.1303 69.0631 39.0621C68.8593 37.6017 68.6555 36.1127 68.2052 34.7137C66.6219 29.7763 63.5185 26.0783 58.8584 23.7773C56.6267 22.7021 54.2179 22.0456 51.7509 21.8403C48.1363 21.509 44.4949 22.0438 41.1264 23.4009C36.8701 25.0418 33.1623 27.8566 30.4306 31.5209C30.0248 32.1047 29.4062 32.5045 28.7088 32.6336C28.077 32.7458 27.4823 33.0121 26.9771 33.409C26.4718 33.8059 26.0715 34.3214 25.8112 34.9101ZM21.1408 149.435L21.041 149.55C21.0552 149.55 21.0797 149.57 21.0817 149.566C21.1205 149.525 21.1551 149.48 21.1918 149.437L21.3833 149.449C21.5198 150.355 21.6788 150.493 22.5917 150.495C23.2152 150.495 23.8428 150.544 24.4602 150.484C25.6164 150.339 26.7867 150.348 27.9406 150.511C29.8886 150.844 31.859 150.673 33.8152 150.836C34.9849 150.934 36.1769 150.75 37.3567 150.752C39.2721 150.752 41.1876 150.859 43.101 150.816C44.888 150.779 46.673 150.54 48.458 150.515C49.9517 150.497 51.4473 150.707 52.9409 150.734C55.2456 150.775 57.5522 150.734 59.8568 150.748C60.4783 150.748 61.1039 150.613 61.7091 150.65C62.9215 150.722 64.1258 150.603 65.33 150.585C65.8782 150.585 66.4406 150.513 66.9969 150.493C67.2006 150.493 67.4655 150.468 67.5043 150.237C67.543 150.006 67.2618 150 67.0967 149.946C66.8318 149.863 66.6423 149.742 66.6994 149.427C68.5333 149.408 70.355 149.372 72.1828 149.384C72.7513 149.384 72.9204 149.212 72.9204 148.635C72.9041 142.211 72.9204 135.784 72.9204 129.36C72.9204 125.061 72.9 120.765 72.8593 116.474C72.8415 116.193 72.8843 115.912 72.9849 115.649C73.0855 115.386 73.2414 115.148 73.4421 114.951C73.6992 114.685 74.0349 114.51 74.3992 114.452C74.7636 114.394 75.1369 114.455 75.4634 114.627C76.2785 115.002 76.5332 115.728 76.5312 116.585C76.5176 125.327 76.5067 134.068 76.4986 142.81C76.4986 144.708 76.4741 146.606 76.4843 148.504C76.4843 149.388 76.5129 149.39 77.3728 149.39H89.0344C89.9025 149.39 89.9045 149.39 89.9045 148.504C89.9045 140.953 89.8991 133.402 89.8882 125.85C89.8882 121.907 89.8882 117.963 89.8882 114.02C89.9073 110.982 89.2134 107.982 87.8628 105.264C85.6213 100.799 82.2876 97.4915 77.6906 95.4462C75.5103 94.4767 73.2648 93.8426 70.9051 93.7485C68.0402 93.636 65.1691 93.6851 62.3 93.6565C61.9597 93.6565 61.8476 93.7935 61.7947 94.1269C61.5501 95.5258 61.119 96.8852 60.513 98.1685C57.8986 103.895 52.028 107.577 45.6195 107.035C39.6002 106.522 35.3476 103.353 32.7821 97.8781C32.2541 96.7227 31.903 95.4939 31.7409 94.2333C31.694 93.8917 31.6084 93.6647 31.1723 93.6688C28.4704 93.6933 25.7643 93.6237 23.0664 93.7158C19.2168 93.8443 15.4911 95.1132 12.3584 97.3626C11.1602 98.221 10.0545 99.2027 9.0594 100.292C5.58684 103.938 3.64964 108.788 3.65139 113.832C3.61063 118.379 3.58075 122.926 3.56173 127.472C3.56173 129.538 3.59841 131.602 3.60248 133.668C3.61335 138.61 3.61947 143.555 3.62082 148.5C3.62082 149.388 3.6412 149.392 4.52148 149.392L16.1811 149.408C17.0879 149.408 17.0899 149.408 17.0899 148.5C17.0818 141.219 17.0723 133.938 17.0614 126.656C17.0614 123.234 17.0267 119.812 17.0166 116.393C17.0166 115.458 17.4628 114.82 18.2555 114.58C19.5596 114.184 20.666 114.989 20.6701 116.348C20.6823 120.479 20.6701 124.609 20.6701 128.74C20.6701 135.422 20.6701 142.098 20.6701 148.77C20.6701 149.098 20.6538 149.429 21.1408 149.435ZM58.3184 89.844C58.3184 88.8847 58.3184 87.9254 58.3184 86.9662C58.3184 86.7882 58.4203 86.5448 58.2409 86.4446C58.0616 86.3444 57.9292 86.5898 57.7947 86.7003C53.0876 90.5864 47.8834 92.3618 41.7989 90.6069C39.6238 89.9545 37.5883 88.9024 35.7959 87.5041C35.6695 87.4079 35.5758 87.1973 35.3883 87.275C35.2009 87.3527 35.2701 87.5675 35.2701 87.7229C35.2701 89.3101 35.2335 90.8973 35.2844 92.4804C35.3711 94.6436 36.0944 96.7325 37.3628 98.4835C39.4637 101.464 42.3796 103.1 46.0291 103.374C47.7187 103.484 49.4115 103.215 50.9848 102.587C52.5581 101.96 53.9724 100.988 55.1253 99.7434C56.4335 98.3117 57.3953 96.7736 57.8599 94.8714C58.2674 93.2065 58.3041 91.5334 58.3184 89.844ZM21.5891 62.602C22.0231 62.602 22.502 62.5918 22.9788 62.602C23.4556 62.6122 23.6288 62.4179 23.5494 61.9577C23.5208 61.7941 23.5494 61.6202 23.5005 61.4607C22.7506 58.4684 21.9804 55.4801 21.4974 52.4285C21.4587 52.1871 21.3691 52.0051 21.0695 51.9867C18.6039 51.8312 17.0492 53.3939 16.7904 55.1549C16.6335 56.4815 16.6131 57.8207 16.7292 59.1515C16.7642 59.7067 16.9255 60.2465 17.2006 60.7294C17.4758 61.2123 17.8576 61.6255 18.3166 61.9373C19.3008 62.6593 20.4154 62.6634 21.5891 62.602ZM75.8323 57.458H75.8689V55.7092C75.8689 53.8827 74.3305 52.2628 72.5007 52.0276C72.032 51.9662 71.8262 52.0664 71.7182 52.543C71.3453 54.21 70.8318 55.8401 70.3366 57.4764C69.8863 58.9654 69.2404 60.3951 68.9979 61.9536C68.9164 62.4731 69.0753 62.5672 69.5277 62.5672C70.3794 62.5672 71.2312 62.6122 72.0829 62.6122C72.5723 62.616 73.0576 62.5228 73.511 62.3379C73.9645 62.153 74.3771 61.8801 74.7252 61.5349C75.0733 61.1896 75.3501 60.7788 75.5398 60.3259C75.7294 59.873 75.8281 59.3871 75.8302 58.8958C75.8384 58.4193 75.8323 57.9407 75.8323 57.46V57.458Z" fill="#F5821F"/>
<path d="M120.491 153.006C119.431 153.006 118.371 153.006 117.31 153.006C116.03 152.992 115.272 152.223 115.258 150.936C115.248 149.267 115.243 147.598 115.258 145.929C115.258 145.557 115.152 145.371 114.787 145.254C114.297 145.09 113.82 144.889 113.361 144.653C113.242 144.572 113.097 144.54 112.956 144.564C112.814 144.588 112.688 144.666 112.603 144.782C111.541 145.87 110.459 146.938 109.379 148.007C109.128 148.257 108.864 148.493 108.588 148.715C108.05 149.14 107.464 149.235 106.85 148.875C106.629 148.756 106.424 148.61 106.239 148.441C104.745 146.959 103.261 145.469 101.787 143.972C101.236 143.413 100.855 142.757 101.151 141.947C101.327 141.459 101.614 141.02 101.99 140.665C102.92 139.781 103.781 138.801 104.762 138.006C105.628 137.296 105.418 136.731 105.104 135.944C104.623 134.737 104.656 134.717 103.364 134.729C101.95 134.729 100.538 134.729 99.1234 134.729C97.7092 134.729 97.21 134.158 97.1264 132.759C97.0021 130.634 97.0877 128.513 97.1264 126.39C97.1529 124.901 97.6786 124.384 99.1845 124.371C100.815 124.357 102.428 124.353 104.048 124.371C104.497 124.371 104.721 124.238 104.849 123.797C105.009 123.301 105.203 122.817 105.43 122.348C105.504 122.224 105.529 122.077 105.5 121.935C105.471 121.794 105.39 121.668 105.273 121.584C104.425 120.784 103.596 119.97 102.816 119.098C102.341 118.567 101.699 118.209 101.357 117.524C101.187 117.215 101.104 116.865 101.119 116.513C101.133 116.161 101.244 115.819 101.438 115.525C101.561 115.355 101.698 115.195 101.846 115.047C103.282 113.598 104.721 112.152 106.164 110.708C107.262 109.606 108.222 109.817 109.33 111.036C110.037 111.815 110.803 112.537 111.543 113.286C111.602 113.345 111.675 113.39 111.735 113.445C112.142 113.826 112.454 114.584 112.939 114.537C113.689 114.466 114.406 114.012 115.133 113.719C115.337 113.633 115.356 113.435 115.351 113.243C115.323 111.471 115.474 109.692 115.268 107.925C115.15 106.92 116.246 106.121 117.163 106.102C119.366 106.053 121.57 106.082 123.773 106.102C124.945 106.115 125.664 106.847 125.68 108.043C125.704 109.712 125.704 111.381 125.68 113.05C125.68 113.517 125.803 113.772 126.278 113.903C126.695 114.03 127.096 114.206 127.472 114.429C127.924 114.683 128.258 114.576 128.56 114.2C129.414 113.187 130.351 112.247 131.36 111.39C131.726 111.056 131.934 110.588 132.405 110.336C133.312 109.851 133.831 109.813 134.557 110.516C136.187 112.091 137.864 113.625 139.378 115.319C140.207 116.247 140.179 117.08 139.313 117.978C138.155 119.173 136.977 120.35 135.779 121.508C135.41 121.864 135.343 122.179 135.616 122.596C135.73 122.746 135.812 122.918 135.857 123.101C136.038 124.259 136.745 124.469 137.801 124.392C139.123 124.296 140.46 124.392 141.788 124.373C142.94 124.355 143.971 125.003 143.914 126.468C143.838 128.468 143.859 130.473 143.914 132.475C143.952 133.986 142.923 134.813 141.654 134.747C140.079 134.666 138.495 134.747 136.916 134.723C136.497 134.723 136.281 134.835 136.148 135.251C135.965 135.76 135.752 136.258 135.508 136.742C135.434 136.867 135.409 137.016 135.437 137.159C135.465 137.302 135.544 137.43 135.659 137.519C136.78 138.607 137.886 139.707 138.995 140.808C139.187 140.999 139.366 141.204 139.531 141.421C140.081 142.147 140.115 142.939 139.49 143.587C137.86 145.278 136.198 146.942 134.504 148.58C133.795 149.267 132.894 149.224 132.15 148.515C130.902 147.323 129.679 146.105 128.482 144.862C128.171 144.54 127.953 144.426 127.535 144.675C127.086 144.937 126.607 145.143 126.108 145.289C125.701 145.412 125.615 145.631 125.619 146.017C125.636 147.686 125.634 149.355 125.63 151.024C125.63 152.354 124.955 153.025 123.637 153.033H120.519L120.491 153.006ZM137.297 130.957V130.984C138.112 130.984 138.927 130.963 139.728 130.984C140.156 131 140.34 130.876 140.307 130.428C140.276 129.886 140.295 129.342 140.293 128.791C140.293 127.957 140.293 127.942 139.425 127.938C137.998 127.938 136.558 127.955 135.123 127.953C134.129 127.953 133.456 127.458 133.206 126.501C132.844 125.172 132.331 123.89 131.677 122.68C131.088 121.559 131.178 120.902 132.085 119.984C133.119 118.927 134.166 117.884 135.227 116.855C135.504 116.587 135.52 116.409 135.241 116.145C134.726 115.66 134.222 115.163 133.737 114.646C133.493 114.388 133.356 114.388 133.096 114.646C131.96 115.805 130.805 116.947 129.632 118.074C128.902 118.775 128.001 118.806 127.199 118.221C126.98 118.063 126.748 117.926 126.504 117.812C125.458 117.35 124.383 116.957 123.286 116.636C122.95 116.552 122.649 116.363 122.427 116.096C122.205 115.829 122.073 115.498 122.051 115.151C121.979 114.237 121.971 113.319 122.029 112.404C122.051 111.653 122.053 110.903 122.049 110.154C122.049 109.731 121.866 109.512 121.395 109.541C120.815 109.58 120.232 109.58 119.651 109.541C119.131 109.502 118.962 109.678 118.97 110.203C118.997 111.725 118.985 113.249 118.97 114.77C118.97 115.675 118.512 116.397 117.736 116.611C116.237 117.04 114.79 117.636 113.424 118.389C112.737 118.759 112.063 118.667 111.443 118.184C110.963 117.786 110.513 117.351 110.098 116.883C109.379 116.133 108.672 115.368 107.883 114.687C107.598 114.437 107.388 114.46 107.144 114.723C106.718 115.18 106.259 115.599 105.848 116.073C105.554 116.415 105.611 116.589 105.88 116.891C106.899 118.031 108.01 119.058 109.071 120.146C109.768 120.862 109.923 121.608 109.43 122.473C108.707 123.74 108.14 125.09 107.743 126.494C107.443 127.566 106.879 127.926 105.766 127.926C104.352 127.926 102.94 127.926 101.526 127.926C100.666 127.926 100.666 127.926 100.666 128.765C100.666 129.174 100.666 129.599 100.666 130.016C100.666 130.951 100.666 130.949 101.569 130.947C102.942 130.947 104.313 130.935 105.685 130.947C106.852 130.947 107.49 131.383 107.767 132.491C108.095 133.802 108.735 134.97 109.271 136.187C109.882 137.56 109.829 137.995 108.784 139.051C107.79 140.059 106.791 141.063 105.778 142.053C105.495 142.329 105.454 142.516 105.778 142.802C106.26 143.243 106.713 143.714 107.136 144.211C107.453 144.575 107.669 144.536 107.985 144.211C109.008 143.144 110.047 142.091 111.101 141.053C111.977 140.19 112.67 140.108 113.738 140.707C114.857 141.348 116.051 141.849 117.291 142.199C118.608 142.556 119.021 143.182 118.995 144.557C118.968 145.989 118.995 147.437 118.972 148.875C118.972 149.251 119.093 149.396 119.476 149.382C120.16 149.355 120.847 149.357 121.534 149.367C121.892 149.367 122.033 149.288 122.023 148.868C121.982 147.304 121.986 145.739 121.994 144.174C121.994 143.176 122.504 142.493 123.435 142.231C124.776 141.871 126.068 141.351 127.286 140.683C128.354 140.084 128.969 140.194 129.856 141.063C130.897 142.086 131.932 143.109 132.935 144.17C133.273 144.526 133.471 144.633 133.831 144.193C134.254 143.705 134.709 143.246 135.192 142.818C135.488 142.544 135.496 142.354 135.192 142.062C134.208 141.135 133.226 140.204 132.297 139.223C130.993 137.844 131.184 137.108 131.769 136.04C132.416 134.899 132.922 133.682 133.275 132.418C133.56 131.346 134.066 130.961 135.182 130.953C135.883 130.953 136.59 130.957 137.297 130.957Z" fill="#F5821F"/>
<path d="M157.992 79.1528C157.992 80.2388 158.012 81.3229 157.992 82.4069C157.963 83.6116 157.213 84.3377 156.011 84.3418C154.328 84.3418 152.645 84.3541 150.962 84.3275C150.589 84.3275 150.405 84.4175 150.287 84.7856C150.112 85.2983 149.905 85.7991 149.666 86.2849C149.578 86.4232 149.546 86.5902 149.576 86.7515C149.607 86.9128 149.698 87.0561 149.831 87.1521C151.029 88.3057 152.195 89.492 153.358 90.6803C154.318 91.658 154.301 92.5804 153.323 93.5622C151.879 95.0117 150.433 96.4543 148.985 97.8902C147.921 98.9415 146.968 98.9231 145.914 97.8574C144.773 96.7018 143.624 95.5544 142.491 94.3804C142.253 94.1349 142.063 94.0695 141.737 94.2372C141.239 94.4955 140.721 94.713 140.188 94.8876C139.834 95.0001 139.754 95.1862 139.759 95.5237C139.777 97.16 139.777 98.7779 139.777 100.406C139.777 101.999 139.166 102.625 137.603 102.631C135.627 102.639 133.652 102.639 131.677 102.631C130.139 102.631 129.485 101.975 129.47 100.416C129.456 98.9128 129.423 97.4095 129.485 95.9164C129.513 95.2455 129.218 94.9244 128.686 94.6892C128.231 94.4847 127.74 94.3906 127.274 94.2208C126.88 94.0776 126.495 94.5317 126.265 94.8201C125.592 95.6077 124.865 96.3471 124.089 97.0332C123.461 97.6243 122.994 98.5345 121.947 98.5897C121.383 98.6204 120.871 98.5447 120.458 98.1233C118.95 96.5975 117.423 95.0901 115.94 93.5418C114.921 92.4823 114.962 91.5987 115.999 90.5535C117.144 89.4027 118.299 88.2586 119.463 87.1214C119.74 86.8494 119.834 86.6162 119.638 86.2481C119.366 85.7329 119.124 85.2022 118.913 84.6588C118.785 84.3254 118.542 84.3786 118.302 84.3786H113.375C112.046 84.3786 111.288 83.6259 111.284 82.2944C111.276 80.185 111.272 78.0776 111.274 75.9722C111.274 74.7164 111.985 73.9924 113.242 73.9842C114.905 73.9842 116.568 73.9719 118.23 73.9985C118.654 73.9985 118.872 73.8758 119.005 73.4667C119.164 72.9707 119.363 72.4885 119.6 72.0247C119.789 71.6566 119.708 71.4357 119.424 71.1596C118.277 70.0408 117.15 68.9097 116.024 67.7581C114.944 66.6598 114.952 65.7128 116.038 64.6267C117.434 63.2257 118.825 61.8164 120.233 60.4297C121.324 59.3559 122.161 59.364 123.239 60.4297C124.374 61.5607 125.513 62.6898 126.626 63.8434C126.954 64.1829 127.237 64.2524 127.644 64.0111C128.063 63.7779 128.505 63.5907 128.963 63.4527C129.124 63.4213 129.267 63.3283 129.362 63.1933C129.457 63.0583 129.495 62.8918 129.47 62.7286C129.452 61.1435 129.46 59.5583 129.46 57.9712C129.46 56.3206 130.116 55.6722 131.775 55.6763C133.749 55.6763 135.724 55.6763 137.698 55.6763C139.072 55.6763 139.689 56.249 139.722 57.6296C139.763 59.317 139.771 61.0065 139.759 62.6959C139.759 63.1193 139.877 63.332 140.288 63.4629C140.801 63.6298 141.301 63.8349 141.784 64.0765C142.102 64.2299 142.293 64.1767 142.538 63.9231C143.697 62.7259 144.87 61.543 146.057 60.3744C147.076 59.3722 147.964 59.3743 148.979 60.3744C150.443 61.8253 151.898 63.2857 153.344 64.7556C154.363 65.7782 154.275 66.4839 153.327 67.5761C152.225 68.8483 150.915 69.9078 149.831 71.1943C149.727 71.2918 149.659 71.4215 149.638 71.5624C149.616 71.7034 149.643 71.8474 149.713 71.9716C149.921 72.4026 150.088 72.8525 150.212 73.3153C150.338 73.8492 150.619 73.9801 151.137 73.9699C152.767 73.9392 154.379 73.9699 156.001 73.9699C157.289 73.9699 157.99 74.6878 157.996 75.9886C157.996 77.0317 157.996 78.0749 157.996 79.118L157.992 79.1528ZM133.103 96.0105C133.103 96.845 133.116 97.6795 133.103 98.514C133.103 98.8494 133.181 99.0192 133.552 99.0069C134.257 98.9844 134.964 98.9742 135.671 98.9865C136.078 98.9865 136.193 98.829 136.186 98.4261C136.162 96.9248 136.17 95.4235 136.17 93.9263C136.17 92.7461 136.608 92.1509 137.751 91.8605C139.002 91.543 140.201 91.0492 141.313 90.394C142.408 89.7538 143.147 89.854 144.056 90.7519C145.118 91.8087 146.173 92.8729 147.221 93.9447C147.424 94.1492 147.526 94.2004 147.813 93.9836C148.445 93.5029 148.8 92.7563 149.48 92.333C149.819 92.1284 149.576 91.9239 149.391 91.7459C148.27 90.6292 147.149 89.5145 146.045 88.3793C145.718 88.0791 145.511 87.6704 145.461 87.2286C145.411 86.7869 145.522 86.3419 145.774 85.976C146.455 84.8254 146.977 83.5867 147.324 82.2944C147.693 80.969 148.125 80.6459 149.507 80.6377C150.933 80.6275 152.374 80.6213 153.808 80.6377C154.259 80.6377 154.45 80.5252 154.42 80.0425C154.385 79.4178 154.385 78.7916 154.42 78.1669C154.442 77.7046 154.291 77.5533 153.821 77.5533C152.449 77.586 151.078 77.5758 149.706 77.5758C148.111 77.5758 147.628 77.2629 147.261 75.6879C146.962 74.5392 146.498 73.4402 145.884 72.4256C145.246 71.3089 145.332 70.5255 146.232 69.6133C147.251 68.5763 148.28 67.5393 149.321 66.5207C149.605 66.2425 149.66 66.0646 149.336 65.768C148.847 65.3154 148.381 64.8375 147.942 64.3363C147.669 64.0315 147.494 64.0315 147.2 64.3363C146.181 65.3835 145.142 66.4 144.107 67.4268C143.127 68.4004 142.522 68.5108 141.332 67.8359C140.18 67.1688 138.941 66.6662 137.652 66.3428C136.651 66.0973 136.191 65.4612 136.225 64.4345C136.288 62.8718 136.215 61.3092 136.191 59.7465C136.191 59.409 136.06 59.3088 135.75 59.3129C135.086 59.3443 134.421 59.3409 133.758 59.3027C133.169 59.2515 133.075 59.4949 133.085 60.0124C133.116 61.5117 133.101 63.0129 133.152 64.5122C133.166 64.9659 133.017 65.4095 132.733 65.7626C132.449 66.1157 132.048 66.3549 131.604 66.4368C130.291 66.6925 129.134 67.3061 127.981 67.9197C126.774 68.5599 126.167 68.5149 125.201 67.5618C124.235 66.6087 123.213 65.5983 122.255 64.5858C121.864 64.1767 121.593 64.0602 121.187 64.5694C120.815 65.016 120.406 65.43 119.964 65.8069C119.64 66.0932 119.624 66.2957 119.946 66.6107C121.075 67.7193 122.188 68.8442 123.284 69.9855C123.895 70.6196 124.017 71.4173 123.581 72.17C122.87 73.4429 122.312 74.7962 121.919 76.2013C121.597 77.271 121.205 77.5472 120.085 77.6044C119.981 77.6044 119.881 77.6044 119.773 77.6044C118.318 77.6167 116.863 77.6453 115.408 77.631C114.97 77.631 114.817 77.7619 114.848 78.1996C114.885 78.7396 114.876 79.2816 114.882 79.8359C114.882 80.654 114.882 80.654 115.742 80.654C117.114 80.654 118.485 80.654 119.856 80.6684C121.049 80.6847 121.69 81.2206 121.98 82.3783C122.277 83.5521 122.735 84.6788 123.341 85.7265C124.091 87.0294 124.011 87.6675 122.96 88.7209C121.959 89.7231 120.969 90.7356 119.958 91.7255C119.665 92.0118 119.651 92.1837 119.977 92.468C120.47 92.9175 120.938 93.3941 121.379 93.8956C121.648 94.1881 121.809 94.2167 122.116 93.8956C123.18 92.7829 124.278 91.703 125.377 90.6231C126.173 89.852 126.905 89.7886 127.867 90.3122C128.902 90.8767 129.925 91.4719 131.1 91.7173C131.365 91.7713 131.626 91.8438 131.881 91.9341C132.637 92.2102 133.085 92.7338 133.103 93.5704C133.122 94.4069 133.103 95.1985 133.103 96.0105Z" fill="#F5821F"/>
<path d="M100.256 63.7901V34.7462C100.256 33.1631 101.491 32.3409 102.944 32.9688C105.688 34.1572 108.433 35.3578 111.19 36.5461C117.243 39.1669 123.302 41.7843 129.366 44.3982C129.904 44.6294 130.408 44.838 130.821 45.2777C131.506 46.0038 131.492 46.914 130.821 47.6503C130.006 48.5585 128.841 48.7262 127.834 49.2048C125.593 50.2725 123.29 51.2154 121.01 52.2033C118.565 53.2689 116.093 54.31 113.631 55.3592C110.575 56.6601 107.541 58.0182 104.488 59.3395C104.081 59.5195 103.954 59.7588 103.954 60.1924C103.972 71.0409 103.982 81.8887 103.983 92.7359C103.983 93.8445 103.321 94.7608 102.391 94.9101C101.222 95.0962 100.254 94.2433 100.254 93.0263V63.7901H100.256ZM124.9 46.462C124.729 46.3761 124.659 46.3372 124.588 46.3065C120.637 44.6191 116.682 42.9419 112.737 41.2402C109.991 40.058 107.255 38.8567 104.529 37.6363C104.083 37.4318 103.962 37.4829 103.962 37.982C103.973 43.6312 103.973 49.2812 103.962 54.9318C103.962 55.3756 104.015 55.531 104.513 55.3101C107.647 53.9255 110.795 52.5694 113.939 51.2072C117.558 49.6384 121.175 48.0799 124.9 46.462Z" fill="#F5821F"/>
<path d="M88.5253 42.0031C88.5253 36.0716 88.5477 30.1544 88.5111 24.2291C88.4988 22.5825 88.4031 20.936 88.4479 19.2895C88.6048 13.491 88.4846 7.69243 88.5233 1.90411C88.5233 0.515317 89.7948 -0.372365 91.0643 0.169652C94.6852 1.70162 98.2736 3.28676 101.878 4.83509C106.266 6.73317 110.652 8.63261 115.036 10.5334C116.258 11.0652 117.511 11.5009 118.669 12.1697C119.28 12.5297 119.669 13.0615 119.645 13.7262C119.635 14.0535 119.536 14.3719 119.358 14.6466C119.181 14.9214 118.932 15.1421 118.638 15.2848C117.843 15.6971 117.027 16.0671 116.193 16.3933C114.921 16.8883 113.691 17.4917 112.436 18.0296C107.61 20.1131 102.788 22.1939 97.968 24.272C96.2318 25.0226 94.5039 25.7917 92.7637 26.5342C92.5983 26.584 92.4549 26.689 92.357 26.8318C92.2592 26.9747 92.2129 27.1467 92.2258 27.3196C92.0933 31.0523 92.2523 34.7851 92.2441 38.5158C92.2441 43.7314 92.1279 48.947 92.1707 54.1586C92.187 56.0771 92.2135 57.9957 92.2686 59.9121C92.2967 60.3182 92.2124 60.7241 92.0251 61.0851C91.8377 61.4461 91.5546 61.748 91.2069 61.9575C90.2349 62.6079 88.6639 61.7693 88.5579 60.5257C88.5335 60.2353 88.5457 59.9408 88.5457 59.6503V41.999L88.5253 42.0031ZM92.1769 20.7315C92.1769 21.2674 92.1932 21.7071 92.1769 22.1428C92.1524 22.65 92.2991 22.7564 92.7882 22.5519C99.4174 19.6597 106.05 16.7758 112.686 13.9001C112.798 13.851 112.957 13.8305 112.961 13.6955C112.961 13.5094 112.778 13.491 112.652 13.4419C108.281 11.5588 103.918 9.67983 99.5614 7.80493C97.2914 6.8293 95.0113 5.87003 92.7576 4.85554C92.1891 4.59783 92.1626 4.76145 92.1646 5.26461C92.1646 9.47597 92.1381 13.6894 92.2584 17.9008C92.2849 18.8805 92.0994 19.8541 92.1769 20.7376V20.7315Z" fill="#F5821F"/>
<path d="M65.9659 74.2603C65.8273 74.0906 65.6317 74.1192 65.4524 74.1294C64.3337 74.1887 63.2109 73.9801 62.0923 74.2501C61.9785 74.2005 61.8585 74.1667 61.7357 74.1499C60.4499 74.1499 59.1621 74.1969 57.8783 74.1376C57.1264 74.1028 56.7107 74.3687 56.3766 75.0375C56.0711 75.669 55.619 76.2175 55.0584 76.6372C54.4978 77.0568 53.845 77.3352 53.155 77.449C51.1017 77.7853 49.0092 77.8039 46.9502 77.5042C45.6703 77.3249 44.5046 76.6682 43.6855 75.6648C42.8664 74.6614 42.454 73.3851 42.5305 72.0902C42.6731 69.3699 44.7516 67.3 47.5065 67.0852C48.7515 66.9871 49.9966 67.0484 51.2416 67.0259C53.7011 66.983 55.5982 67.93 56.7189 70.2044C56.8636 70.4989 57.0877 70.4907 57.3404 70.4907C59.211 70.4907 61.0795 70.4907 62.9501 70.4907C63.0838 70.508 63.2196 70.4907 63.3447 70.4406C63.4699 70.3905 63.5802 70.3092 63.6654 70.2044C63.7509 70.5337 64.0179 70.4907 64.2604 70.4907H67.3373C68.3948 70.4907 69.4524 70.4907 70.5099 70.4907C71.5675 70.4907 71.9241 70.1021 71.9363 69.059L71.9485 66.3755C72.3805 66.0871 72.8675 66.3162 73.324 66.2242C74.087 66.0603 74.8279 65.8055 75.5308 65.4653C75.5002 67.0484 75.6755 68.6377 75.4432 70.2105C75.2684 71.2795 74.7281 72.254 73.9152 72.9665C73.1023 73.6791 72.0676 74.0852 70.9888 74.1151C69.5624 74.1437 68.1218 74.1253 66.6893 74.1253C66.4386 74.1294 66.186 74.0987 65.9659 74.2603ZM49.9008 73.9801C50.5855 73.9801 51.2722 74.0087 51.9548 73.9801C52.363 73.9678 52.7512 73.7993 53.0398 73.5092C53.3284 73.2191 53.4957 72.8293 53.5075 72.4195C53.5197 71.5359 52.9981 70.7832 52.2421 70.7525C50.7933 70.6891 49.3404 70.6421 47.8937 70.6891C46.8117 70.726 46.2004 71.4296 46.2289 72.397C46.2554 73.3215 46.9686 73.9576 48.0343 73.9862C48.6558 73.9924 49.2793 73.9781 49.9008 73.9781V73.9801Z" fill="#F5821F"/>
<path d="M26.7731 152.945C26.7405 152.875 26.4858 152.812 26.7873 152.74C28.23 152.407 29.6931 152.497 31.1541 152.495C34.8505 152.495 38.557 152.319 42.2411 152.532C49.9701 152.982 57.697 152.585 65.4239 152.748C65.6113 152.748 65.8559 152.648 65.9516 152.937C64.2033 153.002 62.455 152.994 60.7087 152.955C60.6974 152.934 60.6806 152.916 60.6599 152.903C60.6393 152.891 60.6156 152.884 60.5915 152.884C60.5674 152.884 60.5437 152.891 60.5231 152.903C60.5024 152.916 60.4856 152.934 60.4743 152.955H59.3332C59.2228 152.889 59.0968 152.855 58.9685 152.855C58.8401 152.855 58.7142 152.889 58.6037 152.955H56.0892C54.9781 152.818 53.8545 152.818 52.7434 152.955H49.3527C49.263 152.892 49.1563 152.859 49.047 152.859C48.9377 152.859 48.831 152.892 48.7414 152.955C48.4826 153.004 48.2162 152.996 47.9609 152.93C47.0242 152.835 46.0804 152.83 45.1428 152.916C44.6764 152.991 44.202 153.001 43.7327 152.947C43.7104 152.922 43.6832 152.903 43.6528 152.889C43.6225 152.876 43.5896 152.869 43.5565 152.869C43.5233 152.869 43.4905 152.876 43.4601 152.889C43.4298 152.903 43.4026 152.922 43.3802 152.947H41.2366C40.6538 152.765 40.0547 152.869 39.4658 152.875C38.6507 152.875 37.8357 152.761 37.0206 152.951H35.0074C34.9858 152.924 34.9585 152.902 34.9274 152.887C34.8964 152.873 34.8624 152.865 34.828 152.865C34.7936 152.865 34.7597 152.873 34.7287 152.887C34.6976 152.902 34.6703 152.924 34.6487 152.951H33.6299C33.5636 152.892 33.478 152.859 33.3894 152.859C33.3009 152.859 33.2153 152.892 33.149 152.951L26.7731 152.945Z" fill="#F5821F"/>
<path d="M6.0459 152.939C6.1865 152.675 6.43713 152.75 6.6572 152.75C10.3862 152.75 14.1145 152.75 17.8421 152.75C18.0458 152.75 18.3168 152.626 18.4228 152.955C15.3133 152.967 12.2038 152.984 9.09428 152.988C8.08358 152.984 7.06474 152.955 6.0459 152.939Z" fill="#F5821F"/>
<path d="M19.4312 152.949C19.4407 152.887 19.4742 152.83 19.5244 152.792C19.5746 152.754 19.6376 152.737 19.7001 152.744C20.3991 152.744 21.1 152.744 21.7989 152.744C21.8505 152.743 21.9013 152.758 21.9441 152.787C21.9868 152.816 22.0195 152.857 22.0374 152.906C21.1709 152.986 20.2997 153 19.4312 152.949Z" fill="#F5821F"/>
<path d="M37.0186 152.959C37.8336 152.769 38.6487 152.89 39.4638 152.884C40.0527 152.884 40.6517 152.773 41.2345 152.955C39.8353 153.008 38.43 153.01 37.0186 152.959Z" fill="#F5821F"/>
<path d="M23.7983 152.914C23.9838 152.603 24.2833 152.767 24.5258 152.755C25.0707 152.724 25.6175 152.753 26.1559 152.843L25.2471 152.9C24.7673 152.974 24.2795 152.978 23.7983 152.914Z" fill="#F5821F"/>
<path d="M52.7437 152.955C53.8548 152.818 54.9784 152.818 56.0895 152.955C54.9756 153.008 53.8603 153.008 52.7437 152.955Z" fill="#F5821F"/>
<path d="M45.1509 152.918C46.0885 152.832 47.0323 152.837 47.969 152.933C47.0301 152.983 46.0892 152.978 45.1509 152.918Z" fill="#F5821F"/>
<path d="M58.604 152.959C58.7144 152.893 58.8404 152.859 58.9688 152.859C59.0971 152.859 59.2231 152.893 59.3335 152.959H58.604Z" fill="#F5821F"/>
<path d="M48.7495 152.957C48.8391 152.894 48.9458 152.861 49.0552 152.861C49.1645 152.861 49.2712 152.894 49.3608 152.957H48.7495Z" fill="#F5821F"/>
<path d="M18.8057 152.951C18.8199 152.877 18.8342 152.793 18.9279 152.793C19.0217 152.793 19.0359 152.877 19.0502 152.951H18.8057Z" fill="#F5821F"/>
<path d="M33.1572 152.957C33.2236 152.898 33.3091 152.865 33.3977 152.865C33.4863 152.865 33.5718 152.898 33.6381 152.957H33.1572Z" fill="#F5821F"/>
<path d="M34.6528 152.959C34.6744 152.932 34.7017 152.911 34.7328 152.896C34.7638 152.881 34.7977 152.873 34.8321 152.873C34.8665 152.873 34.9005 152.881 34.9315 152.896C34.9626 152.911 34.9899 152.932 35.0115 152.959H34.6528Z" fill="#F5821F"/>
<path d="M43.3882 152.951C43.4105 152.926 43.4377 152.907 43.4681 152.893C43.4984 152.88 43.5313 152.873 43.5644 152.873C43.5976 152.873 43.6304 152.88 43.6608 152.893C43.6911 152.907 43.7184 152.926 43.7407 152.951H43.3882Z" fill="#F5821F"/>
<path d="M60.4746 152.957C60.4859 152.936 60.5027 152.918 60.5234 152.905C60.544 152.893 60.5677 152.886 60.5918 152.886C60.6159 152.886 60.6395 152.893 60.6602 152.905C60.6808 152.918 60.6977 152.936 60.7089 152.957H60.4746Z" fill="#F5821F"/>
<path d="M25.5301 149.417C26.659 149.357 27.7879 149.361 28.9188 149.417C29.3233 149.572 29.7556 149.642 30.1883 149.621C36.3564 149.566 42.5244 149.74 48.6905 149.496C48.8739 149.496 49.0674 149.543 49.2304 149.408H49.8723C49.9497 149.506 50.0272 149.504 50.1067 149.408H50.8749C50.8863 149.429 50.9031 149.447 50.9235 149.459C50.9439 149.471 50.9673 149.477 50.991 149.477C51.0148 149.477 51.0381 149.471 51.0585 149.459C51.0789 149.447 51.0957 149.429 51.1072 149.408H51.5004C51.7877 149.408 52.0771 149.834 52.3644 149.408H52.611C52.6965 149.701 52.939 149.613 53.1285 149.613C56.3155 149.613 59.5031 149.613 62.6914 149.613C62.8809 149.613 63.1234 149.705 63.2171 149.421C64.3799 149.361 65.5449 149.361 66.7077 149.421C66.6506 149.74 66.8401 149.856 67.105 149.94C67.266 149.993 67.5513 149.981 67.5125 150.231C67.4738 150.48 67.215 150.478 67.0052 150.486C66.4489 150.507 65.8865 150.57 65.3383 150.578C64.1341 150.597 62.9298 150.715 61.7174 150.644C61.1061 150.607 60.4948 150.744 59.8651 150.742C57.5605 150.742 55.2538 150.768 52.9492 150.728C51.4556 150.701 49.9599 150.49 48.4663 150.509C46.6813 150.533 44.8963 150.773 43.1092 150.809C41.1959 150.852 39.2804 150.748 37.365 150.746C36.1852 150.746 34.9931 150.928 33.8235 150.83C31.8673 150.666 29.8969 150.83 27.9489 150.505C26.795 150.341 25.6247 150.332 24.4685 150.478C23.8572 150.537 23.2235 150.488 22.5999 150.488C21.6871 150.488 21.5281 150.349 21.3916 149.443L21.4099 149.457C21.7054 149.482 22.0029 149.554 22.2902 149.414H22.9443C23.3424 149.539 23.7688 149.539 24.1669 149.414H25.1858C25.2077 149.438 25.2343 149.457 25.2638 149.47C25.2934 149.483 25.3253 149.49 25.3575 149.49C25.3898 149.49 25.4217 149.484 25.4514 149.471C25.4811 149.459 25.5079 149.44 25.5301 149.417Z" fill="#F5821F"/>
<path d="M24.5745 48.17C24.87 48.4318 24.6723 48.892 24.9821 49.1927C25.2898 48.5648 25.2103 47.8366 25.6178 47.2803C25.5465 48.0984 25.2653 48.8777 25.0778 49.6733C25.0452 49.8063 25.0208 49.9863 24.817 49.9392C24.6703 49.9045 24.654 49.7551 24.6703 49.6345C24.7314 49.1395 24.4543 48.667 24.5745 48.17Z" fill="#F5821F"/>
<path d="M68.2768 66.717C68.225 67.463 68.0292 68.1917 67.7001 68.8626C67.6637 68.8327 67.6336 68.7959 67.6115 68.7543C67.5893 68.7127 67.5756 68.6672 67.571 68.6202C67.5665 68.5733 67.5712 68.5259 67.585 68.4808C67.5987 68.4357 67.6212 68.3938 67.6512 68.3574C67.9426 67.842 67.8387 67.1752 68.2768 66.717Z" fill="#F5821F"/>
<path d="M24.2955 42.5718C24.4065 43.1927 24.4065 43.8285 24.2955 44.4494C24.0948 43.8397 24.0948 43.1814 24.2955 42.5718Z" fill="#F5821F"/>
<path d="M24.4092 39.9436C24.5111 40.3834 24.56 40.819 24.3358 41.2383C24.2808 40.8026 24.1911 40.3649 24.4092 39.9436Z" fill="#F5821F"/>
<path d="M24.3341 45.2839C24.5603 45.6153 24.5196 45.9691 24.4177 46.3271C24.1813 45.9957 24.2913 45.6378 24.3341 45.2839Z" fill="#F5821F"/>
<path d="M25.6708 47.0777C25.6468 46.8723 25.6654 46.6642 25.7253 46.4664C25.7853 46.2686 25.8854 46.0853 26.0193 45.9282C25.9967 46.3339 25.8772 46.7282 25.6708 47.0777Z" fill="#F5821F"/>
<path d="M24.4808 47.2168C24.5591 47.297 24.6073 47.4019 24.6173 47.5137C24.6274 47.6256 24.5986 47.7374 24.5358 47.8304C24.4605 47.7485 24.4143 47.644 24.4044 47.533C24.3944 47.422 24.4213 47.3108 24.4808 47.2168Z" fill="#F5821F"/>
<path d="M25.2002 36.1616C25.2187 36.2879 25.2066 36.4168 25.1652 36.5374C25.1237 36.6581 25.0539 36.767 24.9618 36.855C24.9424 36.7287 24.9539 36.5995 24.9955 36.4787C25.037 36.3578 25.1073 36.249 25.2002 36.1616Z" fill="#F5821F"/>
<path d="M26.384 44.8504C26.3168 44.7032 26.384 44.6091 26.5063 44.5396C26.5309 44.5971 26.5319 44.662 26.509 44.7203C26.4861 44.7785 26.4412 44.8253 26.384 44.8504Z" fill="#F5821F"/>
<path d="M24.5274 38.8186C24.6435 38.9413 24.5743 39.0231 24.4744 39.1193C24.4566 39.0966 24.4438 39.0705 24.4368 39.0425C24.4298 39.0145 24.4288 38.9854 24.4338 38.957C24.4388 38.9286 24.4497 38.9016 24.4658 38.8778C24.482 38.8539 24.503 38.8337 24.5274 38.8186Z" fill="#F5821F"/>
<path d="M24.6541 38.1907C24.7723 38.3216 24.6867 38.4054 24.5849 38.4832C24.556 38.435 24.547 38.3774 24.56 38.3227C24.573 38.268 24.6067 38.2206 24.6541 38.1907Z" fill="#F5821F"/>
<path d="M24.7803 37.5647C24.9005 37.6976 24.821 37.7815 24.711 37.8592C24.6949 37.8357 24.684 37.8091 24.6788 37.7811C24.6735 37.7531 24.6742 37.7243 24.6807 37.6966C24.6873 37.6689 24.6995 37.6428 24.7166 37.6201C24.7338 37.5974 24.7554 37.5785 24.7803 37.5647Z" fill="#F5821F"/>
<path d="M24.9066 37.0637C25.0207 37.2008 24.9412 37.2805 24.8251 37.3501C24.8109 37.3261 24.8017 37.2995 24.7981 37.2718C24.7945 37.2441 24.7966 37.216 24.8042 37.1892C24.8119 37.1624 24.8249 37.1374 24.8425 37.1159C24.8601 37.0943 24.8819 37.0765 24.9066 37.0637Z" fill="#F5821F"/>
<path d="M25.6078 35.2903C25.6211 35.3528 25.611 35.418 25.5794 35.4734C25.5478 35.5289 25.497 35.5707 25.4366 35.5909C25.4204 35.5604 25.4121 35.5263 25.4126 35.4917C25.4131 35.4571 25.4223 35.4232 25.4394 35.3932C25.4565 35.3631 25.481 35.3379 25.5104 35.3199C25.5398 35.3019 25.5733 35.2917 25.6078 35.2903Z" fill="#F5821F"/>
<path d="M25.8115 34.9099C25.8277 34.9372 25.8368 34.9681 25.8381 34.9998C25.8394 35.0315 25.8327 35.063 25.8187 35.0914C25.8047 35.1199 25.7839 35.1444 25.7581 35.1627C25.7323 35.181 25.7023 35.1926 25.6709 35.1963C25.6551 35.1395 25.6607 35.079 25.6867 35.0261C25.7126 34.9733 25.7571 34.9319 25.8115 34.9099Z" fill="#F5821F"/>
<path d="M21.1409 149.435H21.1918C21.1551 149.478 21.1205 149.523 21.0818 149.564C21.0818 149.564 21.0553 149.564 21.041 149.548L21.1409 149.435Z" fill="#F5821F"/>
<path d="M49.2306 149.406C49.0676 149.541 48.874 149.486 48.6906 149.494C42.5246 149.738 36.3565 149.564 30.1884 149.619C29.7557 149.64 29.3234 149.57 28.9189 149.414C29.3265 149.414 29.7462 149.384 30.1619 149.384C36.332 149.384 42.5028 149.384 48.6743 149.384C48.8597 149.376 49.0411 149.396 49.2306 149.406Z" fill="#F5821F"/>
<path d="M63.2131 149.421C63.1193 149.705 62.8769 149.613 62.6874 149.613C59.5004 149.613 56.3128 149.613 53.1245 149.613C52.935 149.613 52.6925 149.703 52.6069 149.408C55.5018 149.4 58.3967 149.392 61.2915 149.384C61.9334 149.384 62.5732 149.408 63.2131 149.421Z" fill="#F5821F"/>
<path d="M24.1547 149.419C23.7567 149.543 23.3302 149.543 22.9321 149.419C23.3376 149.361 23.7492 149.361 24.1547 149.419Z" fill="#F5821F"/>
<path d="M52.3606 149.412C52.0733 149.836 51.7839 149.412 51.4966 149.412C51.7823 149.361 52.0748 149.361 52.3606 149.412Z" fill="#F5821F"/>
<path d="M22.2821 149.421C21.9948 149.56 21.6973 149.488 21.4019 149.464C21.6892 149.324 21.9867 149.388 22.2821 149.421Z" fill="#F5821F"/>
<path d="M25.5302 149.417C25.5081 149.441 25.4809 149.461 25.4505 149.475C25.4202 149.489 25.3873 149.496 25.354 149.496C25.3207 149.496 25.2878 149.489 25.2574 149.475C25.2271 149.461 25.1999 149.441 25.1777 149.417H25.5302Z" fill="#F5821F"/>
<path d="M50.1069 149.408C50.0274 149.503 49.95 149.505 49.8726 149.408H50.1069Z" fill="#F5821F"/>
<path d="M51.1029 149.41C51.0915 149.431 51.0747 149.449 51.0542 149.461C51.0338 149.473 51.0105 149.479 50.9867 149.479C50.963 149.479 50.9397 149.473 50.9193 149.461C50.8988 149.449 50.882 149.431 50.8706 149.41H51.1029Z" fill="#F5821F"/>
<path d="M120.466 139.116C115.066 139.147 111.052 134.76 110.935 130.094C110.779 123.776 115.457 119.957 120.661 119.986C125.768 120.017 129.959 124.208 130.035 129.433C130.108 134.821 125.845 139.098 120.466 139.116ZM126.375 129.609C126.485 126.132 123.569 123.692 120.696 123.59C119.129 123.56 117.614 124.155 116.484 125.246C115.354 126.337 114.703 127.834 114.673 129.407C114.642 130.98 115.236 132.501 116.323 133.635C117.409 134.768 118.901 135.423 120.468 135.453C122.021 135.46 123.514 134.849 124.619 133.754C125.724 132.659 126.352 131.168 126.365 129.609H126.375Z" fill="#F5821F"/>
<path d="M144.158 78.9975C144.158 84.4381 139.964 88.7558 134.721 88.7415C128.93 88.7272 125.106 84.1681 125.13 79.1038C125.154 73.8125 129.24 69.5234 134.744 69.5541C140.358 69.5868 144.362 74.5182 144.158 78.9975ZM140.561 79.2572C140.567 78.4764 140.42 77.7021 140.127 76.9785C139.835 76.2549 139.403 75.5962 138.857 75.04C138.311 74.4838 137.662 74.041 136.945 73.7369C136.229 73.4327 135.46 73.2732 134.682 73.2674C133.904 73.2617 133.132 73.4098 132.411 73.7032C131.691 73.9967 131.034 74.4298 130.48 74.9778C129.926 75.5259 129.485 76.1781 129.182 76.8973C128.879 77.6164 128.72 78.3885 128.714 79.1693C128.694 82.3723 131.373 85.1581 134.509 85.1744C137.845 85.1908 140.464 82.4623 140.561 79.2572Z" fill="#F5821F"/>
</g>
<defs>
<clipPath id="clip0_1127_2579">
<rect width="158" height="153" fill="white"/>
</clipPath>
</defs>
</svg>
