<svg width="279" height="279" viewBox="0 0 279 279" fill="none" xmlns="http://www.w3.org/2000/svg">
<path d="M121.812 188.657H103.788C103.381 188.657 102.99 188.496 102.701 188.209C102.413 187.922 102.249 187.532 102.247 187.125V177.293C98.5365 176.314 94.9803 174.823 91.6803 172.865L84.7628 179.8C84.6223 179.944 84.4542 180.058 84.2686 180.136C84.0829 180.213 83.8835 180.253 83.6823 180.252C83.4798 180.252 83.2791 180.213 83.0921 180.135C82.905 180.058 82.7353 179.944 82.5928 179.8L69.8474 167.081C69.5613 166.792 69.4007 166.402 69.4007 165.996C69.4007 165.59 69.5613 165.2 69.8474 164.911L76.7737 157.976C74.8139 154.673 73.3234 151.114 72.3451 147.4H62.6023C62.2036 147.389 61.8251 147.222 61.5473 146.936C61.2694 146.65 61.1141 146.267 61.1143 145.868V127.826C61.1143 127.625 61.1539 127.426 61.2309 127.24C61.3079 127.054 61.4208 126.885 61.5631 126.743C61.7053 126.6 61.8743 126.488 62.0602 126.411C62.2461 126.334 62.4453 126.294 62.6465 126.294H72.3894C73.3684 122.564 74.8587 118.987 76.818 115.665L69.8917 108.739C69.6056 108.45 69.445 108.06 69.445 107.654C69.445 107.248 69.6056 106.858 69.8917 106.569L82.5928 93.8856C82.8837 93.6006 83.275 93.4415 83.6823 93.4428C83.8835 93.4415 84.0829 93.4809 84.2686 93.5585C84.4542 93.6362 84.6223 93.7504 84.7628 93.8945L91.6803 100.821C94.9815 98.8646 98.5374 97.3743 102.247 96.3922V86.605C102.249 86.1978 102.413 85.8081 102.701 85.521C102.99 85.2339 103.381 85.0727 103.788 85.0728H121.803C122.209 85.0751 122.597 85.2373 122.884 85.5241C123.171 85.811 123.333 86.1994 123.336 86.605V96.401C127.049 97.3813 130.608 98.8717 133.911 100.83L140.829 93.8856C141.12 93.6022 141.511 93.4434 141.918 93.4428C142.118 93.4419 142.317 93.4805 142.502 93.5565C142.688 93.6325 142.856 93.7444 142.999 93.8856L155.744 106.64C155.887 106.782 156 106.951 156.077 107.138C156.155 107.324 156.194 107.523 156.194 107.725C156.194 107.926 156.155 108.126 156.077 108.312C156 108.498 155.887 108.668 155.744 108.81L148.8 115.71C150.747 119.032 152.222 122.609 153.184 126.338H162.971C163.377 126.341 163.765 126.503 164.052 126.79C164.339 127.076 164.501 127.465 164.504 127.87V145.912C164.501 146.318 164.339 146.707 164.052 146.993C163.765 147.28 163.377 147.442 162.971 147.445H153.229C152.246 151.143 150.756 154.687 148.8 157.976L155.726 164.911C155.869 165.053 155.982 165.222 156.06 165.409C156.137 165.595 156.177 165.794 156.177 165.996C156.177 166.198 156.137 166.397 156.06 166.583C155.982 166.77 155.869 166.939 155.726 167.081L142.999 179.8C142.858 179.944 142.69 180.058 142.504 180.136C142.319 180.213 142.119 180.253 141.918 180.252C141.716 180.252 141.515 180.212 141.328 180.135C141.141 180.057 140.971 179.943 140.829 179.8L133.911 172.874C130.608 174.826 127.053 176.316 123.345 177.302V187.098C123.347 187.301 123.309 187.503 123.233 187.691C123.157 187.88 123.045 188.051 122.903 188.196C122.76 188.341 122.591 188.456 122.403 188.535C122.216 188.615 122.015 188.656 121.812 188.657ZM105.311 185.557H120.28V176.089C120.277 175.741 120.394 175.403 120.61 175.131C120.826 174.859 121.128 174.669 121.467 174.592C125.668 173.626 129.677 171.962 133.327 169.667C133.621 169.483 133.97 169.403 134.316 169.442C134.661 169.48 134.984 169.635 135.231 169.88L141.918 176.576L152.493 166L145.797 159.296C145.552 159.049 145.398 158.726 145.359 158.381C145.321 158.035 145.4 157.686 145.585 157.391C147.877 153.739 149.539 149.727 150.501 145.523C150.577 145.183 150.767 144.879 151.039 144.662C151.311 144.445 151.649 144.327 151.997 144.327H161.448V129.367H151.997C151.65 129.366 151.312 129.247 151.041 129.03C150.769 128.813 150.579 128.511 150.501 128.172C149.541 123.962 147.879 119.943 145.585 116.285C145.401 115.992 145.322 115.645 145.36 115.3C145.399 114.956 145.553 114.635 145.797 114.39L152.493 107.694L141.918 97.1185L135.231 103.806C134.986 104.054 134.664 104.211 134.318 104.251C133.971 104.291 133.622 104.212 133.327 104.027C129.673 101.732 125.662 100.064 121.458 99.0936C121.12 99.0187 120.818 98.8301 120.602 98.5593C120.386 98.2886 120.269 97.952 120.271 97.6056V88.1373H105.311V97.6056C105.314 97.952 105.197 98.2886 104.981 98.5593C104.765 98.8301 104.463 99.0187 104.125 99.0936C99.9217 100.067 95.9105 101.734 92.256 104.027C91.9616 104.21 91.6138 104.288 91.2696 104.247C90.9253 104.207 90.6049 104.051 90.3605 103.806L83.6823 97.1185L73.1068 107.694L79.794 114.39C80.0391 114.636 80.1942 114.958 80.2344 115.304C80.2746 115.649 80.1974 115.998 80.0154 116.294C77.7126 119.946 76.0473 123.962 75.0908 128.172C75.0129 128.511 74.8225 128.813 74.5508 129.03C74.279 129.247 73.9418 129.366 73.594 129.367H64.1345V144.371H73.594C73.9422 144.371 74.2802 144.489 74.5523 144.706C74.8244 144.924 75.0143 145.227 75.0908 145.567C76.0444 149.773 77.7067 153.787 80.0065 157.436C80.1912 157.73 80.2708 158.079 80.2322 158.425C80.1936 158.771 80.0391 159.093 79.794 159.34L73.098 166.045L83.7265 176.62L90.3428 169.88C90.5882 169.635 90.9092 169.481 91.2534 169.443C91.5977 169.404 91.9448 169.483 92.2383 169.667C95.8893 171.965 99.9018 173.63 104.107 174.592C104.446 174.669 104.748 174.859 104.964 175.131C105.18 175.403 105.296 175.741 105.294 176.089L105.311 185.557Z" fill="#F5821F"/>
<path d="M112.796 166.718C106.886 166.723 101.107 164.976 96.1908 161.696C91.2744 158.417 87.4411 153.753 85.1758 148.294C82.9105 142.836 82.3151 136.828 83.4649 131.031C84.6146 125.234 87.4578 119.908 91.6349 115.727C95.8119 111.547 101.135 108.699 106.931 107.544C112.727 106.389 118.735 106.979 124.196 109.239C129.656 111.5 134.324 115.329 137.608 120.242C140.892 125.156 142.644 130.933 142.644 136.843C142.64 144.76 139.494 152.352 133.898 157.953C128.302 163.554 120.713 166.706 112.796 166.718ZM112.796 110.032C107.491 110.025 102.304 111.592 97.8901 114.534C93.4762 117.476 90.0343 121.662 87.9999 126.56C85.9655 131.459 85.4301 136.852 86.4613 142.055C87.4925 147.258 90.044 152.039 93.793 155.791C97.542 159.544 102.32 162.1 107.522 163.137C112.725 164.173 118.117 163.643 123.018 161.613C127.919 159.584 132.108 156.146 135.054 151.735C138.001 147.324 139.573 142.139 139.571 136.834C139.564 129.733 136.741 122.925 131.722 117.903C126.703 112.88 119.896 110.053 112.796 110.041V110.032Z" fill="#F5821F"/>
<path d="M192.103 114.364H181.474C181.273 114.365 181.073 114.326 180.886 114.249C180.7 114.173 180.531 114.06 180.388 113.917C180.245 113.775 180.133 113.605 180.056 113.419C179.979 113.233 179.941 113.033 179.942 112.831V107.517C178.026 106.976 176.18 106.212 174.442 105.241L170.695 108.978C170.552 109.122 170.382 109.236 170.195 109.313C170.008 109.391 169.808 109.43 169.606 109.43C169.2 109.429 168.811 109.266 168.525 108.978L161.014 101.459C160.729 101.172 160.568 100.783 160.568 100.378C160.568 99.9731 160.729 99.5846 161.014 99.2975L164.743 95.5687C163.775 93.8261 163.011 91.9774 162.467 90.0595H157.152C156.747 90.0572 156.358 89.895 156.071 89.6082C155.785 89.3213 155.622 88.9329 155.62 88.5272V77.8987C155.622 77.493 155.785 77.1046 156.071 76.8177C156.358 76.5309 156.747 76.3687 157.152 76.3664H162.467C163.014 74.4496 163.778 72.6013 164.743 70.8572L161.005 67.1195C160.719 66.8309 160.559 66.4409 160.559 66.0345C160.559 65.6281 160.719 65.2381 161.005 64.9495L168.516 57.4298C168.658 57.2871 168.828 57.1738 169.014 57.0965C169.2 57.0193 169.4 56.9795 169.601 56.9795C169.803 56.9795 170.002 57.0193 170.188 57.0965C170.375 57.1738 170.544 57.2871 170.686 57.4298L174.486 61.1587C176.219 60.1736 178.066 59.4032 179.986 58.8647V53.5504C179.985 53.3488 180.024 53.149 180.1 52.9626C180.177 52.7762 180.29 52.6068 180.432 52.4643C180.575 52.3217 180.744 52.2089 180.931 52.1323C181.117 52.0557 181.317 52.0169 181.518 52.0181H192.147C192.349 52.0169 192.548 52.0557 192.735 52.1323C192.921 52.2089 193.091 52.3217 193.233 52.4643C193.376 52.6068 193.488 52.7762 193.565 52.9626C193.642 53.149 193.68 53.3488 193.679 53.5504V58.8647C195.601 59.4048 197.451 60.175 199.188 61.1587L202.926 57.4121C203.067 57.2688 203.235 57.1551 203.421 57.0776C203.607 57 203.806 56.9602 204.007 56.9604C204.208 56.9602 204.407 57 204.592 57.0776C204.778 57.1551 204.946 57.2688 205.087 57.4121L212.572 64.9318C212.858 65.2204 213.018 65.6104 213.018 66.0168C213.018 66.4232 212.858 66.8132 212.572 67.1018L208.825 70.8572C209.8 72.5944 210.568 74.4406 211.11 76.3575H216.424C216.83 76.3598 217.218 76.522 217.505 76.8089C217.792 77.0957 217.954 77.4841 217.957 77.8898V88.5184C217.954 88.9241 217.792 89.3124 217.505 89.5993C217.218 89.8862 216.83 90.0483 216.424 90.0507H211.11C210.572 91.9721 209.805 93.8219 208.825 95.5598L212.572 99.3064C212.857 99.5935 213.017 99.982 213.017 100.387C213.017 100.792 212.857 101.18 212.572 101.468L205.052 108.987C204.911 109.13 204.743 109.244 204.557 109.322C204.371 109.399 204.172 109.439 203.971 109.439C203.769 109.44 203.568 109.4 203.381 109.323C203.194 109.245 203.024 109.131 202.882 108.987L199.144 105.25C197.403 106.221 195.554 106.985 193.635 107.526V112.84C193.635 113.041 193.595 113.24 193.518 113.425C193.441 113.611 193.328 113.779 193.186 113.92C193.043 114.062 192.874 114.174 192.688 114.25C192.503 114.326 192.303 114.365 192.103 114.364ZM183.015 111.299H190.57V106.339C190.572 105.991 190.69 105.654 190.907 105.382C191.125 105.11 191.427 104.92 191.766 104.842C194.176 104.288 196.477 103.339 198.577 102.034C198.87 101.849 199.218 101.769 199.562 101.807C199.907 101.846 200.228 102.001 200.473 102.247L203.971 105.79L209.286 100.476L205.787 96.9769C205.542 96.7301 205.387 96.4076 205.349 96.0619C205.31 95.7161 205.39 95.3675 205.574 95.0727C206.89 92.9762 207.845 90.6739 208.4 88.2615C208.461 87.905 208.647 87.5817 208.924 87.3497C209.202 87.1176 209.553 86.9919 209.914 86.995H214.857V79.4221H209.914C209.567 79.423 209.23 79.3061 208.958 79.0905C208.686 78.8749 208.496 78.5733 208.418 78.2352C207.862 75.8204 206.907 73.5153 205.592 71.4152C205.407 71.1204 205.328 70.7718 205.366 70.426C205.405 70.0803 205.56 69.7578 205.805 69.511L209.303 66.0212L203.989 60.6627L200.49 64.2055C200.244 64.4507 199.921 64.6051 199.575 64.6437C199.23 64.6823 198.881 64.6028 198.586 64.4181C196.494 63.0995 194.194 62.1442 191.784 61.5927C191.444 61.5162 191.141 61.3262 190.923 61.0541C190.706 60.7821 190.588 60.444 190.588 60.0958V55.1092H183.033V60.0604C183.034 60.4074 182.917 60.7445 182.701 61.0164C182.486 61.2883 182.184 61.479 181.846 61.5572C179.432 62.1072 177.129 63.0626 175.035 64.3827C174.742 64.5667 174.394 64.6458 174.05 64.6072C173.706 64.5686 173.385 64.4145 173.14 64.1701L169.597 60.6272L164.282 65.9858L167.781 69.4755C168.026 69.7224 168.181 70.0449 168.219 70.3906C168.258 70.7364 168.178 71.085 167.994 71.3798C166.686 73.4829 165.735 75.7871 165.177 78.1998C165.099 78.5379 164.908 78.8394 164.636 79.055C164.364 79.2707 164.027 79.3876 163.68 79.3867H158.738V86.9595H163.68C164.028 86.957 164.365 87.0733 164.638 87.2892C164.91 87.5051 165.1 87.8075 165.177 88.1464C165.733 90.5568 166.685 92.8584 167.994 94.9575C168.179 95.2505 168.259 95.598 168.221 95.9426C168.182 96.2873 168.027 96.6084 167.781 96.8529L164.282 100.396L169.597 105.71L173.14 102.167C173.385 101.923 173.706 101.769 174.05 101.73C174.394 101.691 174.742 101.771 175.035 101.955C177.133 103.263 179.435 104.212 181.846 104.762C182.183 104.842 182.484 105.033 182.699 105.305C182.915 105.576 183.032 105.913 183.033 106.259L183.015 111.299Z" fill="#F5821F"/>
<path d="M186.797 97.3401C183.993 97.3489 181.248 96.5252 178.912 94.9733C176.576 93.4215 174.752 91.2113 173.673 88.6226C172.594 86.0339 172.307 83.1831 172.848 80.4312C173.39 77.6793 174.736 75.1501 176.717 73.1637C178.697 71.1774 181.222 69.8233 183.972 69.2729C186.722 68.7225 189.574 69.0005 192.166 70.0718C194.758 71.1431 196.974 72.9594 198.533 75.2909C200.092 77.6223 200.924 80.364 200.924 83.1687C200.924 86.9195 199.437 90.5174 196.789 93.1738C194.141 95.8302 190.548 97.3284 186.797 97.3401ZM186.797 72.1327C184.607 72.1309 182.466 72.7788 180.644 73.9942C178.822 75.2097 177.402 76.9382 176.562 78.9611C175.723 80.984 175.502 83.2104 175.929 85.3586C176.355 87.5068 177.409 89.4804 178.957 91.0297C180.505 92.5789 182.477 93.6342 184.625 94.0622C186.773 94.4901 189 94.2713 191.023 93.4336C193.047 92.5959 194.776 91.1769 195.993 89.356C197.21 87.5351 197.86 85.3942 197.86 83.2041C197.86 80.2693 196.695 77.4546 194.62 75.3786C192.546 73.3025 189.732 72.135 186.797 72.1327Z" fill="#F5821F"/>
<path d="M192.103 221.641H181.474C181.273 221.642 181.073 221.603 180.886 221.527C180.7 221.45 180.531 221.337 180.388 221.195C180.245 221.052 180.133 220.883 180.056 220.697C179.979 220.51 179.941 220.31 179.942 220.109V214.795C178.041 214.274 176.209 213.527 174.486 212.571L170.739 216.318C170.449 216.605 170.058 216.768 169.65 216.77C169.245 216.764 168.858 216.602 168.569 216.318L161.058 208.798C160.773 208.511 160.613 208.123 160.613 207.718C160.613 207.313 160.773 206.924 161.058 206.637L164.743 202.829C163.773 201.09 163.009 199.244 162.467 197.328H157.152C156.745 197.326 156.355 197.163 156.068 196.874C155.781 196.585 155.62 196.194 155.62 195.787V185.159C155.622 184.753 155.785 184.364 156.071 184.078C156.358 183.791 156.747 183.629 157.152 183.626H162.467C163.014 181.709 163.778 179.861 164.743 178.117L161.005 174.371C160.72 174.083 160.559 173.695 160.559 173.29C160.559 172.885 160.72 172.497 161.005 172.209L168.516 164.69C168.802 164.402 169.191 164.24 169.597 164.238C169.799 164.237 170 164.277 170.187 164.354C170.374 164.432 170.544 164.546 170.686 164.69L174.433 168.427C176.168 167.449 178.015 166.682 179.933 166.142V160.828C179.932 160.626 179.971 160.427 180.047 160.24C180.124 160.054 180.237 159.884 180.379 159.742C180.522 159.599 180.691 159.487 180.877 159.41C181.064 159.333 181.264 159.295 181.465 159.296H192.094C192.295 159.295 192.495 159.333 192.682 159.41C192.868 159.487 193.037 159.599 193.18 159.742C193.322 159.884 193.435 160.054 193.512 160.24C193.588 160.427 193.627 160.626 193.626 160.828V166.142C195.546 166.683 197.396 167.45 199.135 168.427L202.873 164.69C203.014 164.546 203.182 164.433 203.368 164.355C203.553 164.278 203.752 164.238 203.954 164.238C204.155 164.238 204.354 164.278 204.539 164.355C204.725 164.433 204.893 164.546 205.034 164.69L212.554 172.209C212.839 172.497 213 172.885 213 173.29C213 173.695 212.839 174.083 212.554 174.371L208.807 178.117C209.781 179.858 210.548 181.707 211.092 183.626H216.407C216.812 183.629 217.201 183.791 217.488 184.078C217.774 184.364 217.937 184.753 217.939 185.159V195.787C217.939 196.194 217.778 196.585 217.491 196.874C217.204 197.163 216.814 197.326 216.407 197.328H211.092C210.554 199.247 209.787 201.094 208.807 202.829L212.554 206.584C212.839 206.871 213 207.26 213 207.665C213 208.069 212.839 208.458 212.554 208.745L205.034 216.265C204.747 216.551 204.359 216.713 203.954 216.717C203.548 216.713 203.16 216.551 202.873 216.265L199.144 212.571C197.406 213.551 195.556 214.318 193.635 214.857V220.171C193.621 220.567 193.453 220.942 193.167 221.217C192.881 221.491 192.499 221.644 192.103 221.641ZM183.015 218.577H190.57V213.625C190.57 213.278 190.689 212.941 190.906 212.671C191.124 212.4 191.427 212.212 191.766 212.137C194.178 211.58 196.48 210.625 198.577 209.312C198.871 209.128 199.218 209.049 199.562 209.087C199.906 209.126 200.227 209.28 200.473 209.525L203.971 213.067L209.286 207.753L205.787 204.21C205.542 203.963 205.387 203.641 205.349 203.295C205.31 202.949 205.39 202.601 205.574 202.306C206.893 200.217 207.848 197.92 208.4 195.513C208.476 195.173 208.666 194.869 208.938 194.652C209.21 194.435 209.548 194.316 209.897 194.317H214.839V186.709H209.914C209.566 186.709 209.228 186.591 208.956 186.373C208.684 186.156 208.494 185.853 208.418 185.513C207.861 183.101 206.906 180.799 205.592 178.702C205.407 178.409 205.326 178.061 205.365 177.717C205.404 177.372 205.559 177.051 205.805 176.806L209.303 173.263L203.989 167.949L200.49 171.492C200.245 171.736 199.924 171.891 199.58 171.929C199.236 171.968 198.888 171.889 198.595 171.705C196.5 170.385 194.197 169.427 191.784 168.87C191.445 168.796 191.141 168.607 190.924 168.337C190.707 168.066 190.588 167.729 190.588 167.382V162.431H183.033V167.382C183.033 167.728 182.916 168.064 182.701 168.334C182.485 168.605 182.183 168.794 181.846 168.87C179.432 169.423 177.129 170.382 175.035 171.705C174.742 171.889 174.394 171.968 174.05 171.929C173.706 171.891 173.385 171.736 173.14 171.492L169.597 167.949L164.282 173.263L167.781 176.806C168.027 177.051 168.182 177.372 168.221 177.717C168.259 178.061 168.179 178.409 167.994 178.702C166.683 180.8 165.732 183.102 165.177 185.513C165.1 185.853 164.911 186.156 164.638 186.373C164.366 186.591 164.028 186.709 163.68 186.709H158.738V194.273H163.68C164.028 194.272 164.366 194.39 164.638 194.608C164.911 194.825 165.1 195.129 165.177 195.468C165.731 197.876 166.683 200.175 167.994 202.271C168.178 202.564 168.257 202.911 168.218 203.255C168.18 203.6 168.025 203.921 167.781 204.166L164.282 207.709L169.597 213.023L173.14 209.48C173.385 209.236 173.706 209.082 174.05 209.043C174.394 209.004 174.742 209.084 175.035 209.268C177.132 210.583 179.434 211.538 181.846 212.093C182.183 212.17 182.485 212.358 182.701 212.629C182.916 212.899 183.033 213.235 183.033 213.581L183.015 218.577Z" fill="#F5821F"/>
<path d="M186.797 204.6C183.993 204.609 181.248 203.785 178.912 202.233C176.576 200.682 174.752 198.471 173.673 195.883C172.594 193.294 172.307 190.443 172.848 187.691C173.39 184.939 174.736 182.41 176.717 180.424C178.697 178.437 181.222 177.083 183.972 176.533C186.722 175.982 189.574 176.261 192.166 177.332C194.758 178.403 196.974 180.219 198.533 182.551C200.092 184.882 200.924 187.624 200.924 190.429C200.924 194.18 199.437 197.777 196.789 200.434C194.141 203.09 190.548 204.588 186.797 204.6ZM186.797 179.393C184.607 179.391 182.466 180.039 180.644 181.254C178.822 182.47 177.402 184.198 176.562 186.221C175.723 188.244 175.502 190.47 175.929 192.619C176.355 194.767 177.409 196.74 178.957 198.29C180.505 199.839 182.477 200.894 184.625 201.322C186.773 201.75 189 201.531 191.023 200.694C193.047 199.856 194.776 198.437 195.993 196.616C197.21 194.795 197.86 192.654 197.86 190.464C197.853 187.534 196.684 184.726 194.611 182.656C192.537 180.585 189.727 179.422 186.797 179.419V179.393Z" fill="#F5821F"/>
<path d="M129.527 77.6594C129.2 77.6588 128.882 77.5536 128.619 77.3592C128.356 77.1648 128.162 76.8913 128.066 76.5788L124.948 66.4285L114.78 63.302C114.467 63.2068 114.192 63.0133 113.998 62.7501C113.803 62.4868 113.698 62.1679 113.699 61.8405C113.699 61.5124 113.804 61.1928 113.999 60.9283C114.193 60.6638 114.467 60.4683 114.78 60.3703L124.948 57.2525L128.066 47.0845C128.16 46.7704 128.354 46.495 128.617 46.2989C128.88 46.1028 129.199 45.9963 129.527 45.9951C129.855 45.9966 130.174 46.102 130.438 46.2961C130.702 46.4903 130.898 46.7632 130.997 47.0757L134.124 57.2525L144.283 60.3703C144.595 60.4696 144.868 60.6654 145.063 60.9296C145.257 61.1937 145.362 61.5127 145.364 61.8405C145.363 62.1676 145.258 62.4858 145.063 62.7488C144.869 63.0117 144.595 63.2056 144.283 63.302L134.124 66.4285L130.997 76.5788C130.899 76.892 130.704 77.1657 130.439 77.3601C130.175 77.5545 129.855 77.6593 129.527 77.6594ZM120.457 61.814L126.657 63.7094C126.896 63.7847 127.114 63.9167 127.291 64.094C127.469 64.2713 127.6 64.4888 127.676 64.728L129.562 70.928L131.467 64.728C131.54 64.4894 131.671 64.2722 131.847 64.0949C132.022 63.9175 132.238 63.7853 132.476 63.7094L138.676 61.814L132.476 59.9274C132.236 59.8534 132.018 59.722 131.841 59.5444C131.663 59.3669 131.532 59.1487 131.458 58.9088L129.554 52.7088L127.667 58.9088C127.594 59.1477 127.464 59.3653 127.288 59.5427C127.112 59.7202 126.895 59.8522 126.657 59.9274L120.457 61.814Z" fill="#F5821F"/>
<path d="M132.671 233.031C132.343 233.03 132.024 232.925 131.76 232.73C131.496 232.536 131.3 232.263 131.201 231.951L128.074 221.774L117.924 218.656C117.61 218.561 117.334 218.368 117.138 218.105C116.942 217.842 116.836 217.523 116.834 217.195C116.836 216.867 116.941 216.548 117.135 216.284C117.33 216.02 117.603 215.824 117.915 215.725L128.074 212.571L131.201 202.403C131.299 202.089 131.494 201.814 131.758 201.619C132.022 201.423 132.342 201.316 132.671 201.314C133 201.316 133.32 201.423 133.584 201.619C133.848 201.814 134.044 202.089 134.141 202.403L137.286 212.571L147.454 215.698C147.766 215.797 148.039 215.993 148.233 216.257C148.427 216.521 148.533 216.84 148.534 217.168C148.533 217.496 148.427 217.815 148.23 218.079C148.034 218.342 147.759 218.535 147.445 218.63L137.286 221.774L134.168 231.951C134.069 232.263 133.873 232.536 133.609 232.73C133.344 232.925 133.025 233.03 132.698 233.031H132.671ZM123.584 217.186L129.784 219.081C130.022 219.155 130.239 219.286 130.417 219.461C130.594 219.637 130.726 219.853 130.802 220.091L132.698 226.291L134.593 220.091C134.666 219.852 134.797 219.634 134.975 219.458C135.153 219.282 135.372 219.152 135.612 219.081L141.812 217.186L135.612 215.291C135.372 215.217 135.155 215.086 134.979 214.908C134.802 214.731 134.673 214.512 134.602 214.272L132.706 208.072L130.811 214.272C130.736 214.511 130.604 214.729 130.426 214.906C130.249 215.083 130.032 215.215 129.792 215.291L123.584 217.186Z" fill="#F5821F"/>
<path d="M195.069 155C194.741 155 194.422 154.895 194.157 154.701C193.893 154.506 193.697 154.233 193.599 153.919L190.473 143.751L180.313 140.616C180 140.521 179.726 140.327 179.531 140.064C179.337 139.801 179.232 139.482 179.233 139.155C179.233 138.826 179.338 138.507 179.532 138.242C179.727 137.978 180 137.782 180.313 137.684L190.473 134.567L193.599 124.39C193.696 124.076 193.891 123.801 194.156 123.607C194.421 123.412 194.741 123.308 195.069 123.309C195.397 123.308 195.716 123.413 195.979 123.608C196.242 123.802 196.436 124.076 196.531 124.39L199.649 134.567L209.808 137.684C210.121 137.783 210.395 137.979 210.591 138.243C210.787 138.507 210.894 138.826 210.897 139.155C210.896 139.483 210.79 139.802 210.593 140.065C210.397 140.328 210.122 140.521 209.808 140.616L199.649 143.751L196.531 153.919C196.436 154.233 196.242 154.507 195.979 154.701C195.716 154.896 195.397 155.001 195.069 155ZM186 139.119L192.2 141.023C192.438 141.099 192.654 141.232 192.83 141.409C193.005 141.586 193.136 141.803 193.209 142.042L195.105 148.242L196.991 142.042C197.065 141.802 197.197 141.584 197.374 141.406C197.552 141.229 197.77 141.097 198.01 141.023L204.21 139.119L198.01 137.224C197.77 137.15 197.552 137.018 197.374 136.841C197.197 136.663 197.065 136.445 196.991 136.205L195.105 130.005L193.209 136.205C193.136 136.445 193.004 136.663 192.827 136.841C192.649 137.018 192.431 137.15 192.191 137.224L186 139.119Z" fill="#F5821F"/>
</svg>
