<svg id="Layer_1" data-name="Layer 1" xmlns="http://www.w3.org/2000/svg" viewBox="407.267 320.225 535.498 709.44" width="200" height="200"><path fill="white" d="M636.638 948.162c-24.387 0 -40.6 -5.85 -41.55 -6.25l-0.15 -0.062c-0.475 -0.187 -48.062 -19.187 -102.662 -14.262a5.12 5.12 0 0 1 -1.738 -0.15c-73.75 -19.613 -75.087 -82.975 -75.113 -85.662v-0.538c-0.138 -2.6 -0.462 -17.575 10 -25.613 7.9 -6.038 19.387 -6.4 34.15 -1.062a5 5 0 1 1 -3.4 9.4c-7.813 -2.825 -18.425 -5.175 -24.675 -0.4 -6.9 5.275 -6.15 17.113 -6.138 17.225a4.8 4.8 0 0 1 0 0.862c0 3 1.662 58.113 66.85 75.9 55.987 -4.813 103.2 13.75 106.325 15 1.45 0.513 31.925 10.95 71.013 1.713 52.787 -12.5 97.575 -55.15 129.538 -123.462 43.875 -93.825 28.638 -167.25 8.113 -212.338 -21.25 -46.613 -55 -77.5 -77.375 -83.925 -18.613 -5.325 -37.287 -8.213 -55.338 -11 -22.875 -3.538 -44.487 -6.838 -63.775 -14.787 -11.862 -4.913 -24.387 -17.5 -37.25 -37.5 -20.838 21.387 -32.138 42.187 -35.438 65.087 -4.762 33.062 23.55 65.487 32.85 76.138l0.475 0.538a5.28 5.28 0 0 1 0.687 1.025c2.325 4.562 3.638 11.575 5.15 19.687 2.85 15.225 6.4 34.15 17.213 37.75 6.4 1.387 11.75 -2.162 16.487 -5.3 4.013 -2.675 7.8 -5.2 11.975 -3.525 3.75 1.487 5.587 5.8 9.113 14.613 1.95 4.875 6 15 8.538 16.05 5.387 1.487 12.762 -0.262 15.15 -1.062a5 5 0 0 1 6.562 4.062c0 0.287 4.287 29.387 24.013 30.125h0.162c40.887 2.913 68.6 -56.325 68.875 -56.925a5 5 0 0 1 9.087 4.175c-1.25 2.7 -30.875 66.013 -78.587 62.738 -21.775 -0.875 -29.787 -22.838 -32.375 -33.325a35.76 35.76 0 0 1 -15.6 -0.162c-7.113 -1.975 -11.175 -12.138 -15.113 -21.962 -1.087 -2.738 -2.5 -6.25 -3.538 -8.225 -0.85 0.5 -1.887 1.187 -2.738 1.75 -5.475 3.65 -13.75 9.15 -24.462 6.675l-0.375 -0.1c-16.675 -5.25 -20.862 -27.575 -24.213 -45.513 -1.25 -6.7 -2.438 -13.05 -4 -16.487 -10 -11.513 -40.625 -46.525 -35.213 -84.138 3.85 -26.75 17.425 -50.638 42.713 -75.175a5 5 0 0 1 3.487 -1.413c2.838 0 3.938 1.762 5.45 4.2 15.575 25.113 27.5 33.962 34.762 36.975 18.125 7.5 39.213 10.762 61.538 14.2 18.362 2.838 37.35 5.775 56.562 11.25 24.6 7.05 61.25 40 83.75 89.4a234.24 234.24 0 0 1 20.95 97.425c0.075 40.362 -9.725 81.838 -29.113 123.287 -18.562 39.7 -41.25 71.1 -67.387 93.325 -21.087 17.938 -44.462 30 -69.462 35.775a153.76 153.76 0 0 1 -34.762 3.975m-211.25 -106.25a5 5 0 0 1 -3.687 4.15 5 5 0 0 0 3.7 -4.125Z"/><path fill="white" d="M672.725 1029.662a334.72 334.72 0 0 1 -74.587 -8.538c-32.638 -7.5 -60.925 -18.4 -92.825 -47.313a117.04 117.04 0 0 1 -20.213 -24.062c-12.913 -20.375 -23 -34.125 -23.1 -34.262a5 5 0 0 1 8.062 -5.925c0.1 0.138 10.375 14.15 23.487 34.825A106.48 106.48 0 0 0 512.025 966.4c30.4 27.5 56.35 37.638 88.35 45 52.05 11.95 183.113 27.3 275.55 -87.775 78.3 -97.5 57.1 -219.462 44.35 -267.375a140 140 0 0 0 -10.113 -26.675c-7.25 -14.438 -20.538 -41.513 -28.187 -60.625 -4.238 -10.625 -4.813 -23.05 -5.475 -37.425 -1.113 -24.462 -2.5 -54.9 -22.813 -91.887 -38.9 -70.887 -79.062 -90.887 -116.687 -101.887 -56.413 -16.55 -135.35 -9.525 -187.7 59.862 -28.375 37.613 -37.5 75.987 -27.125 114.05a119 119 0 0 0 23.975 45.9 5 5 0 0 1 -7.3 6.838c-0.725 -0.775 -17.938 -19.4 -26.313 -50.113 -7.738 -28.325 -9.013 -72.613 28.75 -122.7 55.413 -73.45 138.862 -80.938 198.487 -63.438 39.675 11.65 82 32.625 122.638 106.65 21.425 39.025 22.875 70.75 24.05 96.25 0.613 13.475 1.15 25.113 4.762 34.175 7.5 18.75 20.662 45.55 27.838 59.85a149.36 149.36 0 0 1 10.938 28.575c5.787 21.738 15.075 65.838 12.238 116.875 -3.487 61.713 -23.162 115.325 -58.487 159.338 -43.375 53.987 -99.387 86.475 -166.475 96.55a300 300 0 0 1 -44.55 3.25"/><path fill="white" d="M759.825 887.5a5 5 0 0 1 -3.75 -1.687c-15 -16.938 -49.162 -33.575 -84.9 -41.375 -24.725 -5.4 -71.1 -10.975 -103.95 12.313 -21.25 15 -40.7 20.875 -57.962 17.375a45.84 45.84 0 0 1 -28.75 -18.825 5 5 0 0 1 8.487 -5.275 35.76 35.76 0 0 0 22.413 14.338c14.413 2.85 31.25 -2.5 50 -15.762 35.975 -25.513 85.525 -19.675 111.85 -13.925 37.65 8.213 73.913 26.1 90.25 44.5a5 5 0 0 1 -3.75 8.325Z"/><path fill="white" d="M420.45 846.25a5 5 0 0 1 -4.562 -2.95c-0.687 -1.538 -16.862 -38.187 -3.075 -74.713 10.438 -27.65 39.538 -63.487 78.75 -76.813 30.1 -10.25 61.987 -5.775 92.2 12.913l0.15 0.1c22.762 15.238 32.725 32.275 36.313 40 5.9 -0.838 16.25 -1.15 21.8 5.338a19.064 19.064 0 0 1 3.75 15.638 20.64 20.64 0 0 1 -6.05 11.162l0.95 0.787c6.138 5.113 13.75 11.475 14.575 22.225 1.75 23.75 -16.625 36.4 -17.4 36.925a5 5 0 1 1 -5.6 -8.287c0.562 -0.387 14.338 -10.1 13.025 -27.9 -0.475 -6.513 -5.587 -10.775 -11 -15.275a64 64 0 0 1 -6.062 -5.487 5 5 0 0 1 1.25 -7.8 11.6 11.6 0 0 0 6.438 -8.15 9.304 9.304 0 0 0 -1.5 -7.3c-2.625 -3.038 -11.138 -2.613 -16.062 -1.362a5 5 0 0 1 -5.987 -3.3c-0.062 -0.187 -7.238 -20.887 -33.987 -38.825 -27.95 -17.262 -56.1 -21.25 -83.638 -11.9 -36.138 12.287 -62.962 45.362 -72.6 70.887 -12.35 32.687 2.675 66.725 2.838 67.062a5 5 0 0 1 -4.562 7.062Z"/><path fill="white" d="M417.5 775.362a5.12 5.12 0 0 1 -1.762 -0.325 5 5 0 0 1 -2.913 -6.45c10.225 -27.087 37.887 -60.613 76.638 -74.462 30.687 -10.975 63.25 -7.35 94.162 10.487l0.287 0.175c29.875 20 37.687 43.1 38.013 44.075a5 5 0 0 1 -9.513 3.1c-0.062 -0.187 -7.225 -20.85 -33.925 -38.75 -28.65 -16.475 -57.5 -19.725 -85.662 -9.65 -35.55 12.689 -61.574 44.438 -70.65 68.563a5 5 0 0 1 -4.675 3.238"/><path fill="white" d="M420.438 846.25a5 5 0 0 1 -5 -4.675c0 -0.738 -1.038 -18.3 10.738 -26.838 7.962 -5.775 19.262 -5.787 33.6 0a5 5 0 0 1 -3.75 9.287c-7.5 -3 -17.762 -5.638 -24 -1.15 -7.313 5.275 -6.65 18.013 -6.65 18.138a5 5 0 0 1 -4.625 5.238Z"/></svg>