<svg
  id="Layer_1"
  data-name="Layer 1"
  xmlns="http://www.w3.org/2000/svg"
  width="158" height="133" viewBox="0 0 158 133"
  fill="white"
>
<path d="M509.31,758.53c-19.51,0-32.48-4.68-33.24-5l-.12-.05c-.38-.15-38.45-15.35-82.13-11.41a4.08,4.08,0,0,1-1.39-.12c-59-15.69-60.07-66.38-60.09-68.53,0-.15,0-.29,0-.43-.11-2.08-.37-14.06,8-20.49,6.32-4.83,15.51-5.12,27.32-.85a4,4,0,1,1-2.72,7.52c-6.25-2.26-14.74-4.14-19.74-.32-5.52,4.22-4.92,13.69-4.91,13.78a4,4,0,0,1,0,.69c0,2.4,1.33,46.49,53.48,60.72,44.79-3.85,82.56,11,85.06,12,1.16.41,25.54,8.76,56.81,1.37,42.23-10,78.06-44.12,103.63-98.77,35.1-75.06,22.91-133.8,6.49-169.87-17-37.29-44-62-61.9-67.14-14.89-4.26-29.83-6.57-44.27-8.8C521.29,400,504,397.36,488.57,391c-9.49-3.93-19.51-14-29.8-30-16.67,17.11-25.71,33.75-28.35,52.07-3.81,26.45,18.84,52.39,26.28,60.91l.38.43a4.2,4.2,0,0,1,.55.82c1.86,3.65,2.91,9.26,4.12,15.75,2.28,12.18,5.12,27.32,13.77,30.2,5.12,1.11,9.4-1.73,13.19-4.24,3.21-2.14,6.24-4.16,9.58-2.82,3,1.19,4.47,4.64,7.29,11.69,1.56,3.9,4.8,12,6.83,12.84,4.31,1.19,10.21-.21,12.12-.85a4,4,0,0,1,5.25,3.25c0,.23,3.43,23.51,19.21,24.1h.13c32.71,2.33,54.88-45.06,55.1-45.54a4,4,0,0,1,7.27,3.34c-1,2.16-24.7,52.81-62.87,50.19-17.42-.7-23.83-18.27-25.9-26.66a28.62,28.62,0,0,1-12.48-.13c-5.69-1.58-8.94-9.71-12.09-17.57-.87-2.19-2-5-2.83-6.58-.68.4-1.51.95-2.19,1.4-4.38,2.92-11,7.32-19.57,5.34l-.3-.08c-13.34-4.2-16.69-22.06-19.37-36.41-1-5.36-1.95-10.44-3.2-13.19l0,0c-8-9.21-32.5-37.22-28.17-67.31,3.08-21.4,13.94-40.51,34.17-60.14a4,4,0,0,1,2.79-1.13c2.27,0,3.15,1.41,4.36,3.36,12.46,20.09,22,27.17,27.81,29.58,14.5,6,31.37,8.61,49.23,11.36,14.69,2.27,29.88,4.62,45.25,9,19.68,5.64,49,32,67,71.52a187.38,187.38,0,0,1,16.76,77.94c.06,32.29-7.78,65.47-23.29,98.63-14.85,31.76-33,56.88-53.91,74.66-16.87,14.35-35.57,24-55.57,28.62A122.85,122.85,0,0,1,509.31,758.53Zm-169-85a4,4,0,0,1-2.95,3.32A4,4,0,0,0,340.32,673.55Z"/><path d="M538.18,823.73a267.81,267.81,0,0,1-59.67-6.83c-26.11-6-48.74-14.72-74.26-37.85a93.56,93.56,0,0,1-16.17-19.25c-10.33-16.3-18.4-27.3-18.48-27.41a4,4,0,0,1,6.45-4.74c.08.11,8.3,11.32,18.79,27.86a85.2,85.2,0,0,0,14.78,17.61c24.32,22,45.08,30.11,70.68,36,41.64,9.56,146.49,21.84,220.44-70.22,62.64-78,45.68-175.57,35.48-213.9a111.83,111.83,0,0,0-8.09-21.34c-5.8-11.55-16.43-33.21-22.55-48.5-3.39-8.5-3.85-18.44-4.38-29.94-.89-19.57-2-43.92-18.25-73.51C651.83,295,619.7,279,589.6,270.2c-45.13-13.24-108.28-7.62-150.16,47.89-22.7,30.09-30,60.79-21.7,91.24a95.18,95.18,0,0,0,19.18,36.72,4,4,0,0,1-5.84,5.47c-.58-.62-14.35-15.52-21.05-40.09-6.19-22.66-7.21-58.09,23-98.16,44.33-58.76,111.09-64.75,158.79-50.75,31.74,9.32,65.6,26.1,98.11,85.32,17.14,31.22,18.3,56.6,19.24,77,.49,10.78.92,20.09,3.81,27.34,6,15,16.53,36.44,22.27,47.88A119.46,119.46,0,0,1,744,522.92c4.63,17.39,12.06,52.67,9.79,93.5C751,665.79,735.26,708.68,707,743.89c-34.7,43.19-79.51,69.18-133.18,77.24A239.89,239.89,0,0,1,538.18,823.73Z"/><path d="M607.86,710a4,4,0,0,1-3-1.35c-12-13.55-39.33-26.86-67.92-33.1-19.78-4.32-56.88-8.78-83.16,9.85-17,12-32.56,16.7-46.37,13.9a36.67,36.67,0,0,1-23-15.06,4,4,0,0,1,6.79-4.22,28.59,28.59,0,0,0,17.93,11.47c11.53,2.28,25-2,40-12.61,28.78-20.41,68.42-15.74,89.48-11.14,30.12,6.57,59.13,20.88,72.2,35.6a4,4,0,0,1-3,6.66Z"/><path d="M336.36,677a4,4,0,0,1-3.65-2.36c-.55-1.23-13.49-30.55-2.46-59.77,8.35-22.12,31.63-50.79,63-61.45,24.08-8.2,49.59-4.62,73.76,10.33l.12.08c18.21,12.19,26.18,25.82,29.05,32,4.72-.67,13-.92,17.44,4.27a15.25,15.25,0,0,1,3,12.51,16.5,16.5,0,0,1-4.84,8.93l.76.63c4.91,4.09,11,9.18,11.66,17.78,1.4,19-13.3,29.12-13.92,29.54a4,4,0,1,1-4.48-6.63c.45-.31,11.47-8.08,10.42-22.32-.38-5.21-4.47-8.62-8.8-12.22a51,51,0,0,1-4.85-4.39,4,4,0,0,1,1-6.24,9.28,9.28,0,0,0,5.15-6.52,7.44,7.44,0,0,0-1.2-5.84c-2.1-2.43-8.91-2.09-12.85-1.09a4,4,0,0,1-4.79-2.64c-.05-.15-5.79-16.71-27.19-31.06-22.36-13.81-44.88-17-66.91-9.52-28.91,9.83-50.37,36.29-58.08,56.71-9.88,26.15,2.14,53.38,2.27,53.65a4,4,0,0,1-3.65,5.65Z"/><path d="M334,620.29a4.13,4.13,0,0,1-1.41-.26,4,4,0,0,1-2.33-5.16c8.18-21.67,30.31-48.49,61.31-59.57,24.55-8.78,50.6-5.88,75.33,8.39l.23.14c23.9,16,30.15,34.48,30.41,35.26a4,4,0,0,1-7.61,2.48c-.05-.15-5.78-16.68-27.14-31-22.92-13.18-46-15.78-68.53-7.72C365.82,573,345,598.4,337.74,617.7A4,4,0,0,1,334,620.29Z"/><path d="M336.35,677a4,4,0,0,1-4-3.74c0-.59-.83-14.64,8.59-21.47,6.37-4.62,15.41-4.63,26.88,0a4,4,0,0,1-3,7.43c-6-2.4-14.21-4.51-19.2-.92-5.85,4.22-5.32,14.41-5.32,14.51A4,4,0,0,1,336.6,677Z"/>

  <!-- your paths -->
</svg>
