<svg width="112" height="154" viewBox="0 0 112 154" fill="none" xmlns="http://www.w3.org/2000/svg">
<path d="M55.9663 103.744L55.8936 103.839H56.0353L55.9663 103.744Z" fill="white"/>
<path d="M55.9663 103.744L55.8936 103.839H56.0353L55.9663 103.744Z" fill="white"/>
<path d="M111.322 144.457L102.931 107.622C101.556 101.586 97.3163 99.2806 89.9592 97.1397C85.0435 95.8156 80.0567 94.7709 75.0229 94.0107L68.5428 89.2043V83.3447C77.2557 79.3578 83.4523 71.411 84.3102 62.093C84.3715 61.4611 84.406 60.8177 84.4136 60.1781C84.9607 60.1432 85.5039 60.0624 86.0375 59.9368C88.283 59.4106 90.2846 58.1403 91.7169 56.3325C93.1493 54.5248 93.9281 52.2857 93.9269 49.9793C93.93 48.2706 93.4991 46.5891 92.6745 45.0925C93.7897 39.6352 93.6775 33.9982 92.346 28.5896C91.0146 23.1811 88.4971 18.1362 84.976 13.8203C81.4549 9.50433 77.0182 6.02532 71.9871 3.63508C66.9559 1.24485 61.4563 0.00319318 55.8862 6.15083e-06C50.3161 -0.00318088 44.8151 1.23218 39.7812 3.61666C34.7473 6.00114 30.3066 9.47507 26.7806 13.787C23.2545 18.0989 20.7313 23.1408 19.3937 28.5479C18.056 33.9549 17.9374 39.5918 19.0463 45.0503C18.2813 46.4331 17.8481 47.9748 17.7809 49.5537C17.7136 51.1326 18.0142 52.7055 18.659 54.1483C19.3037 55.5911 20.2749 56.8643 21.4959 57.8676C22.7169 58.8708 24.1544 59.5766 25.6949 59.9292C26.1987 60.0457 26.7109 60.1225 27.2268 60.159C27.2268 60.7641 27.2612 61.3615 27.3149 61.9475C28.1383 71.388 34.4268 79.4306 43.2661 83.3945V89.0549L36.5869 94.0107C31.6812 94.765 26.8223 95.7969 22.0335 97.1014C14.6918 99.2384 10.4522 101.54 9.07728 107.58L0.686144 144.434C0.441975 145.483 0.437967 146.573 0.674418 147.623C0.91087 148.673 1.38166 149.656 2.05161 150.499C2.72155 151.342 3.57331 152.022 4.54321 152.489C5.5131 152.956 6.57605 153.198 7.65258 153.197H104.355C105.429 153.196 106.488 152.955 107.455 152.489C108.421 152.023 109.271 151.346 109.94 150.507C110.609 149.668 111.081 148.69 111.32 147.644C111.559 146.598 111.56 145.511 111.322 144.465V144.457ZM71.8518 93.5511L73.7667 94.9644L73.6288 95.3473L68.3054 109.307L57.6853 103.689L64.6096 94.3822L65.6935 92.9307L67.5356 90.4528H67.6773L71.8518 93.5511ZM55.8968 103.712H55.7551L55.8279 103.616L48.8767 94.275L47.7891 92.812L44.7865 88.7754V84.057C51.9442 86.7839 59.8588 86.7594 66.9994 83.9881V88.5839L63.859 92.7967L62.7713 94.2635L55.8164 103.612L55.8968 103.712ZM92.3873 49.9908C92.3862 51.6166 91.9287 53.2095 91.0668 54.5881C90.2048 55.9666 88.9731 57.0754 87.5119 57.7883C86.7664 58.159 85.9701 58.4171 85.1489 58.5543C84.9077 58.5964 84.6625 58.6194 84.4136 58.6424L84.4672 41.3584C85.7986 41.4753 87.085 41.8979 88.2262 42.5934C89.3675 43.2889 90.3327 44.2385 91.0469 45.3682C91.4936 46.0701 91.8343 46.8341 92.0579 47.6355C92.2765 48.4015 92.3873 49.1942 92.3873 49.9908ZM27.2153 58.6309C26.997 58.6117 26.7864 58.5887 26.5757 58.5543C25.7591 58.4278 24.9647 58.1853 24.2165 57.8343C22.7445 57.1249 21.5023 56.0149 20.6325 54.6316C19.7627 53.2483 19.3005 51.6478 19.2991 50.0138C19.3007 48.3621 19.7737 46.7451 20.6625 45.3529C21.3812 44.221 22.3532 43.2716 23.5017 42.5797C24.6502 41.8878 25.9438 41.4723 27.2804 41.366L27.2153 58.6309ZM27.2804 35.9775V39.8073C25.9428 39.8968 24.636 40.2498 23.4353 40.8459C22.2345 41.4421 21.1633 42.2696 20.2833 43.281C19.9778 41.3929 19.8254 39.4833 19.8276 37.5707C19.8286 32.5958 20.8597 27.6751 22.8558 23.1183C24.8519 18.5614 27.7698 14.4672 31.4258 11.0934C35.0819 7.71965 39.3968 5.13934 44.099 3.51498C48.8012 1.89062 53.7888 1.25739 58.7477 1.65517C63.7066 2.05294 68.5295 3.4731 72.9126 5.82623C77.2957 8.17936 81.1442 11.4145 84.2157 15.3279C87.2872 19.2414 89.5152 23.7483 90.7594 28.5651C92.0036 33.3818 92.2371 38.404 91.4452 43.3154C90.5697 42.3058 89.5038 41.4787 88.3084 40.8814C87.1131 40.284 85.8117 39.9282 84.4787 39.8341V36.0541H83.7128C82.4532 36.0541 81.2059 35.8056 80.0425 35.3227C78.8791 34.8399 77.8225 34.1322 76.933 33.2403C76.0436 32.3484 75.3389 31.2897 74.8593 30.125C74.3797 28.9603 74.1347 27.7123 74.1382 26.4527V25.6868H37.6209V26.4527C37.6128 28.9867 36.6005 31.4142 34.8058 33.2032C33.0111 34.9921 30.5804 35.9967 28.0464 35.9966L27.2804 35.9775ZM29.1149 63.9352C28.9571 63.0792 28.8496 62.2147 28.7932 61.3462C28.7587 60.856 28.7434 60.3581 28.7434 59.8564L28.8085 37.4864C31.4775 37.2974 33.9891 36.1532 35.8833 34.2633C37.7774 32.3734 38.9272 29.8643 39.1222 27.1957H72.6369C72.8158 29.8755 73.9596 32.3996 75.8566 34.3008C77.7535 36.202 80.2751 37.3514 82.9545 37.5362L82.8855 59.8449C82.8855 60.3849 82.8664 60.9249 82.8242 61.4573C82.7656 62.3275 82.6543 63.1933 82.491 64.0501C80.2966 75.6774 69.1709 84.5472 55.8125 84.5472C42.4541 84.5472 31.2481 75.6199 29.1149 63.9313V63.9352ZM39.7541 93.5894L43.9669 90.4605H44.1316L45.9852 92.9499L47.0652 94.4014L53.9819 103.696L43.3656 109.307L38.0384 95.3665L37.889 94.9835L39.7541 93.5894ZM108.744 149.547C108.22 150.208 107.553 150.742 106.793 151.109C106.033 151.476 105.199 151.666 104.355 151.665H89.7064V127.361H88.1745V151.665H23.7991V127.361H22.2672V151.665H7.65258C6.80945 151.665 5.97706 151.476 5.21728 151.11C4.45751 150.745 3.78989 150.212 3.26404 149.553C2.73819 148.894 2.36763 148.125 2.17992 147.303C1.9922 146.481 1.99215 145.628 2.17977 144.806L10.5709 107.951C11.785 102.62 15.5267 100.621 22.4433 98.6065C27.0606 97.3449 31.7439 96.3387 36.472 95.5924L42.5307 111.452L55.081 104.818V128.18H56.613V104.853L69.1212 111.452L75.1761 95.5465C80.0181 96.292 84.8153 97.3046 89.5456 98.5797C96.4814 100.598 100.223 102.601 101.437 107.928L109.828 144.783C110.02 145.607 110.022 146.464 109.834 147.289C109.647 148.115 109.274 148.887 108.744 149.547Z" fill="white"/>
</svg>
