<svg width="141" height="123" viewBox="0 0 141 123" fill="none" xmlns="http://www.w3.org/2000/svg">
<path d="M95.5047 60.7129C88.6439 60.7129 84.0389 66.6393 84.0389 72.1786H86.2102C86.2102 67.6893 89.9431 62.8797 95.5047 62.8797C100.595 62.8797 104.434 66.884 104.434 72.1786H106.606C106.606 65.6338 101.831 60.7129 95.5047 60.7129Z" fill="white"/>
<path d="M46.4027 61.9893C39.542 61.9893 34.9326 67.9201 34.9326 73.455H37.1038C37.1038 68.9657 40.8412 64.1605 46.4027 64.1605C51.4927 64.1605 55.3324 68.1648 55.3324 73.455H57.5036C57.5036 66.919 52.7295 61.9893 46.4027 61.9893Z" fill="white"/>
<path d="M140.5 68.5032C140.5 60.4945 134.133 54.9374 127.655 54.1054C122.632 33.3052 105.369 16.9186 83.5185 12.2424C83.2494 10.1008 82.4457 8.06134 81.1815 6.31189C79.9172 4.56244 78.233 3.15927 76.284 2.23164C72.7246 0.45194 66.4289 0.0693045 60.992 3.43738C58.269 5.1281 55.2079 8.12245 53.4016 13.3859C33.7181 19.2189 18.4661 34.7423 13.7766 54.0565C7.15162 54.6883 0.5 60.3299 0.5 68.5032C0.5 76.405 6.58657 82.3848 14.7064 82.5317C21.8964 105.548 44.2806 122.366 70.7091 122.366C97.1376 122.366 119.531 105.539 126.716 82.5405C134.623 82.1802 140.5 76.2671 140.5 68.5032ZM55.1234 15.1567C55.3697 14.3134 55.6668 13.4858 56.0133 12.6785C57.2337 9.63331 59.3779 7.04724 62.1443 5.28382C64.5267 3.82576 67.2663 3.05577 70.0595 3.0592C71.8725 3.02399 73.6696 3.40289 75.3141 4.16706C76.832 4.88512 78.1599 5.94975 79.1909 7.27515C80.2218 8.60055 80.9269 10.1496 81.2494 11.7975C81.3072 12.0912 81.3473 12.3448 81.3695 12.5494C80.9735 12.8119 80.3907 13.2079 79.6966 13.7374C76.0794 16.5182 69.272 23.0007 68.1286 33.1806C67.771 35.8767 68.0522 38.6191 68.9495 41.1865C69.8468 43.754 71.335 46.0745 73.2941 47.961C66.6781 46.5372 54.0689 41.5452 53.9933 24.2198C53.9332 21.1602 54.3138 18.1079 55.1234 15.1567ZM2.67123 68.5032C2.67123 61.8293 7.88575 57.1354 13.2916 56.2989C11.72 64.2625 11.9863 72.4797 14.0702 80.3248C7.50756 79.9021 2.67123 74.9768 2.67123 68.5032ZM70.7091 120.199C39.689 120.199 14.4528 96.173 14.4528 66.63C14.4528 43.0891 30.4701 23.0274 52.6897 15.8775C52.1398 18.2866 51.8504 20.7478 51.8265 23.2187C48.712 23.5747 39.5243 25.6258 32.0363 37.3318L33.8649 38.4975C40.6233 27.9349 48.9345 25.8349 51.8399 25.4122C52.7297 49.3581 76.8713 50.6884 77.116 50.6973L81.8945 50.902L77.6722 48.6506C75.0758 47.1268 72.9883 44.869 71.6725 42.1613C70.3567 39.4536 69.8713 36.4172 70.2775 33.4342C71.5634 22.0931 80.7911 15.5304 82.6998 14.3024C107.985 19.5481 126.97 41.0246 126.97 66.6478C126.97 96.1641 101.734 120.199 70.7091 120.199ZM127.361 80.3159C129.43 72.5052 129.7 64.3267 128.149 56.3968C133.395 57.4112 138.329 62.0295 138.329 68.521C138.329 74.8211 133.702 79.6841 127.361 80.3159Z" fill="white"/>
<path d="M70.945 105.005C65.3923 105.005 61.6594 100.204 61.6594 95.7236H59.4882C59.4882 101.254 64.0931 107.176 70.945 107.176C77.2674 107.176 82.0325 102.251 82.0325 95.7236H79.8657C79.8746 101.014 76.0394 105.005 70.945 105.005Z" fill="white"/>
</svg>
