<svg id="Layer_1" data-name="Layer 1" xmlns="http://www.w3.org/2000/svg" viewBox="0 0 1080 1080"><path d="M538.29,690.84A133.69,133.69,0,0,1,409.1,587.31c-1.66-7.52-5-12-11.61-15.47-4.72-2.48-9-7.06-12.92-11.64-6.79-7.92-12-12.51-18.34-12.51s-11.83,4.9-18.44,12.79l-.5.6a76,76,0,0,1-6.61,7.26A27.71,27.71,0,0,1,322,576a27.29,27.29,0,0,1-19-8.06c-2.23-2.17-4.27-4.59-6.43-7.15-1.89-2.24-3.83-4.54-5.95-6.74-4.16-4.28-8.32-6.36-12.73-6.36s-8.48,2-12.59,6.24c-2.17,2.21-4.12,4.56-6,6.83-1.51,1.82-2.92,3.53-4.43,5.16-6,6.5-13.53,10.08-21.17,10.08s-15-3.5-21-9.87c-1.07-1.13-2.07-2.44-3.14-3.82a40.54,40.54,0,0,0-6.15-6.79,41.32,41.32,0,0,0-13.64-7.59c-5.63-1.72-5.85-3.9-5.58-6.37.39-3.42,2.18-4.88,6-4.88h.41A25.51,25.51,0,0,1,209,545c1.75,1.88,3.48,3.91,5.15,5.88,2.2,2.58,4.43,5.2,6.86,7.69,4.12,4.21,8.25,6.25,12.63,6.25s8.56-2.06,12.71-6.31c2.13-2.18,4-4.49,5.89-6.72,1.54-1.86,3-3.61,4.52-5.26,6-6.45,13.5-10,21.07-10s15,3.54,21.09,10c1.44,1.54,2.8,3.2,4.23,4.95,1,1.2,1.92,2.35,2.89,3.48,6,6.91,10.77,9.87,16,9.87s10-2.9,15.81-9.68c1-1.13,1.93-2.29,2.89-3.44l.13-.15c.92-1.11,1.83-2.21,2.77-3.3,6.66-7.66,14.45-11.72,22.52-11.72,7.77,0,15.39,3.77,22,10.91,1.52,1.64,3,3.32,4.77,5.27l2.94,3.28,7.41,8.22,1.3-11c.38-3.26.8-6.43,1.21-9.49l0-.17c.94-7,1.83-13.71,2.16-20.52.57-11.81-7.7-21.67-20.13-24a63,63,0,0,0-11.36-.76q-64.23,0-128.47,0H192.13a28.22,28.22,0,0,1-3.44-.17c-3.06-.4-4.4-1.79-4.65-4.83s.89-4.65,3.8-5.47a26.48,26.48,0,0,1,6.62-.52h.19q56.63,0,113.25,0,35.73,0,71.45,0c13.87,0,24.9,4.48,31.89,12.93s9.32,20.43,6.75,33.95a120.82,120.82,0,0,0,20,92.3,124.52,124.52,0,0,0,82.25,52A112.07,112.07,0,0,0,538.6,680c59.66,0,114.61-46.91,122.49-104.56,1.69-12.39,1.37-26.4-1-41.65-2.12-13.91.56-25.71,7.76-34.09,7-8.11,17.71-12.4,31.07-12.41q38.28,0,76.58,0H883.67l2.54,0c.55,0,1.09,0,1.63,0,4.31.29,6.82,2.29,6.89,5.49a4.7,4.7,0,0,1-1.26,3.55,7.85,7.85,0,0,1-5.67,1.88c-20.12.06-40.19.06-55.42.06l-100.33,0q-16.37,0-32.71,0c-10.56,0-18.37,2.92-23.22,8.59s-6.5,13.93-4.86,24.47c.68,4.4,1.28,8.9,1.9,13.67.32,2.4.64,4.86,1,7.46l1.41,10.39,7.2-7.63c1.38-1.47,2.63-2.83,3.8-4.11,2.29-2.5,4.23-4.61,6.27-6.53,5.65-5.29,12.28-8.09,19.17-8.09,7.15,0,13.91,3,19.56,8.64,2,2,3.93,4.29,5.93,6.66s3.85,4.58,6,6.76c4.12,4.22,8.26,6.28,12.63,6.28s8.53-2.06,12.68-6.29c2.19-2.23,4.14-4.59,6-6.88,1.16-1.39,2.31-2.79,3.47-4.1,6.3-7.11,14.12-11,22-11s15.68,3.88,22,10.92c1.12,1.25,2.17,2.55,3.28,3.92.94,1.15,1.9,2.35,2.91,3.51,4.25,4.89,9.48,9.9,16,9.9s11.61-4.88,15.78-9.66c1-1.19,2-2.42,2.84-3.61,1.52-2,3-4,4.48-4.93,6.22-3.9,12.92-7.78,19.74-9.78a6.3,6.3,0,0,1,1.77-.27c2.55,0,4.6,2,5,5,.19,1.53.56,4.35-6.31,6.49a36.84,36.84,0,0,0-13.1,7.65,64.36,64.36,0,0,0-6.59,7.15,63.8,63.8,0,0,1-5.1,5.67,26.44,26.44,0,0,1-37.17-.17,95.39,95.39,0,0,1-6.84-7.55c-1.74-2.07-3.54-4.21-5.49-6.25-4.33-4.56-8.65-6.77-13.19-6.77s-8.93,2.24-13.31,6.86c-1.9,2-3.62,4.1-5.29,6.13-1,1.25-2.08,2.52-3.13,3.73C772,572,764.22,576,756.14,576s-15.86-4-22.53-11.53c-1.07-1.21-2.14-2.51-3.18-3.76l-.07-.09a95,95,0,0,0-6.33-7.15c-3.93-3.88-8-5.85-12.24-5.85s-8.17,1.92-11.9,5.69c-2.21,2.24-4.26,4.6-6.24,6.87-5.29,6.08-10.28,11.81-17.58,14.6-3.73,1.43-4.66,5.5-5.41,8.76-.1.43-.2.84-.29,1.21-14.4,55.9-49.44,90.54-104.14,103a126.21,126.21,0,0,1-27.93,3.13Z"/><path d="M539.79,641.19a84.3,84.3,0,0,1-59.37-24.14c-29.48-28.87-33.76-75.31-10-108,13.89-19.11,30.56-45.18,36.15-77.42,2.93-16.88,5.66-34.07,8.3-50.69l.1-.64q1.93-12.11,3.88-24.23L521,342.66c2.53-15.61,5.39-33.3,8.22-50.25,1.11-6.62,4.27-9.72,10-9.76,7.13,0,9.47,5.18,10.19,9.51,5.51,33.6,11,67.72,16.42,101.4,1.34,8.41-2.9,9.14-4.3,9.38a6,6,0,0,1-1,.09c-4,0-5.29-5.43-5.67-7.77L544.47,331.7l-10.27-1-.75,4.64q-2.15,13.33-4.36,26.68c-3.27,19.85-6.64,40.35-9.59,60.59-4.83,33.23-17.4,62.82-38.45,90.46-16.7,21.94-19.62,47.2-8.46,73a72.44,72.44,0,0,0,101.49,35.18,73.48,73.48,0,0,0,36.3-47.1,71.41,71.41,0,0,0-10.6-57.64L596.67,512l-.2-.29c-12-17.53-23.33-34.07-29.28-53.84-.2-.68-.43-1.35-.66-2a18.4,18.4,0,0,1-.87-3c-.53-3.48.51-5.39,3.46-6.39a7.29,7.29,0,0,1,2.35-.43c1.14,0,2.83.32,4.37,3.13a13.82,13.82,0,0,1,1,2.54c5.64,18.1,15,35.47,29.47,54.68a83.9,83.9,0,0,1-18,119.24,82.14,82.14,0,0,1-48.48,15.57Z"/><path d="M885.19,820.24h-1.77l-1.89,0H697.66q-250.38,0-500.76,0h-.6a38.21,38.21,0,0,1-8.61-.64,5.34,5.34,0,0,1-3.38-2.15,2.61,2.61,0,0,1-.18-2.14c.56-1.9,3-4.48,6-6.27h0a5,5,0,0,1,1.55-.15c.74,0,1.56,0,2.43.11s2,.13,3,.13q131.67,0,263.33,0H884.84c1.33,0,2.34,0,3.26.09,1.57.11,6.69.82,6.63,5.47,0,3.2-2.52,5.22-6.83,5.56C887.13,820.21,886.29,820.24,885.19,820.24Z"/><path d="M697.83,708.76a13.53,13.53,0,0,1-13.32-13,13.19,13.19,0,0,1,3.9-9.38,13.34,13.34,0,0,1,9.4-4.12H698a13.51,13.51,0,0,1,13.1,13.31,13.25,13.25,0,0,1-13.16,13.16Z"/><path d="M276.55,665a12.79,12.79,0,0,1-13.09-12.94,13.26,13.26,0,0,1,3.89-9.54,12.85,12.85,0,0,1,9.17-3.86h.32a13.3,13.3,0,0,1,12.86,13.42A12.81,12.81,0,0,1,276.57,665Z"/><path d="M802,665a12.79,12.79,0,0,1-13-13,13.11,13.11,0,0,1,12.84-13.39h.26a13.51,13.51,0,0,1,13.21,13.42A13.06,13.06,0,0,1,802,665Z"/><path d="M230.08,755.14a13.18,13.18,0,0,1,0-26.36A13.29,13.29,0,0,1,243.2,742a12.83,12.83,0,0,1-12.92,13.14Z"/><path d="M380.68,708.75a13.23,13.23,0,0,1,0-26.46h.36a13.34,13.34,0,0,1,12.84,13.49,13,13,0,0,1-13.14,13Z"/><path d="M848.34,755.15A12.81,12.81,0,0,1,835.42,742a13.21,13.21,0,0,1,13-13.24h.11a13.54,13.54,0,0,1,13.26,13.54,13.14,13.14,0,0,1-13.29,12.84Z"/></svg>