<svg version="1.1" id="Layer_1" xmlns="http://www.w3.org/2000/svg" xmlns:xlink="http://www.w3.org/1999/xlink" x="0px" y="0px" viewBox="0 0 214.769 200" style="enable-background:new 0 0 122.88 114.43" xml:space="preserve" width="214.769" height="200"><g><path fill="white" d="M100.935 168.994c-6.414 -1.486 -10.452 -5.575 -12.829 -10.906 -2.202 -4.964 -2.901 -11.011 -2.779 -16.936 0.122 -5.768 1.031 -11.448 2.045 -15.905 1.713 -7.376 4.16 -14.437 7.253 -21.288 3.094 -6.816 6.816 -13.406 11.029 -19.785 0.052 -0.07 0.105 -0.157 0.157 -0.227 12.584 -16.394 27.598 -31.827 44.516 -45.915S186.088 11.256 206.275 0.367c0.664 -0.35 1.398 -0.437 2.062 -0.28 1.276 -0.297 2.622 0.28 3.268 1.486 0.769 1.416 0.262 3.181 -1.119 3.985 -11.238 7.114 -22.302 15.433 -32.614 24.714 -9.753 8.774 -18.789 18.369 -26.566 28.576 -10.207 13.371 -15.887 23.088 -18.999 32.299 -3.111 9.176 -3.758 18.02 -3.933 29.573 -0.035 2.115 0.052 4.649 0.14 7.358 0.105 3.496 0.227 7.323 0.14 11.203 -0.419 20.834 -8.617 33.977 -27.72 29.713M5.943 194.512h202.884V102.368c0 -3.181 -1.049 -4.125 -2.36 -4.125 -2.307 0 -5.506 1.416 -7.813 2.464 -0.419 0.192 -0.821 0.367 -1.031 0.454 -12.706 5.523 -15.101 4.544 -22.651 1.451 -1.975 -0.804 -4.369 -1.8 -7.638 -2.849 -6.921 -2.237 -12.934 -3.723 -16.779 -2.185 -3.548 1.416 -5.663 5.96 -5.61 15.957 0 1.451 0.052 2.971 0.105 4.474a173.032 173.032 0 0 1 0.105 4.335c0.017 3.618 0.175 7.026 0.315 10.19 0.192 4.387 0.35 8.337 0.175 12.235 -2.412 47.138 -61.872 53.832 -74.421 12.479 -2.447 -8.04 -2.639 -17.548 -1.014 -28.314 1.381 -9.019 4.09 -18.964 7.883 -29.713 -10.731 2.919 -21.358 4.649 -31.897 4.824 -12.252 0.192 -24.294 -1.73 -36.092 -6.31 -1.084 0.14 -2.062 0.612 -2.796 1.346 -0.839 0.839 -1.363 1.992 -1.363 3.286zm208.826 5.488H0V102.368c0 -2.919 1.189 -5.575 3.111 -7.481a10.592 10.592 0 0 1 7.481 -3.111c0.419 0 0.821 0.087 1.171 0.245 11.238 4.422 22.704 6.292 34.362 6.1 11.745 -0.192 23.735 -2.447 35.9 -6.222a2.971 2.971 0 0 1 3.705 1.958c0.21 0.647 0.175 1.311 -0.052 1.905 -4.719 12.479 -8.022 23.892 -9.595 34.03 -1.521 9.945 -1.363 18.579 0.787 25.693 10.662 35.078 60.771 29.38 62.833 -11.064 0.192 -3.653 0.017 -7.463 -0.175 -11.693 -0.14 -3.164 -0.297 -6.537 -0.315 -10.417 0 -1.293 -0.052 -2.727 -0.105 -4.177 -0.052 -1.486 -0.105 -2.989 -0.105 -4.649 -0.07 -12.934 3.443 -19.121 9.316 -21.48 5.558 -2.237 12.741 -0.559 20.799 2.045 3.373 1.101 5.925 2.132 8.057 3.006 5.785 2.377 7.638 3.129 18.055 -1.398 0.419 -0.192 0.699 -0.315 0.996 -0.419 2.831 -1.258 6.712 -2.989 10.242 -2.989 4.649 0.035 8.302 2.377 8.302 10.102zm-198.375 -92.633c2.185 0 3.967 1.783 3.967 3.967s-1.783 3.967 -3.967 3.967 -3.967 -1.783 -3.967 -3.967c0 -2.202 1.783 -3.967 3.967 -3.967m181.771 0.28c2.185 0 3.967 1.783 3.967 3.967s-1.783 3.967 -3.967 3.967 -3.967 -1.783 -3.967 -3.967 1.765 -3.967 3.967 -3.967m-21.69 1.59c2.185 0 3.967 1.783 3.967 3.967s-1.783 3.967 -3.967 3.967 -3.967 -1.783 -3.967 -3.967 1.783 -3.967 3.967 -3.967m8.197 10.854c2.185 0 3.967 1.783 3.967 3.967s-1.783 3.967 -3.967 3.967 -3.967 -1.783 -3.967 -3.967c0 -2.202 1.783 -3.967 3.967 -3.967m-19.558 -1.328c2.185 0 3.967 1.783 3.967 3.967s-1.783 3.967 -3.967 3.967 -3.967 -1.783 -3.967 -3.967a3.95 3.95 0 0 1 3.967 -3.967m-10.312 -10.574c2.185 0 3.967 1.783 3.967 3.967s-1.783 3.967 -3.967 3.967 -3.967 -1.783 -3.967 -3.967a3.943 3.943 0 0 1 3.967 -3.967m-95.045 -1.346c2.185 0 3.967 1.783 3.967 3.967s-1.783 3.967 -3.967 3.967 -3.967 -1.783 -3.967 -3.967c0 -2.202 1.765 -3.967 3.967 -3.967m-21.673 1.573c2.185 0 3.967 1.783 3.967 3.967s-1.783 3.967 -3.967 3.967 -3.967 -1.783 -3.967 -3.967 1.783 -3.967 3.967 -3.967m8.197 10.836c2.185 0 3.967 1.783 3.967 3.967s-1.783 3.967 -3.967 3.967 -3.967 -1.783 -3.967 -3.967c0 -2.202 1.783 -3.967 3.967 -3.967m-19.575 -1.311c2.185 0 3.967 1.783 3.967 3.967s-1.783 3.967 -3.967 3.967 -3.967 -1.783 -3.967 -3.967 1.783 -3.967 3.967 -3.967"/></g></svg>