<svg xmlns="http://www.w3.org/2000/svg" width="160" height="227.797" viewBox="0 0 160 227.797" fill="#ffffff">
  <path d="m94.834 176.729 -0.122 0.163h0.239z" fill="#000000"/>
  <path d="m94.834 176.729 -0.122 0.163h0.239z" fill="#000000"/>
  <path d="M158.666 212.914 146.712 158.839c-1.958 -8.86 -7.997 -12.244 -18.476 -15.387a187.119 187.119 0 0 0 -21.277 -4.594l-9.231 -7.056V123.2c12.412 -5.852 21.239 -17.519 22.46 -31.197q0.133 -1.397 0.149 -2.809 1.169 -0.081 2.313 -0.353a14.508 14.508 0 0 0 8.089 -5.294 15.295 15.295 0 0 0 3.146 -9.329 15.186 15.186 0 0 0 -1.782 -7.17 56.786 56.786 0 0 0 -0.469 -24.228 55.864 55.864 0 0 0 -10.495 -21.681 53.695 53.695 0 0 0 -18.506 -14.951A52.203 52.203 0 0 0 79.702 0.852a52.203 52.203 0 0 0 -22.942 5.31 53.695 53.695 0 0 0 -18.517 14.929 55.864 55.864 0 0 0 -10.522 21.668 56.786 56.786 0 0 0 -0.496 24.228 15.371 15.371 0 0 0 -0.551 13.356c0.917 2.115 2.3 3.986 4.041 5.459a14.373 14.373 0 0 0 8.163 3.363c0 0.889 0.049 1.765 0.125 2.625 1.174 13.858 10.132 25.665 22.723 31.485v8.309l-9.516 7.276c-6.986 1.106 -13.909 2.622 -20.729 4.537 -10.457 3.138 -16.496 6.517 -18.457 15.382L1.068 212.881a10.847 10.847 0 0 0 -0.016 4.681c0.336 1.543 1.006 2.986 1.961 4.222s2.169 2.237 3.55 2.921a9.925 9.925 0 0 0 4.428 1.039h137.752c1.527 0 3.037 -0.353 4.415 -1.039a10.305 10.305 0 0 0 3.539 -2.907c0.955 -1.234 1.627 -2.668 1.966 -4.203a10.847 10.847 0 0 0 0.003 -4.667zM102.441 138.18l2.728 2.075 -0.195 0.564 -7.585 20.491 -15.127 -8.247 9.863 -13.662 1.546 -2.132 2.622 -3.637h0.203zm-22.725 14.915h-0.203l0.103 -0.141 -9.901 -13.711 -1.548 -2.148 -4.279 -5.925v-6.926a42.847 42.847 0 0 0 31.645 -0.103v6.747l-4.475 6.183 -1.551 2.156 -9.906 13.722zm51.978 -78.861c0 2.386 -0.651 4.724 -1.882 6.75a12.475 12.475 0 0 1 -5.063 4.697 11.661 11.661 0 0 1 -4.412 1.253l0.076 -25.372c1.898 0.171 3.729 0.792 5.353 1.814 1.627 1.02 3.002 2.414 4.019 4.073 0.637 1.031 1.123 2.151 1.44 3.327 0.312 1.125 0.469 2.289 0.469 3.458M38.861 86.921a12.106 12.106 0 0 1 -4.271 -1.169 12.475 12.475 0 0 1 -5.106 -4.702 13.044 13.044 0 0 1 0.043 -13.619 12.475 12.475 0 0 1 4.043 -4.073 12.068 12.068 0 0 1 5.383 -1.782zm0.092 -33.253v5.622a14.102 14.102 0 0 0 -5.478 1.524c-1.708 0.876 -3.235 2.088 -4.488 3.574a54.283 54.283 0 0 1 3.664 -29.597 52.881 52.881 0 0 1 12.209 -17.654 50.983 50.983 0 0 1 18.05 -11.124c6.698 -2.386 13.803 -3.314 20.868 -2.731s13.934 2.668 20.176 6.123a51.797 51.797 0 0 1 16.103 13.947 53.559 53.559 0 0 1 9.321 19.433c1.774 7.07 2.104 14.443 0.976 21.654a14.644 14.644 0 0 0 -4.466 -3.574 14.102 14.102 0 0 0 -5.456 -1.538v-5.548h-1.09a13.288 13.288 0 0 1 -5.228 -1.074 13.559 13.559 0 0 1 -4.431 -3.056 14.102 14.102 0 0 1 -2.953 -4.575 14.373 14.373 0 0 1 -1.028 -5.388v-1.125H53.681v1.125a14.264 14.264 0 0 1 -4.014 9.909 13.424 13.424 0 0 1 -9.627 4.1zm2.614 41.039a33.627 33.627 0 0 1 -0.529 -5.985l0.092 -32.841a15.647 15.647 0 0 0 10.077 -4.732 16.542 16.542 0 0 0 4.613 -10.373h47.742a16.542 16.542 0 0 0 4.583 10.43 15.62 15.62 0 0 0 10.115 4.748L118.156 88.705q0 1.193 -0.087 2.367 -0.125 1.917 -0.475 3.807C114.468 111.946 98.622 124.963 79.593 124.963s-34.991 -13.104 -38.028 -30.264zm15.154 43.534 6.001 -4.594h0.236l2.639 3.656 1.54 2.129 9.852 13.646 -15.124 8.236 -7.588 -20.464 -0.214 -0.564zm98.278 82.142a8.027 8.027 0 0 1 -2.782 2.294c-1.085 0.54 -2.27 0.819 -3.471 0.816h-20.868V187.816h-2.183v35.677H33.991V187.816h-2.18v35.677H10.991c-1.201 0 -2.386 -0.277 -3.471 -0.814 -1.079 -0.537 -2.031 -1.318 -2.78 -2.286a8.407 8.407 0 0 1 -1.546 -3.303 8.407 8.407 0 0 1 0 -3.666l11.954 -54.102c1.73 -7.826 7.059 -10.761 16.911 -13.717a181.695 181.695 0 0 1 19.986 -4.426l8.629 23.281 17.877 -9.736V189.017h2.183V154.774l17.817 9.687 8.624 -23.349c6.899 1.096 13.733 2.582 20.469 4.453 9.882 2.964 15.214 5.904 16.941 13.722l11.951 54.102c0.274 1.212 0.277 2.468 0.011 3.683a8.407 8.407 0 0 1 -1.554 3.314" fill="#ffffff"/>
</svg>
