<svg width="158" height="133" viewBox="0 0 158 133" fill="none" xmlns="http://www.w3.org/2000/svg">
<path d="M70.9375 73.2691C70.5976 73.3171 70.2576 73.3691 69.9216 73.4331C69.8736 73.9851 69.8256 74.533 69.7736 75.085C70.2296 74.997 70.6936 74.917 71.1615 74.853C71.2415 74.853 71.3255 74.829 71.4055 74.825L71.5495 73.1971C71.3455 73.2131 71.1415 73.2411 70.9375 73.2691ZM69.1656 80.9646C69.1096 81.4966 69.0456 82.0325 68.9816 82.5645H70.5816C70.6456 82.0325 70.7096 81.4966 70.7655 80.9646H69.1656ZM68.6817 85.0323C68.6137 85.5643 68.5457 86.1003 68.4737 86.6322H70.0736C70.1456 86.1003 70.2136 85.5643 70.2816 85.0323H68.6817ZM69.1656 80.9646C69.1096 81.4966 69.0456 82.0325 68.9816 82.5645H70.5816C70.6456 82.0325 70.7096 81.4966 70.7655 80.9646H69.1656ZM68.6817 85.0323C68.6137 85.5643 68.5457 86.1003 68.4737 86.6322H70.0736C70.1456 86.1003 70.2136 85.5643 70.2816 85.0323H68.6817ZM68.1417 89.1001C68.0697 89.636 67.9937 90.168 67.9137 90.6999H69.5136C69.5896 90.168 69.6656 89.632 69.7376 89.1001H68.1417ZM66.4658 99.7993C66.3338 100.555 66.1978 101.307 66.0658 102.067C66.6484 101.594 67.2676 101.167 67.9177 100.791C68.0377 100.123 68.1537 99.4514 68.2657 98.7914C67.6477 99.0941 67.0468 99.4306 66.4658 99.7993ZM68.9976 82.5645H70.5976C70.6616 82.0325 70.7256 81.4966 70.7816 80.9646H69.1816C69.1096 81.4966 69.0456 82.0325 68.9976 82.5645ZM68.4897 86.6322H70.0896C70.1616 86.1003 70.2296 85.5643 70.2976 85.0323H68.6976C68.5977 85.5643 68.5457 86.1003 68.4737 86.6322H68.4897ZM67.9297 90.6999H69.5296C69.6056 90.168 69.6816 89.632 69.7536 89.1001H68.1537C68.0697 89.636 67.9937 90.168 67.9137 90.6999H67.9297ZM61.13 124.878H62.7819C62.9179 124.346 63.0499 123.81 63.1819 123.278H61.534C61.37 123.814 61.234 124.346 61.098 124.878H61.13ZM12.8523 131.277C6.90063 107.503 3.32081 87.6282 2.20086 72.2092C1.5089 62.2098 4.68474 52.8865 11.1404 45.9709C17.3241 39.3474 25.8597 35.6996 35.1753 35.6996H37.0672C45.3735 35.6991 53.3771 38.8175 59.4935 44.4374C65.6098 50.0574 69.3929 57.7691 70.0936 66.0456C70.1376 66.5775 70.1736 67.1095 70.1896 67.6455C70.7229 67.5735 71.2562 67.5135 71.7895 67.4655C71.7695 66.9335 71.7335 66.4016 71.6855 65.8656C71.1097 59.1248 68.5765 52.6992 64.3974 47.3789C60.2183 42.0586 54.5754 38.0756 48.1626 35.9196V20.0726H41.659V12.1452L61.934 12.2132V7.28148L59.2221 6.74952C43.5029 3.66572 34.8233 1.94983 24.5158 7.10149L24.0718 7.32148V12.1212H30.5515V20.0726H24.0718L24.1158 35.8356C18.7045 37.6029 13.8309 40.7161 9.95249 44.883C3.19281 52.1425 -0.131025 61.8659 0.600939 72.3252C1.74088 87.9681 5.40071 108.139 11.4204 132.285L11.5724 132.889H60.626L60.786 132.301C60.878 131.965 60.974 131.625 61.062 131.289L12.8523 131.277ZM25.7037 10.4853V8.29741C35.3553 3.67372 43.8029 5.32961 58.9461 8.29741L60.3661 8.57339V10.5973L25.7037 10.4853ZM40.103 12.2052V20.0526H32.1514V12.2252L40.103 12.2052ZM25.7037 21.6525H46.5747V34.0797H25.6717L25.7037 21.6525ZM65.2778 112.175C64.9325 111.834 64.6154 111.466 64.3299 111.075C64.1939 111.735 64.0499 112.395 63.9059 113.054C64.3294 113.505 64.7867 113.922 65.2738 114.302C65.4018 113.71 65.5298 113.102 65.6538 112.526C65.4938 112.435 65.3658 112.315 65.2458 112.195L65.2778 112.175ZM68.1737 89.0801C68.1017 89.616 68.0257 90.148 67.9457 90.68H69.5456C69.6216 90.148 69.6976 89.612 69.7696 89.0801H68.1737ZM68.7136 85.0123C68.6456 85.5443 68.5777 86.0803 68.5057 86.6122H70.1056C70.1776 86.0803 70.2456 85.5443 70.3136 85.0123H68.7136ZM69.1976 80.9446C69.1416 81.4766 69.0776 82.0125 69.0136 82.5445H70.6136C70.6776 82.0125 70.7416 81.4766 70.7975 80.9446H69.1976ZM68.1737 89.0801C68.1017 89.616 68.0257 90.148 67.9457 90.68H69.5456C69.6216 90.148 69.6976 89.612 69.7696 89.0801H68.1737ZM68.7136 85.0123C68.6456 85.5443 68.5777 86.0803 68.5057 86.6122H70.1056C70.1776 86.0803 70.2456 85.5443 70.3136 85.0123H68.7136ZM69.1976 80.9446C69.1416 81.4766 69.0776 82.0125 69.0136 82.5445H70.6136C70.6776 82.0125 70.7416 81.4766 70.7975 80.9446H69.1976ZM69.1976 80.9446C69.1416 81.4766 69.0776 82.0125 69.0136 82.5445H70.6136C70.6776 82.0125 70.7416 81.4766 70.7975 80.9446H69.1976ZM61.502 123.278C61.37 123.814 61.234 124.346 61.102 124.878H62.7539C62.8899 124.346 63.0219 123.81 63.1539 123.278H61.502ZM68.7016 85.0323C68.6337 85.5643 68.5657 86.1003 68.4937 86.6322H70.0936C70.1656 86.1003 70.2336 85.5643 70.3016 85.0323H68.7016ZM68.1617 89.1001C68.0897 89.636 68.0137 90.168 67.9337 90.6999H69.5336C69.6096 90.168 69.6856 89.632 69.7576 89.1001H68.1617ZM69.1856 80.9646C69.1296 81.4966 69.0656 82.0325 69.0016 82.5645H70.6016C70.6656 82.0325 70.7296 81.4966 70.7855 80.9646H69.1856Z" fill="white"/>
<path d="M45.6595 51.5527H26.1364C22.7111 51.5527 19.426 52.9134 17.0039 55.3355C14.5818 57.7576 13.2211 61.0426 13.2211 64.4679C13.2211 67.8932 14.5818 71.1782 17.0039 73.6003C19.426 76.0223 22.7111 77.383 26.1364 77.383H45.6595C49.0849 77.383 52.37 76.0223 54.7921 73.6003C57.2142 71.1782 58.5749 67.8932 58.5749 64.4679C58.5749 61.0426 57.2142 57.7576 54.7921 55.3355C52.37 52.9134 49.0849 51.5527 45.6595 51.5527ZM45.6595 75.7831H26.1364C23.1354 75.7831 20.2573 74.591 18.1352 72.469C16.0132 70.3469 14.821 67.4689 14.821 64.4679C14.821 61.4669 16.0132 58.5888 18.1352 56.4668C20.2573 54.3448 23.1354 53.1526 26.1364 53.1526H45.6595C48.6606 53.1526 51.5387 54.3448 53.6607 56.4668C55.7828 58.5888 56.975 61.4669 56.975 64.4679C56.975 67.4689 55.7828 70.3469 53.6607 72.469C51.5387 74.591 48.6606 75.7831 45.6595 75.7831Z" fill="white"/>
<path d="M104.079 85.0337H102.479L102.695 86.6336H104.295L104.079 85.0337ZM103.543 80.966H101.943C102.011 81.4979 102.083 82.0339 102.151 82.5659H103.751C103.683 82.0339 103.611 81.5019 103.543 80.966ZM104.63 89.1014H103.031C103.103 89.6374 103.179 90.1693 103.251 90.7013H104.85C104.778 90.1693 104.706 89.6334 104.63 89.1014ZM103.543 80.966H101.943C102.011 81.4979 102.083 82.0339 102.151 82.5659H103.751C103.683 82.0339 103.611 81.5019 103.543 80.966ZM104.079 85.0337H102.479L102.695 86.6336H104.295L104.079 85.0337ZM104.63 89.1014H103.031C103.103 89.6374 103.179 90.1693 103.251 90.7013H104.85C104.778 90.1693 104.706 89.6334 104.63 89.1014ZM103.543 80.966H101.943C102.011 81.4979 102.083 82.0339 102.151 82.5659H103.751C103.683 82.0339 103.611 81.5019 103.543 80.966ZM104.079 85.0337H102.479L102.695 86.6336H104.295L104.079 85.0337ZM104.63 89.1014H103.031C103.103 89.6374 103.179 90.1693 103.251 90.7013H104.85C104.778 90.1693 104.706 89.6334 104.63 89.1014ZM157.496 5.65093V5.06697L156.94 4.89098C137.265 -1.36861 117.318 -1.36861 97.6428 4.89098L97.1188 5.05897L97.0869 5.61093C96.1109 23.2098 97.6948 45.2283 100.335 68.0068L100.527 69.6467C101.05 69.4604 101.562 69.2427 102.059 68.9948C101.991 68.4268 101.927 67.8588 101.859 67.2949C99.2947 45.0123 97.7548 23.5057 98.6588 6.24289C117.28 0.313318 137.283 0.313318 155.904 6.24289C156 36.4009 151.196 77.1102 146.444 113.132H114.194V114.732H146.3V117.34H114.194V118.939H146.3V131.279H106.382V132.879H147.9V114.244L147.928 114.036C152.756 77.5582 157.66 36.1449 157.496 5.65093ZM107.99 123.279H106.39V124.879H107.99V123.279ZM103.019 89.1014C103.091 89.6374 103.167 90.1693 103.239 90.7013H104.838C104.766 90.1693 104.694 89.6334 104.618 89.1014H103.019ZM104.079 85.0337H102.479L102.695 86.6336H104.295L104.079 85.0337ZM103.543 80.966H101.943C102.011 81.4979 102.083 82.0339 102.151 82.5659H103.751C103.683 82.0339 103.611 81.5019 103.543 80.966ZM104.63 89.1014H103.031C103.103 89.6374 103.179 90.1693 103.251 90.7013H104.85C104.778 90.1693 104.706 89.6334 104.63 89.1014ZM104.079 85.0337H102.479L102.695 86.6336H104.295L104.079 85.0337ZM103.543 80.966H101.943C102.011 81.4979 102.083 82.0339 102.151 82.5659H103.751C103.683 82.0339 103.611 81.5019 103.543 80.966ZM102.679 74.1664C102.2 74.4872 101.695 74.7682 101.171 75.0064C101.239 75.5583 101.311 76.1103 101.379 76.6622C101.901 76.448 102.409 76.1994 102.899 75.9183C102.823 75.3423 102.751 74.7384 102.679 74.1424V74.1664ZM104.63 89.1134H103.031C103.103 89.6494 103.179 90.1813 103.251 90.7133H104.85C104.778 90.1693 104.706 89.6334 104.63 89.1014V89.1134ZM104.079 85.0457H102.479L102.695 86.6456H104.295L104.079 85.0457Z" fill="white"/>
<path d="M127.154 17.1602C116.726 17.1602 108.563 21.4279 108.563 26.8755C108.563 32.3232 116.726 36.5869 127.154 36.5869C137.581 36.5869 145.745 32.3232 145.745 26.8755C145.745 21.4279 137.581 17.1602 127.154 17.1602ZM127.154 34.987C117.954 34.987 110.163 31.2712 110.163 26.8755C110.163 22.4798 117.942 18.7601 127.154 18.7601C136.365 18.7601 144.145 22.4758 144.145 26.8755C144.145 31.2752 136.365 34.987 127.154 34.987Z" fill="white"/>
<path d="M112.578 89.1027V82.1632C113.378 81.4592 114.942 79.3874 114.686 74.1157C114.286 66.1163 108.287 62.9165 108.019 62.8045L107.471 62.5205L107.071 62.9805C105.59 64.701 103.833 66.1623 101.871 67.3042C101.38 67.577 100.871 67.8149 100.347 68.0161C98.7961 68.5753 97.1598 68.8609 95.5112 68.8601C93.1393 68.9641 90.7914 68.3441 88.0716 67.6202C83.9238 66.5202 78.908 65.1883 71.6723 65.8723C71.1564 65.9203 70.6244 65.9763 70.0724 66.0483C69.5204 66.1203 68.8725 66.2163 68.2445 66.3203L67.7845 66.3963C67.3845 66.4682 66.9846 66.5442 66.6126 66.6322C61.8448 67.6882 58.461 69.788 56.0731 72.0919C55.4254 72.7152 54.8226 73.3834 54.2692 74.0917C52.6557 76.1316 51.4597 78.4693 50.7494 80.9713C50.6374 81.3713 50.5934 81.6192 50.5894 81.6352V81.6832V89.1027H47.3535V132.892H115.802V89.1027H112.578ZM66.4886 68.3041C67.0006 68.1801 67.5285 68.0681 68.0885 67.9721H68.1325C68.8365 67.8482 69.5244 67.7402 70.1924 67.6562C70.7257 67.5842 71.259 67.5242 71.7923 67.4762C78.78 66.8202 83.6478 68.1081 87.6716 69.1761C90.5234 69.932 92.9833 70.58 95.5952 70.468C97.2787 70.461 98.9508 70.1911 100.551 69.668C101.074 69.4817 101.586 69.264 102.083 69.0161C103.799 68.1681 105.683 66.7922 107.815 64.5484C109.398 65.6235 110.704 67.0596 111.624 68.7383C112.544 70.417 113.052 72.2902 113.106 74.2037C113.334 78.9754 111.95 80.6033 111.534 80.9793H52.4093C53.2052 78.3115 56.3211 70.768 66.4886 68.3041ZM52.2053 82.5672H111.002V85.035H52.2053V82.5672ZM52.2053 86.6349H111.002V89.1027H52.2053V86.6349ZM114.202 131.292H48.9494V124.892H114.202V131.292ZM114.202 123.292H48.9494V90.7026H114.202V123.292Z" fill="white"/>
<path d="M81.5799 95.9717C76.4322 95.9717 71.7924 97.0236 68.2686 98.7715C67.6518 99.0769 67.0522 99.4161 66.4727 99.7874C66.0747 100.033 65.6901 100.3 65.3207 100.587L65.2527 100.643C64.6767 101.094 64.1413 101.595 63.6528 102.139L63.5728 102.227C63.1684 102.687 62.8081 103.184 62.4969 103.711C62.3486 103.978 62.2151 104.253 62.0969 104.535C61.9849 104.791 61.8849 105.051 61.8009 105.311C61.5858 106.01 61.4726 106.736 61.4649 107.467C61.5088 109.458 62.2965 111.36 63.6728 112.799C63.7448 112.883 63.8208 112.963 63.9008 113.043C64.3243 113.493 64.7816 113.91 65.2687 114.29C68.8966 117.158 74.8043 118.99 81.5959 118.99C92.8874 118.99 101.735 113.926 101.735 107.463C101.735 100.999 92.8714 95.9717 81.5799 95.9717ZM81.5799 117.426C74.8003 117.426 68.8605 115.466 65.6287 112.547C65.5007 112.435 65.3727 112.315 65.2527 112.195C64.9074 111.854 64.5903 111.486 64.3048 111.095C64.0558 110.759 63.8375 110.402 63.6528 110.027C63.258 109.244 63.0499 108.38 63.0448 107.503C63.0445 107.054 63.1009 106.606 63.2128 106.171C63.2823 105.89 63.3733 105.614 63.4848 105.347C63.7255 104.774 64.0416 104.236 64.4248 103.747C64.639 103.466 64.8714 103.198 65.1207 102.947L65.2527 102.811C65.5064 102.553 65.7735 102.309 66.0527 102.079C66.6353 101.606 67.2546 101.179 67.9046 100.803C71.2964 98.8235 76.1642 97.5796 81.5639 97.5796C91.7874 97.5796 100.103 102.031 100.103 107.507C100.103 112.983 91.8034 117.426 81.5799 117.426Z" fill="white"/>
<path d="M106.389 72.0832C106.033 73.0871 105.145 74.615 102.901 75.907C102.411 76.1881 101.903 76.4366 101.381 76.6509C100.295 77.0887 99.1722 77.4261 98.0251 77.6588C93.2573 78.6548 89.0015 77.5508 84.4978 76.3789C80.394 75.315 76.1502 74.2111 71.4064 74.827C71.3264 74.827 71.2424 74.827 71.1624 74.855C70.6944 74.919 70.2304 74.999 69.7745 75.087C68.9745 75.247 68.2105 75.435 67.4706 75.643C66.9026 75.799 66.3506 75.9709 65.8227 76.1509C63.5992 76.8912 61.4553 77.8519 59.423 79.0188L58.599 77.6588C60.925 76.3065 63.3949 75.2185 65.9626 74.4151C66.4906 74.2471 67.0386 74.0871 67.6066 73.9431C68.3505 73.7511 69.1225 73.5751 69.9145 73.4351C70.2504 73.3711 70.5904 73.3191 70.9304 73.2711C71.1344 73.2431 71.3304 73.2151 71.5424 73.1991C76.4461 72.6352 80.7419 73.7511 84.8897 74.831C89.2095 75.951 93.2893 77.0109 97.6891 76.0909C98.8849 75.8559 100.051 75.4883 101.165 74.995C101.69 74.7568 102.194 74.4759 102.673 74.1551C103.53 73.614 104.23 72.8567 104.701 71.9592C105.129 71.0753 105.065 70.3993 104.989 70.2513C104.989 70.2513 104.989 70.2513 105.017 70.2913L106.253 69.2754C106.729 69.8434 106.777 70.9713 106.389 72.0832Z" fill="white"/>
</svg>
