<svg width="59" height="84" viewBox="0 0 59 84" fill="white" xmlns="http://www.w3.org/2000/svg">
<path d="M34.9703 65.1689L34.9248 65.2288H35.0134L34.9703 65.1689Z" />
<path d="M34.9703 65.1689L34.9248 65.2288H35.0134L34.9703 65.1689Z" />
<path d="M58.508 78.5115L54.1003 58.5719C53.3781 55.3046 51.1512 54.0566 47.2867 52.8977C44.7046 52.1809 42.0852 51.6154 39.441 51.2039L36.0372 48.6021V45.4302C40.6138 43.2721 43.8688 38.9703 44.3194 33.9263C44.3516 33.5842 44.3697 33.2359 44.3737 32.8897C44.6611 32.8708 44.9464 32.8271 45.2267 32.7591C46.4062 32.4742 47.4576 31.7866 48.21 30.808C48.9623 29.8295 49.3714 28.6174 49.3708 27.3689C49.3725 26.444 49.1461 25.5337 48.713 24.7236C49.2988 21.7695 49.2398 18.7181 48.5404 15.7903C47.841 12.8625 46.5187 10.1317 44.6691 7.79537C42.8196 5.45908 40.4891 3.57582 37.8463 2.28195C35.2036 0.988068 32.3148 0.315938 29.3889 0.314212C26.4631 0.312487 23.5735 0.981211 20.9294 2.27197C18.2852 3.56273 15.9526 5.44323 14.1005 7.77734C12.2483 10.1115 10.9229 12.8408 10.2203 15.7677C9.51766 18.6946 9.45533 21.746 10.0378 24.7008C9.63598 25.4493 9.40843 26.2838 9.37312 27.1385C9.33781 27.9932 9.49571 28.8446 9.83437 29.6257C10.173 30.4067 10.6832 31.0959 11.3245 31.639C11.9659 32.1821 12.721 32.5641 13.5302 32.755C13.7948 32.818 14.0639 32.8596 14.3348 32.8794C14.3348 33.2069 14.3529 33.5303 14.3811 33.8475C14.8136 38.9578 18.1169 43.3114 22.7599 45.4572V48.5213L19.2515 51.2039C16.6747 51.6122 14.1224 52.1708 11.607 52.877C7.75051 54.0338 5.52354 55.2797 4.80134 58.5491L0.393675 78.499C0.265419 79.0666 0.263314 79.6567 0.387516 80.2252C0.511718 80.7937 0.759016 81.326 1.11092 81.7821C1.46282 82.2383 1.91023 82.6065 2.4197 82.8594C2.92916 83.1123 3.4875 83.2432 4.05298 83.2424H54.8487C55.4123 83.2422 55.9687 83.1113 56.4765 82.8592C56.9844 82.6072 57.4306 82.2405 57.7821 81.7865C58.1336 81.3324 58.3814 80.8026 58.5071 80.2364C58.6327 79.6701 58.6331 79.082 58.508 78.5156V78.5115ZM37.7753 50.9552L38.7812 51.7201L38.7087 51.9275L35.9125 59.4841L30.334 56.4428L33.9712 51.405L34.5405 50.6193L35.5081 49.278H35.5825L37.7753 50.9552ZM29.3945 56.4552H29.3201L29.3583 56.4034L25.707 51.347L25.1357 50.555L23.5585 48.3699V45.8158C27.3183 47.2919 31.4757 47.2786 35.2265 45.7785V48.2663L33.5769 50.5467L33.0055 51.3408L29.3523 56.4013L29.3945 56.4552ZM48.5621 27.3751C48.5616 28.2552 48.3212 29.1175 47.8685 29.8637C47.4157 30.61 46.7687 31.2102 46.0012 31.5961C45.6096 31.7967 45.1913 31.9365 44.76 32.0107C44.6332 32.0335 44.5045 32.0459 44.3737 32.0584L44.4019 22.7023C45.1012 22.7655 45.7769 22.9943 46.3764 23.3708C46.9759 23.7473 47.4829 24.2613 47.858 24.8728C48.0927 25.2528 48.2716 25.6664 48.3891 26.1002C48.5039 26.5148 48.5621 26.9439 48.5621 27.3751ZM14.3288 32.0522C14.2141 32.0418 14.1035 32.0294 13.9928 32.0107C13.5639 31.9422 13.1466 31.811 12.7536 31.621C11.9804 31.237 11.3279 30.6361 10.871 29.8873C10.4141 29.1385 10.1714 28.2721 10.1706 27.3876C10.1715 26.4935 10.4199 25.6182 10.8868 24.8646C11.2643 24.2518 11.7748 23.7379 12.3781 23.3634C12.9814 22.9888 13.6609 22.7639 14.363 22.7064L14.3288 32.0522ZM14.363 19.7895V21.8626C13.6604 21.9111 12.974 22.1022 12.3432 22.4249C11.7125 22.7476 11.1498 23.1955 10.6876 23.743C10.5271 22.721 10.4471 21.6872 10.4482 20.6519C10.4488 17.9589 10.9903 15.2952 12.0389 12.8286C13.0874 10.3619 14.6201 8.14559 16.5405 6.3193C18.4609 4.493 20.7275 3.09623 23.1974 2.21693C25.6674 1.33764 28.2872 0.994858 30.892 1.21018C33.4968 1.4255 36.0302 2.19426 38.3325 3.46806C40.6349 4.74185 42.6564 6.49308 44.2698 8.6115C45.8832 10.7299 47.0535 13.1696 47.707 15.777C48.3606 18.3844 48.4832 21.103 48.0672 23.7616C47.6074 23.2151 47.0475 22.7674 46.4196 22.444C45.7917 22.1207 45.1081 21.9281 44.4079 21.8771V19.8309H44.0056C43.3439 19.8309 42.6888 19.6964 42.0777 19.435C41.4666 19.1737 40.9115 18.7906 40.4443 18.3078C39.9771 17.825 39.607 17.2519 39.3551 16.6214C39.1032 15.9909 38.9744 15.3154 38.9763 14.6336V14.2189H19.7946V14.6336C19.7904 16.0053 19.2586 17.3193 18.3159 18.2877C17.3732 19.2561 16.0964 19.7999 14.7653 19.7998L14.363 19.7895ZM15.3266 34.9235C15.2437 34.4601 15.1873 33.9922 15.1576 33.522C15.1395 33.2567 15.1315 32.9872 15.1315 32.7156L15.1657 20.6063C16.5677 20.504 17.8869 19.8846 18.8819 18.8615C19.8768 17.8385 20.4808 16.4803 20.5832 15.0357H38.1877C38.2817 16.4863 38.8825 17.8527 39.8789 18.8819C40.8753 19.911 42.1999 20.5332 43.6073 20.6333L43.571 32.7094C43.571 33.0017 43.561 33.294 43.5389 33.5822C43.5081 34.0532 43.4496 34.5219 43.3638 34.9857C42.2111 41.2798 36.3671 46.0812 29.3503 46.0812C22.3334 46.0812 16.4471 41.2487 15.3266 34.9214V34.9235ZM20.9151 50.9759L23.128 49.2821H23.2145L24.1882 50.6297L24.7555 51.4154L28.3887 56.4469L22.8122 59.4841L20.0139 51.9378L19.9354 51.7305L20.9151 50.9759ZM57.1541 81.2667C56.8787 81.6247 56.5282 81.9138 56.129 82.1124C55.7297 82.3109 55.292 82.4137 54.8487 82.4131H47.1539V69.2569H46.3492V82.4131H12.5344V69.2569H11.7297V82.4131H4.05298C3.6101 82.4134 3.17287 82.3107 2.77377 82.1129C2.37468 81.915 2.024 81.627 1.74778 81.2702C1.47156 80.9134 1.27692 80.4971 1.17832 80.0522C1.07972 79.6072 1.07969 79.1451 1.17824 78.7001L5.5859 58.7502C6.22362 55.8644 8.18906 54.7822 11.8222 53.6917C14.2476 53.0088 16.7076 52.4641 19.1911 52.0601L22.3736 60.6451L28.966 57.0544V69.7006H29.7707V57.073L36.341 60.6451L39.5215 52.0353C42.0649 52.4388 44.5847 52.987 47.0694 53.6772C50.7126 54.7698 52.6781 55.854 53.3158 58.7378L57.7234 78.6877C57.8241 79.1339 57.8252 79.5979 57.7266 80.0447C57.628 80.4914 57.4322 80.9092 57.1541 81.2667Z" fill="#142061"/>
</svg>
