<svg width="133" height="153" viewBox="0 0 133 153" fill="none" xmlns="http://www.w3.org/2000/svg">
<path d="M101.92 13.6538H99.252V21.6792H101.92V13.6538Z" fill="white"/>
<path d="M122.322 55.6654L120.988 57.9863L127.97 61.999L129.304 59.6781L122.322 55.6654Z" fill="white"/>
<path d="M132.503 44.228H124.478V46.8957H132.503V44.228Z" fill="white"/>
<path d="M127.571 28.4658L120.621 32.4785L121.955 34.7888L128.905 30.7761L127.571 28.4658Z" fill="white"/>
<path d="M52.7506 15.9396L52.5817 15.2682H48.2512V4.21499H39.3945V0H30.649V4.21055H21.7968V15.2638H17.4397L17.2707 15.9396C7.12025 56.4667 1.47814 100.066 0.5 145.586V146.475V147.365V152.06H69.5613V145.586C69.837 104.246 64.3461 61.8243 52.7506 15.9396ZM32.4275 1.77848H37.6161V4.09939H32.4275V1.77848ZM23.5753 5.99347H46.4727V15.2682H23.5753V5.99347ZM18.8268 17.0467H51.1945C62.6388 62.5313 68.063 104.597 67.774 145.586H2.27399C3.24769 100.484 8.81866 57.227 18.8268 17.0467ZM67.7829 150.281H2.25621V147.369H67.7829V150.281Z" fill="white"/>
<path d="M35.0203 68.769C24.5142 68.769 15.9688 74.3935 15.9688 81.3118C15.9688 88.23 24.5142 93.8589 35.0203 93.8589C45.5265 93.8589 54.0719 88.23 54.0719 81.3118C54.0719 74.3935 45.5265 68.769 35.0203 68.769ZM35.0203 92.0804C25.4968 92.0804 17.7472 87.2519 17.7472 81.3118C17.7472 75.3716 25.4968 70.5475 35.0203 70.5475C44.5439 70.5475 52.2934 75.3761 52.2934 81.3118C52.2934 87.2474 44.5483 92.0804 35.0203 92.0804Z" fill="white"/>
<path d="M100.586 25.7852C96.6762 25.7852 92.8544 26.9445 89.6036 29.1166C86.3529 31.2887 83.8193 34.376 82.3231 37.9881C80.827 41.6002 80.4355 45.5749 81.1983 49.4094C81.961 53.244 83.8436 56.7663 86.6082 59.5308C89.3727 62.2954 92.8949 64.1781 96.7294 64.9409C100.564 65.7036 104.538 65.3121 108.15 63.816C111.762 62.3198 114.85 59.7861 117.022 56.5353C119.194 53.2845 120.353 49.4626 120.353 45.5529C120.347 40.312 118.263 35.2874 114.557 31.5815C110.851 27.8756 105.827 25.791 100.586 25.7852ZM100.586 62.653C97.2038 62.653 93.8978 61.6501 91.0857 59.7711C88.2737 57.8921 86.082 55.2215 84.7877 52.0968C83.4935 48.9722 83.1549 45.534 83.8147 42.2169C84.4745 38.8998 86.1031 35.8528 88.4945 33.4614C90.8859 31.0699 93.9328 29.4413 97.2498 28.7814C100.567 28.1216 104.005 28.4603 107.13 29.7545C110.254 31.0488 112.925 33.2406 114.804 36.0526C116.683 38.8647 117.686 42.1709 117.686 45.5529C117.688 47.8009 117.247 50.0273 116.389 52.105C115.531 54.1827 114.272 56.0711 112.685 57.6623C111.097 59.2535 109.211 60.5163 107.135 61.3787C105.059 62.2411 102.834 62.6862 100.586 62.6885V62.653Z" fill="white"/>
<path d="M85.7963 17.2672L83.4861 18.6011L87.4987 25.5513L89.809 24.2174L85.7963 17.2672Z" fill="white"/>
<path d="M73.8727 27.9564L72.5389 30.2773L79.5209 34.29L80.8547 31.9691L73.8727 27.9564Z" fill="white"/>
<path d="M76.6969 44.228H68.6717V46.8957H76.6969V44.228Z" fill="white"/>
<path d="M79.241 56.3682L72.2909 60.3809L73.6248 62.6912L80.5748 58.6785L79.241 56.3682Z" fill="white"/>
<path d="M87.4987 65.5669L83.4861 72.5171L85.7963 73.8509L89.809 66.9008L87.4987 65.5669Z" fill="white"/>
<path d="M101.92 69.4585H99.252V77.4839H101.92V69.4585Z" fill="white"/>
<path d="M113.679 65.5958L111.369 66.9297L115.382 73.8799L117.692 72.546L113.679 65.5958Z" fill="white"/>
<path d="M115.372 17.2583L111.359 24.2085L113.67 25.5424L117.682 18.5922L115.372 17.2583Z" fill="white"/>
</svg>
