<?xml version="1.0" encoding="UTF-8" standalone="no" ?>
<!DOCTYPE svg PUBLIC "-//W3C//DTD SVG 1.1//EN" "http://www.w3.org/Graphics/SVG/1.1/DTD/svg11.dtd">
<svg xmlns="http://www.w3.org/2000/svg" xmlns:xlink="http://www.w3.org/1999/xlink" version="1.1" width="1080" height="1080" viewBox="0 0 1080 1080" xml:space="preserve">
<desc>Created with Fabric.js 5.2.4</desc>
<defs>
</defs>
<rect x="0" y="0" width="100%" height="100%" fill="transparent"></rect>
<g transform="matrix(1 0 0 1 540 540)" id="46253be8-eab2-441f-a07d-e215919499ac"  >
<rect style="stroke: none; stroke-width: 1; stroke-dasharray: none; stroke-linecap: butt; stroke-dashoffset: 0; stroke-linejoin: miter; stroke-miterlimit: 4; fill: rgb(255,255,255); fill-rule: nonzero; opacity: 1; visibility: hidden;" vector-effect="non-scaling-stroke"  x="-540" y="-540" rx="0" ry="0" width="1080" height="1080" />
</g>
<g transform="matrix(1 0 0 1 540 540)" id="4684f915-625e-45e1-9355-6c91d21b7319"  >
</g>
<g transform="matrix(1 0 0 1 540.35 540.47)"  >
<g style="opacity: 1;" vector-effect="non-scaling-stroke"   >
		<g transform="matrix(1 0 0 1 -38.91 14.65)"  >
<path style="stroke: none; stroke-width: 5; stroke-dasharray: none; stroke-linecap: butt; stroke-dashoffset: 0; stroke-linejoin: miter; stroke-miterlimit: 4; fill: rgb(255,255,255); fill-rule: nonzero; opacity: 1;" vector-effect="non-scaling-stroke"  transform=" translate(-501.1, -554.61)" d="M 509.31 758.53 C 489.8 758.53 476.83 753.85 476.07 753.53 L 475.95 753.48 C 475.57 753.33 437.5 738.13 393.82 742.07 C 393.3532134493966 742.1101034832834 392.8830069591928 742.0695101172226 392.43 741.95 C 333.43 726.26 332.36 675.57 332.34000000000003 673.4200000000001 C 332.34000000000003 673.2700000000001 332.34000000000003 673.1300000000001 332.34000000000003 672.9900000000001 C 332.23 670.9100000000001 331.97 658.9300000000002 340.34000000000003 652.5000000000001 C 346.66 647.6700000000001 355.85 647.3800000000001 367.66 651.6500000000001 C 369.04269198828126 652.106328220312 370.06820549962197 653.2779543588292 370.33742343914696 654.7088961047252 C 370.606641378672 656.1398378506213 370.0770345605856 657.6040449359189 368.9547193668987 658.5316661868234 C 367.8324041732118 659.4592874377279 366.29467618637244 659.703783672648 364.94 659.1700000000001 C 358.69 656.9100000000001 350.2 655.0300000000001 345.2 658.85 C 339.68 663.07 340.28 672.5400000000001 340.28999999999996 672.63 C 340.30987453096697 672.8595706554553 340.30987453096697 673.0904293445448 340.28999999999996 673.32 C 340.28999999999996 675.72 341.61999999999995 719.8100000000001 393.77 734.0400000000001 C 438.56 730.19 476.33 745.0400000000001 478.83 746.0400000000001 C 479.99 746.45 504.37 754.8000000000001 535.64 747.4100000000001 C 577.87 737.4100000000001 613.7 703.2900000000001 639.27 648.6400000000001 C 674.37 573.5800000000002 662.18 514.8400000000001 645.76 478.7700000000001 C 628.76 441.4800000000001 601.76 416.7700000000001 583.86 411.6300000000001 C 568.97 407.3700000000001 554.03 405.0600000000001 539.59 402.8300000000001 C 521.29 400 504 397.36 488.57 391 C 479.08 387.07 469.06 377 458.77 361 C 442.09999999999997 378.11 433.06 394.75 430.41999999999996 413.07 C 426.60999999999996 439.52 449.25999999999993 465.46 456.69999999999993 473.98 L 457.0799999999999 474.41 C 457.29493612427336 474.6607579168441 457.4795448060061 474.93599267870013 457.62999999999994 475.23 C 459.48999999999995 478.88 460.53999999999996 484.49 461.74999999999994 490.98 C 464.0299999999999 503.16 466.86999999999995 518.3000000000001 475.5199999999999 521.1800000000001 C 480.63999999999993 522.2900000000001 484.9199999999999 519.45 488.7099999999999 516.94 C 491.9199999999999 514.8000000000001 494.94999999999993 512.7800000000001 498.2899999999999 514.12 C 501.2899999999999 515.3100000000001 502.75999999999993 518.76 505.5799999999999 525.8100000000001 C 507.13999999999993 529.71 510.37999999999994 537.8100000000001 512.41 538.6500000000001 C 516.7199999999999 539.8400000000001 522.62 538.44 524.53 537.8000000000001 C 525.661538472609 537.4157193133557 526.9056258656243 537.5574819805821 527.9217019517895 538.1864814624939 C 528.9377780379547 538.8154809444057 529.6194078530461 539.8658289298169 529.78 541.0500000000001 C 529.78 541.2800000000001 533.2099999999999 564.5600000000001 548.99 565.1500000000001 L 549.12 565.1500000000001 C 581.83 567.4800000000001 604 520.0900000000001 604.22 519.6100000000001 C 605.1423155322175 517.6024449343652 607.5174449343651 516.7226844677828 609.525 517.6450000000001 C 611.5325550656349 518.5673155322175 612.4123155322175 520.9424449343652 611.49 522.9500000000002 C 610.49 525.1100000000001 586.79 575.7600000000002 548.62 573.1400000000001 C 531.2 572.44 524.79 554.8700000000001 522.72 546.4800000000001 C 518.6010915837752 547.3552905215445 514.3397814121054 547.310901873923 510.24 546.3500000000001 C 504.55 544.7700000000001 501.3 536.6400000000001 498.15000000000003 528.7800000000001 C 497.28000000000003 526.59 496.15000000000003 523.7800000000001 495.32000000000005 522.2 C 494.64000000000004 522.6 493.81000000000006 523.1500000000001 493.13000000000005 523.6 C 488.75000000000006 526.52 482.13000000000005 530.9200000000001 473.56000000000006 528.94 L 473.26000000000005 528.86 C 459.9200000000001 524.66 456.57000000000005 506.8 453.89000000000004 492.45000000000005 C 452.89000000000004 487.09000000000003 451.94000000000005 482.01000000000005 450.69000000000005 479.26000000000005 L 450.69000000000005 479.26000000000005 C 442.69000000000005 470.05000000000007 418.19000000000005 442.0400000000001 422.52000000000004 411.95000000000005 C 425.6 390.55000000000007 436.46000000000004 371.44000000000005 456.69000000000005 351.81000000000006 C 457.43738958688067 351.08442336591025 458.4383418575942 350.67901975805853 459.4800000000001 350.68000000000006 C 461.75000000000006 350.68000000000006 462.63000000000005 352.0900000000001 463.8400000000001 354.0400000000001 C 476.30000000000007 374.13000000000005 485.8400000000001 381.2100000000001 491.6500000000001 383.62000000000006 C 506.1500000000001 389.62000000000006 523.0200000000001 392.2300000000001 540.8800000000001 394.9800000000001 C 555.5700000000002 397.25000000000006 570.7600000000001 399.6000000000001 586.1300000000001 403.9800000000001 C 605.8100000000001 409.62000000000006 635.1300000000001 435.9800000000001 653.1300000000001 475.50000000000006 C 664.2426247551468 499.9770439519948 669.9586414274684 526.5585677849745 669.8900000000001 553.44 C 669.95 585.73 662.1100000000001 618.9100000000001 646.6000000000001 652.07 C 631.7500000000001 683.83 613.6000000000001 708.95 592.6900000000002 726.73 C 575.8200000000002 741.08 557.1200000000001 750.73 537.1200000000001 755.35 C 528.0014293193985 757.4660662602362 518.6708791646231 758.5329900104047 509.31 758.53 Z M 340.31 673.53 C 340.08780106872734 675.1310641414163 338.9238185796331 676.4410376545666 337.36 676.85 C 338.9217193069773 676.4473248934958 340.0888382875849 675.1461449488994 340.32 673.55 Z" stroke-linecap="round" />
</g>
		<g transform="matrix(1 0 0 1 21.5 0)"  >
<path style="stroke: none; stroke-width: 5; stroke-dasharray: none; stroke-linecap: butt; stroke-dashoffset: 0; stroke-linejoin: miter; stroke-miterlimit: 4; fill: rgb(255,255,255); fill-rule: nonzero; opacity: 1;" vector-effect="non-scaling-stroke"  transform=" translate(-561.52, -539.96)" d="M 538.18 823.73 C 518.0968247350013 823.697876048104 498.0809902736419 821.4068060066916 478.50999999999993 816.9 C 452.3999999999999 810.9 429.7699999999999 802.18 404.24999999999994 779.05 C 398.0185177635665 773.3900176520478 392.5794265795928 766.9149090996982 388.0799999999999 759.8 C 377.74999999999994 743.5 369.67999999999995 732.5 369.5999999999999 732.39 C 368.29108514290095 730.6088816817957 368.6738816817956 728.103914857099 370.45499999999987 726.795 C 372.2361183182042 725.4860851429011 374.7410851429009 725.8688816817956 376.0499999999999 727.65 C 376.1299999999999 727.76 384.3499999999999 738.97 394.8399999999999 755.51 C 398.9484191605313 762.0208012939158 403.92034001892915 767.9447205304779 409.61999999999995 773.12 C 433.9399999999999 795.12 454.6999999999999 803.23 480.2999999999999 809.12 C 521.9399999999999 818.68 626.79 830.96 700.7399999999999 738.9 C 763.3799999999999 660.9 746.4199999999998 563.3299999999999 736.2199999999999 525 C 734.2581247927369 517.6293948935802 731.5473458246429 510.4788357861479 728.1299999999999 503.66 C 722.3299999999999 492.11 711.6999999999999 470.45000000000005 705.5799999999999 455.16 C 702.1899999999999 446.66 701.7299999999999 436.72 701.1999999999999 425.22 C 700.31 405.65000000000003 699.1999999999999 381.3 682.9499999999999 351.71000000000004 C 651.83 295 619.7 279 589.6 270.2 C 544.47 256.96 481.32000000000005 262.58 439.44000000000005 318.09 C 416.74000000000007 348.17999999999995 409.44000000000005 378.88 417.74000000000007 409.33 C 421.3597264554057 422.82977336387495 427.90815331148156 435.36669902368243 436.92000000000013 446.05 C 438.4304987907873 447.6626714695059 438.347671469506 450.1945012092127 436.7350000000001 451.7049999999999 C 435.1223285304942 453.2154987907872 432.5904987907873 453.1326714695059 431.0800000000001 451.52 C 430.5000000000001 450.9 416.7300000000001 436 410.0300000000001 411.42999999999995 C 403.8400000000001 388.7699999999999 402.8200000000001 353.3399999999999 433.0300000000001 313.27 C 477.36000000000007 254.51 544.1200000000001 248.51999999999998 591.82 262.52 C 623.5600000000001 271.84 657.4200000000001 288.62 689.9300000000001 347.84 C 707.07 379.05999999999995 708.23 404.44 709.1700000000001 424.84 C 709.6600000000001 435.61999999999995 710.09 444.92999999999995 712.98 452.17999999999995 C 718.98 467.17999999999995 729.51 488.61999999999995 735.25 500.05999999999995 C 738.9417019977609 507.3602984085205 741.8737562270734 515.0204995150444 744 522.92 C 748.63 540.31 756.06 575.5899999999999 753.79 616.42 C 751 665.79 735.26 708.68 707 743.89 C 672.3 787.0799999999999 627.49 813.0699999999999 573.8199999999999 821.13 C 562.0211622601674 822.8815315994889 550.1081184697946 823.7506088681469 538.18 823.73 Z" stroke-linecap="round" />
</g>
		<g transform="matrix(1 0 0 1 -42.16 146.93)"  >
<path style="stroke: none; stroke-width: 5; stroke-dasharray: none; stroke-linecap: butt; stroke-dashoffset: 0; stroke-linejoin: miter; stroke-miterlimit: 4; fill: rgb(255,255,255); fill-rule: nonzero; opacity: 1;" vector-effect="non-scaling-stroke"  transform=" translate(-497.85, -686.88)" d="M 607.86 710 C 606.7126661781716 710.0010758529165 605.6201084867221 709.5094248917642 604.86 708.65 C 592.86 695.1 565.53 681.79 536.94 675.55 C 517.1600000000001 671.2299999999999 480.06000000000006 666.77 453.7800000000001 685.4 C 436.7800000000001 697.4 421.2200000000001 702.1 407.4100000000001 699.3 C 398.0804478612303 697.4525776991954 389.83360124118747 692.0526859558108 384.4100000000001 684.24 C 383.34260806946503 682.3718475120411 383.94422018128625 679.9940324238336 385.7716278262072 678.8582945355323 C 387.59903547112805 677.7225566472309 389.9974694516705 678.2358364615393 391.2000000000001 680.02 C 395.47765063668805 686.0085265580126 401.899837994503 690.1168639252261 409.1300000000001 691.49 C 420.6600000000001 693.77 434.1300000000001 689.49 449.1300000000001 678.88 C 477.9100000000001 658.47 517.5500000000001 663.14 538.6100000000001 667.74 C 568.7300000000001 674.3100000000001 597.7400000000001 688.62 610.8100000000002 703.34 C 611.8594324013525 704.5185730233027 612.1178433941825 706.2040005026515 611.4697153531772 707.6428447536833 C 610.8215873121718 709.0816890047151 609.3880740956981 710.0049884618552 607.8100000000002 710 Z" stroke-linecap="round" />
</g>
		<g transform="matrix(1 0 0 1 -114.96 73.12)"  >
<path style="stroke: none; stroke-width: 5; stroke-dasharray: none; stroke-linecap: butt; stroke-dashoffset: 0; stroke-linejoin: miter; stroke-miterlimit: 4; fill: rgb(255,255,255); fill-rule: nonzero; opacity: 1;" vector-effect="non-scaling-stroke"  transform=" translate(-425.05, -613.08)" d="M 336.36 677 C 334.7847775160814 677.000652833828 333.3558411385915 676.0767378061906 332.71000000000004 674.64 C 332.16 673.41 319.22 644.09 330.25000000000006 614.87 C 338.6000000000001 592.75 361.88000000000005 564.08 393.25000000000006 553.42 C 417.33000000000004 545.2199999999999 442.84000000000003 548.8 467.01000000000005 563.75 L 467.13000000000005 563.83 C 485.34000000000003 576.0200000000001 493.31000000000006 589.6500000000001 496.18000000000006 595.83 C 500.9000000000001 595.1600000000001 509.18000000000006 594.9100000000001 513.6200000000001 600.1 C 516.4160136425094 603.623498471288 517.5138876569658 608.2016331115717 516.6200000000001 612.61 C 515.9858039663632 616.0215460758319 514.2921982914525 619.1463185297478 511.78000000000014 621.54 L 512.5400000000002 622.17 C 517.4500000000002 626.26 523.5400000000002 631.3499999999999 524.2000000000002 639.9499999999999 C 525.6000000000001 658.9499999999999 510.90000000000015 669.0699999999999 510.28000000000014 669.4899999999999 C 508.44917605431107 670.7271178396209 505.9621178396211 670.245823945689 504.72500000000014 668.415 C 503.4878821603792 666.5841760543108 503.96917605431105 664.0971178396209 505.8000000000001 662.8599999999999 C 506.2500000000001 662.55 517.2700000000001 654.7799999999999 516.2200000000001 640.5399999999998 C 515.8400000000001 635.3299999999998 511.7500000000001 631.9199999999998 507.42000000000013 628.3199999999998 C 505.7110517919334 626.9619661158251 504.09105336545696 625.4956170246434 502.5700000000001 623.9299999999998 C 501.72602437564643 623.0273654012532 501.3466270006741 621.7853222441944 501.5421666375852 620.5651549098692 C 501.7377062744963 619.344987575544 502.48622707827127 618.2837005368742 503.5700000000001 617.6899999999998 C 506.2180444577015 616.4494625427212 508.12647338449193 614.0333544645323 508.7200000000001 611.1699999999998 C 509.15156621807637 609.1411670045454 508.7165895277471 607.0242804449426 507.5200000000001 605.3299999999998 C 505.4200000000001 602.8999999999999 498.61000000000007 603.2399999999998 494.6700000000001 604.2399999999998 C 492.627138224436 604.7595663904513 490.53164917544683 603.6046413196096 489.88000000000005 601.5999999999998 C 489.83000000000004 601.4499999999998 484.09000000000003 584.8899999999998 462.69000000000005 570.5399999999998 C 440.33000000000004 556.7299999999999 417.81000000000006 553.5399999999998 395.7800000000001 561.0199999999999 C 366.87000000000006 570.8499999999999 345.4100000000001 597.3099999999998 337.7000000000001 617.7299999999999 C 327.8200000000001 643.8799999999999 339.8400000000001 671.1099999999999 339.9700000000001 671.3799999999999 C 340.5310325039011 672.6189698094565 340.4240707590184 674.0581231408956 339.6860469284537 675.2005435909477 C 338.9480230978891 676.342964041 337.6800732536989 677.0320985118244 336.3200000000001 677.0299999999999 Z" stroke-linecap="round" />
</g>
		<g transform="matrix(1 0 0 1 -126.14 45.36)"  >
<path style="stroke: none; stroke-width: 5; stroke-dasharray: none; stroke-linecap: butt; stroke-dashoffset: 0; stroke-linejoin: miter; stroke-miterlimit: 4; fill: rgb(255,255,255); fill-rule: nonzero; opacity: 1;" vector-effect="non-scaling-stroke"  transform=" translate(-413.87, -585.31)" d="M 334 620.29 C 333.5184359787826 620.2862027580561 333.0412466996844 620.1982104087189 332.59 620.03 C 331.5961854686882 619.6554667861645 330.7921157056274 618.9010805607872 330.3550417902485 617.9331400443258 C 329.9179678748696 616.9651995278643 329.8837747389834 615.8631752130844 330.26 614.87 C 338.44 593.2 360.57 566.38 391.57 555.3 C 416.12 546.52 442.17 549.42 466.9 563.6899999999999 L 467.13 563.8299999999999 C 491.03 579.8299999999999 497.28 598.31 497.54 599.0899999999999 C 498.2248330897902 601.1914434731061 497.0764434731062 603.4501669102098 494.975 604.135 C 492.8735565268939 604.8198330897901 490.6148330897902 603.6714434731061 489.93 601.5699999999999 C 489.88 601.42 484.15000000000003 584.89 462.79 570.5699999999999 C 439.87 557.39 416.79 554.79 394.26 562.8499999999999 C 365.82 573 345 598.4 337.74 617.7 C 337.1534269584426 619.2572271427098 335.664038004859 620.2886489046833 334 620.29 Z" stroke-linecap="round" />
</g>
		<g transform="matrix(1 0 0 1 -188.68 122.71)"  >
<path style="stroke: none; stroke-width: 5; stroke-dasharray: none; stroke-linecap: butt; stroke-dashoffset: 0; stroke-linejoin: miter; stroke-miterlimit: 4; fill: rgb(255,255,255); fill-rule: nonzero; opacity: 1;" vector-effect="non-scaling-stroke"  transform=" translate(-351.33, -662.66)" d="M 336.35 677 C 334.23853854591897 677.0044648861563 332.4872405806533 675.3670012886329 332.35 673.26 C 332.35 672.67 331.52000000000004 658.62 340.94 651.79 C 347.31 647.17 356.35 647.16 367.82 651.79 C 369.8717378456214 652.6184271247462 370.8634271247462 654.9532621543785 370.03499999999997 657.0049999999999 C 369.20657287525376 659.0567378456213 366.8717378456214 660.0484271247461 364.82 659.2199999999999 C 358.82 656.8199999999999 350.61 654.7099999999999 345.62 658.3 C 339.77 662.52 340.3 672.7099999999999 340.3 672.81 C 340.4091041881845 674.9796812552058 338.766508610702 676.8398097605171 336.6 677 Z" stroke-linecap="round" />
</g>
</g>
</g>
</svg>