<svg width="131" height="154" viewBox="0 0 131 154" fill="none" xmlns="http://www.w3.org/2000/svg">
<path d="M130.075 126.985L124.166 110.445L123.56 108.753L121.677 103.488L122.249 81.1428C122.276 80.1057 122.049 79.0777 121.589 78.1478C121.129 77.2179 120.449 76.4141 119.609 75.806C118.768 75.1978 117.792 74.8036 116.765 74.6576C115.738 74.5115 114.691 74.6179 113.714 74.9675L106.498 77.5482V48.5395C106.51 41.8991 105.139 35.329 102.473 29.2473C104.432 25.9295 107.596 23.495 111.305 22.4507L113.897 21.715L108.907 20.1063C107.222 19.5643 105.691 18.6288 104.439 17.3773C103.188 16.1258 102.252 14.5943 101.71 12.9094L100.147 8.09117L98.7294 12.3758C98.0521 14.413 96.8583 16.2399 95.2644 17.6781C88.9296 10.1046 80.4165 4.66524 70.8822 2.09922C61.3479 -0.466809 51.2547 -0.0350201 41.9743 3.3359C32.694 6.70683 24.6766 12.8534 19.0117 20.9403C13.3469 29.0271 10.3093 38.6621 10.3119 48.5357V85.9954C9.70197 85.94 9.08827 85.94 8.47835 85.9954H8.37543C7.85218 85.9949 7.33396 86.0976 6.85043 86.2976C6.36691 86.4976 5.92758 86.791 5.55758 87.161C5.18758 87.531 4.89419 87.9704 4.69418 88.4539C4.49417 88.9374 4.39147 89.4556 4.39197 89.9789V118.24C3.30061 118.44 2.31368 119.016 1.60267 119.867C0.891655 120.719 0.5015 121.793 0.5 122.902V148.511C0.50202 149.767 1.00252 150.971 1.8916 151.859C2.78069 152.747 3.98569 153.245 5.24203 153.245H24.3817C25.638 153.245 26.843 152.747 27.7321 151.859C28.6212 150.971 29.1217 149.767 29.1237 148.511V140.75H100.567V139.225L100.418 129.314V129.249C100.11 126.183 99.172 123.214 97.6621 120.528L97.5782 120.383C97.3914 120.059 97.197 119.739 96.9912 119.426C100.416 114.838 102.991 109.674 104.596 104.178L108.172 108.318L110.051 113.578L110.657 115.271L116.577 131.807C117.216 133.598 118.541 135.062 120.26 135.876C121.978 136.69 123.95 136.788 125.741 136.149C127.532 135.509 128.995 134.185 129.809 132.466C130.624 130.748 130.722 128.776 130.082 126.985H130.075ZM96.225 18.8637C98.0052 17.2815 99.3481 15.2677 100.125 13.0162L100.243 13.3783C100.86 15.2956 101.925 17.0387 103.348 18.4637C104.772 19.8887 106.514 20.9547 108.431 21.5739L108.854 21.7112C105.959 22.9542 103.481 24.999 101.71 27.6044C101.36 28.1151 101.041 28.6472 100.757 29.1978C100.548 29.579 100.353 29.9945 100.178 30.41L99.934 29.6476C99.358 27.8257 98.3532 26.1686 97.004 24.8154C95.6549 23.4623 94.0008 22.4527 92.1805 21.8713L91.4982 21.654C92.7614 21.2136 93.9552 20.5949 95.0433 19.8166C95.4548 19.5214 95.8493 19.2032 96.225 18.8637ZM11.8367 48.5357C11.8296 38.9743 14.7671 29.6427 20.2499 21.8095C25.7327 13.9763 33.4947 8.02156 42.4807 4.75483C51.4667 1.4881 61.2407 1.06788 70.4739 3.55128C79.7072 6.03469 87.9516 11.3012 94.0865 18.6349C93.0959 19.3329 92.008 19.8813 90.8578 20.2626L86.5618 21.6845L91.7269 23.3236C93.3139 23.8276 94.7567 24.7052 95.9341 25.8826C97.1115 27.06 97.9891 28.5028 98.4931 30.0898L100.136 35.2969L101.07 32.3617C101.215 31.9093 101.379 31.4671 101.562 31.0351C103.821 36.5914 104.98 42.5337 104.973 48.5319V66.2992C102.507 66.4403 93.6634 66.4403 86.2683 60.1773C79.2429 54.2192 75.4119 44.3921 74.882 30.9589L74.7563 27.7645L73.4259 30.673C73.384 30.7683 68.9164 40.3972 59.0206 50.1557C50.0169 59.0337 34.5519 69.8138 11.8367 71.0908V48.5357ZM92.9429 65.8837C87.9874 86.8493 73.079 99.4668 54.7894 98.0602C36.9763 96.6955 27.5723 74.9408 25.8531 70.5495C38.8265 67.3185 50.6822 60.6332 60.1604 51.204C65.3812 46.0356 69.8701 40.1769 73.5021 33.7911C74.4513 46.2752 78.4081 55.542 85.2886 61.359C87.5731 63.2789 90.1595 64.8078 92.9429 65.8837ZM11.8367 72.6194C16.0415 72.396 20.2201 71.8197 24.3283 70.8964C26.1692 75.6218 28.5646 80.1119 31.4642 84.2724C35.1694 89.5558 39.3397 93.543 43.8187 96.1313V107.845L31.4033 110.994C29.2013 111.554 27.1098 112.482 25.2165 113.739V99.3371C25.7121 98.3918 25.6854 97.2368 25.2165 95.9979C24.8443 95.0584 24.3301 94.1816 23.6917 93.3982C22.0974 91.4745 20.1583 89.8651 17.9739 88.6523C17.2578 88.232 16.5198 87.8503 15.7629 87.5088C14.4991 86.9296 13.1745 86.4936 11.8138 86.2089V72.6194H11.8367ZM6.3818 88.6028C6.72106 88.0196 7.47582 87.646 8.53172 87.524C8.80223 87.4894 9.07475 87.4728 9.34747 87.4744C9.64041 87.4746 9.93312 87.4911 10.2242 87.524H10.3119C10.8255 87.5732 11.335 87.6585 11.8367 87.7794C13.7344 88.2354 15.5536 88.9715 17.2343 89.9636C20.6422 91.9344 22.8798 94.355 23.7146 96.2686C23.9437 96.739 24.0734 97.2515 24.0958 97.7743C24.1043 98.091 24.028 98.4042 23.8747 98.6815C23.8325 98.7542 23.784 98.8231 23.7299 98.8873C22.4834 100.412 17.9548 100.157 13.0184 97.3092C12.7591 97.1605 12.5076 97.0043 12.256 96.8518C11.6787 96.4904 11.1201 96.0998 10.5825 95.6815C9.34653 94.7634 8.25556 93.6648 7.34621 92.4223C6.2217 90.8709 5.87862 89.4757 6.3818 88.6028ZM5.91674 93.0742L6.08065 93.3143C7.38385 95.0666 8.98979 96.5718 10.8227 97.759C11.2763 98.0602 11.7452 98.3575 12.2331 98.6358C12.3322 98.6967 12.4351 98.7539 12.5342 98.8073C15.5266 100.481 18.5075 101.338 20.8709 101.338C21.7702 101.36 22.6646 101.2 23.5011 100.87C23.5736 100.835 23.6422 100.809 23.707 100.774V118.16H5.91674V93.0742ZM27.599 148.511C27.599 148.933 27.5158 149.35 27.3543 149.74C27.1927 150.13 26.956 150.484 26.6575 150.782C26.3591 151.08 26.0048 151.316 25.615 151.477C25.2251 151.638 24.8073 151.721 24.3855 151.721H5.24203C4.3907 151.719 3.57469 151.38 2.97199 150.779C2.36929 150.177 2.02879 149.362 2.02477 148.511V128.605H27.2711V127.08H2.02477V122.887C2.02427 122.465 2.10702 122.047 2.26828 121.656C2.42955 121.266 2.66617 120.911 2.96462 120.612C3.26307 120.314 3.61748 120.077 4.0076 119.915C4.39773 119.753 4.8159 119.67 5.23822 119.67H24.3817C25.234 119.673 26.0506 120.013 26.6533 120.616C27.256 121.218 27.5959 122.035 27.599 122.887V148.511ZM98.8819 129.379L99.0268 139.221H29.1237V122.902C29.1222 121.793 28.7321 120.719 28.0211 119.867C27.31 119.016 26.3231 118.44 25.2318 118.24V115.599C27.1933 114.137 29.422 113.074 31.7921 112.469L45.3587 109.038V96.9547C48.2583 98.4239 51.4161 99.3146 54.656 99.5773C55.6356 99.6574 56.6077 99.6917 57.5683 99.6917C62.2603 99.7175 66.9067 98.7713 71.215 96.9128V109.027L84.7816 112.458C88.9194 113.507 92.5692 115.95 95.1157 119.376C95.4321 119.803 95.7333 120.246 96.0077 120.703L96.2631 121.134L96.3432 121.275C97.7423 123.773 98.6117 126.533 98.8972 129.383L98.8819 129.379ZM96.042 118.122C93.3002 114.596 89.4593 112.085 85.1285 110.99L72.7397 107.845V96.2076C75.6758 94.742 78.3921 92.8725 80.8096 90.6536C87.2289 84.787 92.0281 76.2026 94.3838 66.4021C97.8003 67.5231 101.393 68.0089 104.985 67.8354V78.0895L101.222 79.4313L101.192 79.458L96.2669 81.2153C95.2905 81.5652 94.4138 82.1475 93.7126 82.9119C93.0115 83.6763 92.5069 84.5998 92.2423 85.6028C91.9778 86.6058 91.9613 87.6581 92.1943 88.6689C92.4272 89.6796 92.9027 90.6185 93.5795 91.4045L103.418 102.806C101.929 108.323 99.434 113.517 96.0573 118.126L96.042 118.122ZM105.072 102.387L103.841 100.965L94.7117 90.3906C94.1973 89.7926 93.8361 89.0786 93.6591 88.31C93.4821 87.5414 93.4947 86.7412 93.6958 85.9786C93.8969 85.2159 94.2804 84.5136 94.8133 83.9321C95.3462 83.3507 96.0126 82.9076 96.7549 82.6409L99.9759 81.4974C99.594 82.8881 99.6272 84.3602 100.071 85.7324C101.097 89.3309 104.2 93.421 104.84 94.2406C104.901 94.3168 104.939 94.3588 104.95 94.3778L106.14 93.4249C106.14 93.4058 105.633 92.7845 104.958 91.82C103.815 90.1923 102.191 87.5964 101.527 85.3131C100.765 82.679 101.623 81.2534 102.008 80.7731L104.954 79.721L106.479 79.1759L110.104 77.876C110.596 77.979 112.273 78.5279 113.302 81.2724C114.629 84.8137 114.423 90.4744 114.419 90.5316L115.944 90.5926C115.944 90.3486 116.165 84.5698 114.732 80.735C114.023 78.8519 113.02 77.7693 112.128 77.1556L114.206 76.4122C114.738 76.2218 115.299 76.1238 115.864 76.1225C116.511 76.1269 117.151 76.2601 117.746 76.5142C118.341 76.7684 118.88 77.1385 119.33 77.6029C119.781 78.0674 120.135 78.6169 120.371 79.2194C120.607 79.8219 120.72 80.4654 120.705 81.1123L120.145 103.096L109.06 107.056L105.072 102.387ZM109.818 108.383L120.454 104.571L122.123 109.241L111.488 113.052L109.818 108.383ZM125.222 134.685C123.81 135.187 122.256 135.108 120.902 134.465C119.548 133.821 118.505 132.667 118.003 131.254L112.09 114.718L122.729 110.906L128.642 127.442C128.861 128.054 128.972 128.699 128.969 129.348C128.977 130.521 128.62 131.666 127.949 132.628C127.278 133.589 126.325 134.318 125.222 134.716V134.685Z" fill="white"/>
</svg>
