<svg id="Layer_1" data-name="Layer 1" fill="white" xmlns="http://www.w3.org/2000/svg" viewBox="0 0 200 200" stroke="white" stroke-width="3" width="200" height="200"><path d="M79.183 132.552a4.246 4.246 0 1 0 -4.246 -4.246 4.259 4.259 0 0 0 4.246 4.246m0 -7.233a2.987 2.987 0 1 1 -2.989 2.987 2.991 2.991 0 0 1 2.989 -2.987"/><path d="M155.057 81.937c-3.917 -3.806 -9.511 -1.237 -9.746 -1.126l-0.089 0.041L121.296 103.03c-1.739 -2.446 -5.033 -3.269 -5.185 -3.306l-0.056 -0.011c-1.352 -0.202 -33.183 -4.907 -38.822 -3.076 -4.615 1.5 -7.593 5.556 -8.657 7.202l-3.372 -3.372 -22.378 22.378 27.75 27.752L92.963 128.217l-1.387 -1.385h0.826c6.72 0 25.509 -0.057 28.42 -0.685 3.972 -0.857 31.798 -30.294 34.957 -33.648l0.057 -0.059 0.039 -0.072c0.13 -0.256 3.326 -6.287 -0.819 -10.43m-84.481 66.88L44.606 122.844 65.204 102.246l25.972 25.97ZM154.796 91.7C142.493 104.757 123.263 124.331 120.556 124.917c-3.174 0.685 -27.469 0.661 -30.241 0.656L69.491 104.752c0.817 -1.311 3.704 -5.48 8.13 -6.919 5.285 -1.719 37.037 2.943 38.219 3.119 0.324 0.085 3.813 1.059 4.913 3.65 0.62 1.457 0.381 3.207 -0.707 5.204l-24.233 -0.959 -0.05 1.257 25 0.989 0.185 -0.326c1.456 -2.498 1.78 -4.739 0.959 -6.667 -0.026 -0.059 -0.054 -0.115 -0.08 -0.174l0.163 0.185L145.926 81.913c0.667 -0.283 5.196 -2.037 8.244 0.926 3.263 3.254 0.943 8.228 0.626 8.861"/><path d="M116.902 89.074h-8.422a4.074 4.074 0 0 1 -4.074 -4.074v-7.843h-7.848a4.074 4.074 0 0 1 -4.074 -4.074v-8.422a4.074 4.074 0 0 1 4.074 -4.074h7.848v-7.85a4.074 4.074 0 0 1 4.074 -4.074h8.422a4.074 4.074 0 0 1 4.074 4.074v7.85h7.85a4.074 4.074 0 0 1 4.074 4.074v8.422a4.074 4.074 0 0 1 -4.074 4.074h-7.85V85a4.074 4.074 0 0 1 -4.074 4.074M96.557 62.069a2.593 2.593 0 0 0 -2.593 2.593v8.422a2.593 2.593 0 0 0 2.593 2.593h9.33V85a2.593 2.593 0 0 0 2.593 2.593h8.422a2.593 2.593 0 0 0 2.593 -2.593v-9.324h9.331a2.593 2.593 0 0 0 2.593 -2.593v-8.422a2.593 2.593 0 0 0 -2.593 -2.593h-9.331v-9.331a2.593 2.593 0 0 0 -2.593 -2.593h-8.422a2.593 2.593 0 0 0 -2.593 2.593v9.331Z"/></svg>