<svg width="72" height="148" viewBox="0 0 72 148" fill="none" xmlns="http://www.w3.org/2000/svg">
<path d="M7.60889 81.0592V112.616C7.60889 115.591 8.79062 118.444 10.8941 120.547C12.9976 122.651 15.8505 123.833 18.8253 123.833H45.3048C48.2796 123.833 51.1325 122.651 53.236 120.547C55.3395 118.444 56.5212 115.591 56.5212 112.616V81.0592C56.5212 78.0844 55.3395 75.2315 53.236 73.128C51.1325 71.0245 48.2796 69.8428 45.3048 69.8428H18.8253C15.8505 69.8428 12.9976 71.0245 10.8941 73.128C8.79062 75.2315 7.60889 78.0844 7.60889 81.0592ZM54.7999 81.0592V112.616C54.7999 115.133 53.8 117.547 52.0201 119.327C50.2402 121.107 47.8262 122.107 45.3091 122.107H18.8253C16.3082 122.107 13.8942 121.107 12.1143 119.327C10.3344 117.547 9.33449 115.133 9.33449 112.616V81.0592C9.33449 78.5421 10.3344 76.1281 12.1143 74.3482C13.8942 72.5683 16.3082 71.5684 18.8253 71.5684H45.3048C46.5515 71.5678 47.7861 71.8129 48.9381 72.2896C50.0901 72.7663 51.1368 73.4653 52.0186 74.3467C52.9004 75.228 53.5998 76.2745 54.0771 77.4262C54.5543 78.578 54.7999 79.8125 54.7999 81.0592Z" fill="white"/>
<path d="M71.5 12.9927V5.76671L67.4492 4.98587C42.0396 -0.00544154 28.0709 -2.74915 11.4619 5.51218L10.983 5.74945V12.7899L24.6369 12.8374V21.4654H15.6551V41.9052C11.3139 43.0581 7.4749 45.6123 4.73442 49.1711C1.99394 52.7299 0.5054 57.094 0.5 61.5857V139.514C0.501142 141.705 1.37176 143.806 2.92069 145.356C4.46962 146.906 6.57024 147.777 8.76133 147.78H55.7841C57.9741 147.775 60.0729 146.903 61.6207 145.353C63.1684 143.804 64.0388 141.704 64.0411 139.514V61.5771C64.0347 57.085 62.5453 52.7208 59.8041 49.162C57.0629 45.6033 53.2233 43.0493 48.8816 41.8966V21.4568H39.9128V12.8891L71.5 12.9927ZM62.3155 61.5771V139.514C62.3144 141.247 61.6261 142.908 60.4018 144.134C59.1774 145.36 57.5168 146.051 55.7841 146.054H8.76133C7.02865 146.052 5.36759 145.363 4.1424 144.137C2.9172 142.912 2.22789 141.251 2.22561 139.518V61.5771C2.23131 56.6384 4.19572 51.9037 7.6879 48.4115C11.1801 44.9193 15.9148 42.9549 20.8535 42.9492H43.6962C48.6334 42.9572 53.3659 44.9226 56.8563 48.4145C60.3466 51.9064 62.3098 56.6399 62.3155 61.5771ZM47.156 23.1824V41.2236H17.3894V23.1824H47.156ZM26.3539 21.4568V12.9927H38.1786V21.4568H26.3539ZM12.7043 6.81933C28.5842 -0.889815 42.3416 1.81076 67.1127 6.66834L69.7701 7.19033V11.2628L12.7043 11.0729V6.81933Z" fill="white"/>
</svg>
