<svg width="112" height="150" viewBox="0 0 112 150" fill="none" xmlns="http://www.w3.org/2000/svg">
<path d="M108.382 106.763V100.068C109.154 99.3883 110.663 97.3893 110.416 92.3029C110.03 84.5846 104.241 81.5166 103.982 81.3892L103.454 81.1152L103.068 81.559C98.1821 86.9618 94.7127 87.1085 91.9225 87.232C89.634 87.3323 87.3687 86.7342 84.7445 86.0356C80.1405 84.8162 74.429 83.2995 65.6301 84.7814C68.482 50.2072 70.4617 19.5925 69.1033 1.08016L69.0531 0.366211H0.969885L0.915857 1.08016C-0.867074 25.362 3.40887 74.327 7.54975 121.687V140.253H45.4467V149.013H111.5V106.763H108.382ZM84.3354 87.5291C87.087 88.2585 89.4604 88.8837 91.9804 88.7757C94.8169 88.6483 98.6683 88.4785 103.77 83.0602C105.298 84.098 106.557 85.4838 107.444 87.1035C108.331 88.7232 108.82 90.5303 108.872 92.3762C109.092 96.9802 107.757 98.5509 107.355 98.9137H50.3285C51.1003 96.3512 54.1028 89.0728 63.9127 86.6956C64.4067 86.5759 64.9161 86.4679 65.4564 86.3753H65.4989C74.1781 84.8354 79.8086 86.3289 84.3354 87.5291ZM50.1124 102.838V100.457H106.842V102.838H50.1124ZM106.842 104.382V106.763H50.1124V104.382H106.842ZM45.4467 138.709H9.09341V123.23H45.4467V138.709ZM45.4467 119.861H9.09341V116.917H45.4467V119.861ZM45.4467 115.373H8.53383C4.62065 70.5064 0.815518 25.2385 2.39005 1.91373H67.6021C68.8602 20.4686 66.8727 50.844 64.044 85.0863C52.5437 87.6333 49.3792 96.4592 48.7308 98.9175C48.6228 99.3034 48.5803 99.5427 48.5764 99.5581V99.6044V106.767H45.4544L45.4467 115.373ZM109.956 147.47H46.9903V141.295H109.956V147.47ZM109.956 139.751H46.9903V108.307H109.956V139.751Z" fill="white"/>
<path d="M55.546 29.3348C55.546 20.8447 46.3264 13.96 34.9959 13.96C23.6655 13.96 14.4459 20.8563 14.4459 29.3348C14.4459 37.8134 23.6655 44.7059 34.9959 44.7059C46.3264 44.7059 55.546 37.8095 55.546 29.3348ZM34.9959 43.1622C24.5183 43.1622 15.9896 36.9567 15.9896 29.3348C15.9896 21.713 24.5183 15.5036 34.9959 15.5036C45.4736 15.5036 54.0023 21.7091 54.0023 29.3348C54.0023 36.9605 45.4774 43.1622 34.9959 43.1622Z" fill="white"/>
<path d="M62.7282 131.108C66.2285 133.875 71.9285 135.643 78.4813 135.643C89.3757 135.643 97.9122 130.757 97.9122 124.521C97.9122 118.284 89.3757 113.398 78.4813 113.398C71.9709 113.398 66.3018 115.143 62.7938 117.879L62.7282 117.933C62.1724 118.368 61.6559 118.851 61.1846 119.376L61.1074 119.461C60.7172 119.905 60.3696 120.384 60.0693 120.893C59.9263 121.151 59.7974 121.416 59.6834 121.688C59.5753 121.935 59.4788 122.186 59.3978 122.437C59.1902 123.111 59.081 123.811 59.0736 124.517C59.1159 126.437 59.8759 128.273 61.2039 129.661C61.6689 130.187 62.179 130.671 62.7282 131.108ZM60.7601 123.235C60.8271 122.964 60.9148 122.698 61.0225 122.44C61.2547 121.888 61.5597 121.369 61.9294 120.897C62.136 120.625 62.3604 120.367 62.6009 120.125L62.7282 119.994C65.75 116.991 71.6776 114.946 78.4813 114.946C88.3453 114.946 96.3685 119.241 96.3685 124.524C96.3685 129.808 88.3453 134.103 78.4813 134.103C71.6776 134.103 65.7461 132.057 62.7282 129.055C62.1014 128.447 61.5798 127.739 61.1846 126.96C60.8037 126.204 60.6029 125.37 60.598 124.524C60.5973 124.09 60.6518 123.657 60.7601 123.235Z" fill="white"/>
<path d="M63.4161 92.5938C60.9386 93.369 58.5556 94.4187 56.3114 95.7236L57.1141 97.0395C59.0749 95.9137 61.1435 94.9867 63.2888 94.2725C63.7982 94.0988 64.3307 93.9329 64.8787 93.7824C66.0475 93.446 67.2375 93.1882 68.4407 93.0106C73.1103 92.3545 77.2782 93.4351 81.3072 94.4809C85.6526 95.6116 89.7587 96.6768 94.3588 95.7158C100.148 94.5002 101.903 91.8258 102.428 90.3362C102.814 89.2633 102.756 88.175 102.305 87.6348L101.112 88.615C101.093 88.5918 101.089 88.5764 101.085 88.5764C101.159 88.7192 101.22 89.3714 100.807 90.2243C100.286 91.2932 98.7158 93.2344 94.0424 94.2108C89.7973 95.0984 85.861 94.0757 81.6931 92.9951C77.5252 91.9146 73.2029 90.7877 68.2246 91.4901C67.144 91.644 66.0732 91.8604 65.0177 92.1384C64.4542 92.2773 63.9255 92.4433 63.4161 92.5938Z" fill="white"/>
</svg>
