<svg id="Layer_1" data-name="Layer 1" xmlns="http://www.w3.org/2000/svg" viewBox="0 0 200 200" width="200" height="200" stroke-width="5" ><path fill="white" d="M78.017 72.417a7.778 7.778 0 1 1 7.778 -7.787 7.794 7.794 0 0 1 -7.778 7.787m0 -14.091a6.296 6.296 0 1 0 6.296 6.296 6.311 6.311 0 0 0 -6.296 -6.289Z"/><path fill="white" d="M92.107 58.133a7.778 7.778 0 1 1 7.778 -7.778 7.794 7.794 0 0 1 -7.778 7.778m0 -14.091a6.296 6.296 0 1 0 6.296 6.296 6.313 6.313 0 0 0 -6.296 -6.296"/><path fill="white" d="M110.272 58.133a7.778 7.778 0 1 1 7.778 -7.778 7.794 7.794 0 0 1 -7.778 7.778m0 -14.091a6.296 6.296 0 1 0 6.296 6.296 6.315 6.315 0 0 0 -6.296 -6.296"/><path fill="white" d="M124.846 72.417a7.778 7.778 0 1 1 7.778 -7.787 7.794 7.794 0 0 1 -7.778 7.787m0 -14.091a6.296 6.296 0 1 0 6.296 6.296 6.311 6.311 0 0 0 -6.296 -6.289Z"/><path fill="white" d="M110.885 97.928a14.685 14.685 0 0 1 -4.013 -0.6 22.278 22.278 0 0 1 -5.556 -2.498 22.222 22.222 0 0 1 -5.546 2.498c-4.559 1.296 -8.446 0.478 -11.244 -2.374 -2.863 -2.872 -4.109 -6.2 -3.704 -9.887 1.328 -11.883 19.339 -23.459 20.104 -23.946l0.396 -0.252 0.398 0.252c0.767 0.487 18.778 12.063 20.094 23.946 0.409 3.687 -0.837 7.015 -3.704 9.891 -1.931 1.97 -4.387 2.97 -7.226 2.97m-9.561 -35.294c-2.67 1.781 -17.885 12.352 -19.019 22.593 -0.357 3.219 0.741 6.139 3.281 8.68 1.841 1.876 4.031 2.52 6.17 2.52 4.657 0 9.074 -3.05 9.141 -3.094l0.426 -0.3 0.426 0.3c0.094 0.065 9.478 6.522 15.307 0.58 2.539 -2.546 3.644 -5.469 3.287 -8.687 -1.135 -10.244 -16.348 -20.811 -19.02 -22.591"/><path fill="white" d="M93.783 157.439H72.157l0.017 -0.757c0 -0.033 0.048 -3.481 -1.622 -7.874 -1.537 -4.035 -4.885 -9.724 -12.119 -13.917 -6.587 -3.819 -11.481 -9.533 -14.567 -16.989 -2.891 -7 -3.496 -13.863 -3.496 -18.387V73.02a7.407 7.407 0 0 1 1.22 -4.113c1.428 -2.15 3.07 -3.385 5.024 -3.774 1.465 -0.291 3.069 -0.085 4.791 0.615a0.741 0.741 0 0 1 0.972 0.441 17.963 17.963 0 0 1 1.989 1.169c10.126 6.804 10.246 25.756 10.228 27.893a0.556 0.556 0 0 1 0 0.08L89.898 114.815c0.135 0.102 3.519 2.674 3.889 5.574 0.33 2.641 0.019 34.937 0 36.311Zm-20.146 -1.481h18.68c0.113 -11.789 0.248 -33.387 0 -35.37 -0.283 -2.274 -3.283 -4.556 -3.315 -4.578l-28.278 -21.785c-1.315 -0.815 -2.865 -1.524 -4.152 -1.544a3.574 3.574 0 0 0 -1.404 0.698 4.944 4.944 0 0 0 -1.052 1.111l-0.689 1.735a4.789 4.789 0 0 0 0.143 2.119l18.58 25.037a0.741 0.741 0 1 1 -1.189 0.883l-18.704 -25.213 -0.037 -0.096a6.052 6.052 0 0 1 0.493 -5c-0.439 -8.357 -1.481 -23.393 -1.72 -26.78 -1.502 -0.635 -2.869 -0.833 -4.085 -0.591 -2.059 0.409 -3.313 1.989 -4.074 3.139a5.926 5.926 0 0 0 -0.981 3.298v26.494c0 7.222 1.689 25.031 17.328 34.094 7.637 4.426 11.167 10.457 12.778 14.737a26.019 26.019 0 0 1 1.68 7.611m-11.943 -62.856c0.556 0.35 1.028 0.696 1.407 0.987 -0.098 -4.602 -1.076 -19.798 -9.563 -25.502q-0.515 -0.344 -1.013 -0.633c0.296 4.239 1.111 16.128 1.559 24.05a3.574 3.574 0 0 1 1.45 -0.698 4.315 4.315 0 0 1 0.848 -0.104c2.126 -0.42 4.094 0.763 5.041 1.691Z"/><path fill="white" d="M127.085 157.439H106.217v-0.741c-0.013 -1.374 -0.324 -33.67 0 -36.311 0.37 -2.9 3.752 -5.472 3.889 -5.58l25.307 -19.478a0.556 0.556 0 0 1 0 -0.08c-0.019 -2.137 0.102 -21.089 10.228 -27.893a17.963 17.963 0 0 1 1.989 -1.169 0.741 0.741 0 0 1 0.972 -0.441c1.722 -0.7 3.333 -0.906 4.791 -0.615 1.954 0.389 3.596 1.624 5.024 3.774a7.407 7.407 0 0 1 1.213 4.113v26.494c0 4.524 -0.607 11.387 -3.498 18.387 -3.078 7.456 -7.98 13.17 -14.567 16.989 -7.233 4.193 -10.581 9.881 -12.119 13.917 -1.667 4.393 -1.622 7.841 -1.622 7.874l0.015 0.756Zm-19.402 -1.481h18.68a26.019 26.019 0 0 1 1.678 -7.611c1.615 -4.28 5.144 -10.311 12.778 -14.737C156.461 124.546 158.148 106.746 158.148 99.515V73.02a5.926 5.926 0 0 0 -0.974 -3.294c-0.765 -1.15 -2.019 -2.73 -4.074 -3.139 -1.217 -0.243 -2.593 -0.044 -4.085 0.591 -0.237 3.387 -1.281 18.422 -1.72 26.78a6.052 6.052 0 0 1 0.493 5l-0.037 0.096 -0.061 0.081L129.039 124.259a0.741 0.741 0 1 1 -1.189 -0.883l18.58 -25.037a4.778 4.778 0 0 0 0.143 -2.117l-0.689 -1.737a4.944 4.944 0 0 0 -1.052 -1.111 3.574 3.574 0 0 0 -1.404 -0.698c-1.296 0.019 -2.837 0.73 -4.152 1.544L111.006 115.994c-0.037 0.028 -3.037 2.309 -3.32 4.583 -0.25 1.993 -0.115 23.591 -0.002 35.38M135.985 94.833h-0.009Zm11.481 -26.88q-0.5 0.289 -1.013 0.633c-8.487 5.704 -9.465 20.9 -9.563 25.502 0.37 -0.291 0.859 -0.637 1.407 -0.987l0.27 -0.209c0.948 -0.926 2.915 -2.111 5.041 -1.691a4.296 4.296 0 0 1 0.848 0.104 3.574 3.574 0 0 1 1.45 0.698c0.452 -7.93 1.27 -19.811 1.567 -24.041Z"/></svg>