<svg id="Layer_1" data-name="Layer 1" xmlns="http://www.w3.org/2000/svg" viewBox="0 0 1080 1080"><path d="M421.29,391.05a42,42,0,1,1,42-42.05A42.09,42.09,0,0,1,421.29,391.05Zm0-76.09a34,34,0,1,0,34,34A34.08,34.08,0,0,0,421.29,315Z"/><path d="M497.38,313.92a42,42,0,1,1,42-42A42.09,42.09,0,0,1,497.38,313.92Zm0-76.09a34,34,0,1,0,34,34A34.09,34.09,0,0,0,497.38,237.83Z"/><path d="M595.47,313.92a42,42,0,1,1,42-42A42.09,42.09,0,0,1,595.47,313.92Zm0-76.09a34,34,0,1,0,34,34A34.1,34.1,0,0,0,595.47,237.83Z"/><path d="M674.17,391.05a42,42,0,1,1,42-42.05A42.09,42.09,0,0,1,674.17,391.05Zm0-76.09a34,34,0,1,0,34,34A34.08,34.08,0,0,0,674.17,315Z"/><path d="M598.78,528.81a79.34,79.34,0,0,1-21.67-3.24,120.25,120.25,0,0,1-30-13.49,120,120,0,0,1-29.95,13.49c-24.62,7-45.61,2.58-60.72-12.82-15.46-15.51-22.19-33.48-20-53.39C443.61,395.19,540.87,332.68,545,330.05l2.14-1.36,2.15,1.36c4.14,2.63,101.4,65.14,108.51,129.31,2.21,19.91-4.52,37.88-20,53.41C627.37,523.41,614.11,528.81,598.78,528.81ZM547.15,338.22c-14.42,9.62-96.58,66.7-102.7,122-1.93,17.38,4,33.15,17.72,46.87,9.94,10.13,21.77,13.61,33.32,13.61,25.15,0,49-16.47,49.36-16.71l2.3-1.62,2.3,1.62c.51.35,51.18,35.22,82.66,3.13,13.71-13.75,19.68-29.53,17.75-46.91C643.73,404.89,561.58,347.83,547.15,338.22Z"/><path d="M506.43,850.17H389.65l.09-4.09c0-.18.26-18.8-8.76-42.52-8.3-21.79-26.38-52.51-65.44-75.15-35.57-20.62-62-51.48-78.66-91.74C221.27,598.87,218,561.81,218,537.38V394.31a40,40,0,0,1,6.59-22.21c7.71-11.61,16.58-18.28,27.13-20.38,7.91-1.57,16.57-.46,25.87,3.32a4,4,0,0,1,5.25,2.38,97.39,97.39,0,0,1,10.74,6.31c54.68,36.74,55.33,139.08,55.23,150.62a3,3,0,0,1,0,.43L485.45,620c.73.55,19,14.44,21,30.1,1.78,14.26.1,188.66,0,196.08Zm-108.79-8H498.51c.61-63.66,1.34-180.29,0-191-1.53-12.28-17.73-24.6-17.9-24.72L327.91,508.81c-7.1-4.4-15.47-8.23-22.42-8.34a19.29,19.29,0,0,0-7.58,3.77,26.67,26.67,0,0,0-5.68,6l-3.72,9.37a25.86,25.86,0,0,0,.77,11.44l100.33,135.2a4,4,0,1,1-6.42,4.77l-101-136.15-.2-.52a32.68,32.68,0,0,1,2.66-27c-2.37-45.13-8-126.32-9.29-144.61-8.11-3.43-15.49-4.5-22.06-3.19-11.12,2.21-17.89,10.74-22,16.95A32,32,0,0,0,226,394.31V537.38c0,39,9.12,135.17,93.57,184.11,41.24,23.9,60.3,56.47,69,79.58A140.45,140.45,0,0,1,397.64,842.17ZM345.69,512.1l0,0Zm-12.54-9.35c3,1.89,5.55,3.76,7.6,5.33-.53-24.85-5.81-106.91-51.64-137.71q-2.78-1.86-5.47-3.42c1.6,22.89,6,87.09,8.42,129.87a19.31,19.31,0,0,1,7.83-3.77,23.32,23.32,0,0,1,4.58-.56c11.48-2.27,22.11,4.12,27.22,9.13Z"/><path d="M686.26,850.17H573.57l0-4c-.07-7.42-1.75-181.82,0-196.08,2-15.66,20.26-29.55,21-30.13L731.23,514.78a3,3,0,0,1,0-.43c-.1-11.54.55-113.88,55.23-150.62a97.39,97.39,0,0,1,10.74-6.31,4,4,0,0,1,5.25-2.38c9.3-3.78,18-4.89,25.87-3.32,10.55,2.1,19.42,8.77,27.13,20.38A40,40,0,0,1,862,394.31V537.38c0,24.43-3.28,61.49-18.89,99.29-16.62,40.26-43.09,71.12-78.66,91.74-39.06,22.64-57.14,53.36-65.44,75.15-9,23.72-8.76,42.34-8.76,42.52l.08,4.08Zm-104.77-8H682.36a140.45,140.45,0,0,1,9.06-41.1c8.72-23.11,27.78-55.68,69-79.58C844.89,672.55,854,576.43,854,537.38V394.31a32,32,0,0,0-5.26-17.79c-4.13-6.21-10.9-14.74-22-16.95-6.57-1.31-14-.24-22.06,3.19-1.28,18.29-6.92,99.48-9.29,144.61a32.68,32.68,0,0,1,2.66,27l-.2.52-.33.44L696.81,671a4,4,0,1,1-6.42-4.77l100.33-135.2a25.79,25.79,0,0,0,.77-11.43l-3.72-9.38a26.67,26.67,0,0,0-5.68-6,19.29,19.29,0,0,0-7.58-3.77c-7,.1-15.32,3.94-22.42,8.34L599.43,626.37c-.2.15-16.4,12.47-17.93,24.75C580.15,661.88,580.88,778.51,581.49,842.17ZM734.32,512.1l-.05,0Zm62-145.15q-2.7,1.56-5.47,3.42c-45.83,30.8-51.11,112.86-51.64,137.71,2-1.57,4.64-3.44,7.6-5.33l1.46-1.13c5.12-5,15.74-11.4,27.22-9.13a23.23,23.23,0,0,1,4.58.56,19.31,19.31,0,0,1,7.83,3.77C790.34,454,794.76,389.84,796.36,367Z"/></svg>